<svg width="252" height="68" viewBox="0 0 252 68" fill="none" xmlns="http://www.w3.org/2000/svg">
<g id="addImpactButton">
<g id="leaderboardButton">
<rect id="Rectangle 5" x="1.5" y="1.5" width="249" height="65" rx="11.5" stroke="#FF6B00" stroke-opacity="0.75" stroke-width="3"/>
<path id="leaderBoardText" d="M35.856 38.592H28.872L27.672 42H24.816L30.792 25.296H33.96L39.936 42H37.056L35.856 38.592ZM35.088 36.36L32.376 28.608L29.64 36.36H35.088ZM41.6224 35.328C41.6224 34 41.8944 32.824 42.4384 31.8C42.9984 30.776 43.7504 29.984 44.6944 29.424C45.6544 28.848 46.7184 28.56 47.8864 28.56C48.7504 28.56 49.5984 28.752 50.4304 29.136C51.2784 29.504 51.9504 30 52.4464 30.624V24.24H55.2064V42H52.4464V40.008C51.9984 40.648 51.3744 41.176 50.5744 41.592C49.7904 42.008 48.8864 42.216 47.8624 42.216C46.7104 42.216 45.6544 41.928 44.6944 41.352C43.7504 40.76 42.9984 39.944 42.4384 38.904C41.8944 37.848 41.6224 36.656 41.6224 35.328ZM52.4464 35.376C52.4464 34.464 52.2544 33.672 51.8704 33C51.5024 32.328 51.0144 31.816 50.4064 31.464C49.7984 31.112 49.1424 30.936 48.4384 30.936C47.7344 30.936 47.0784 31.112 46.4704 31.464C45.8624 31.8 45.3664 32.304 44.9824 32.976C44.6144 33.632 44.4304 34.416 44.4304 35.328C44.4304 36.24 44.6144 37.04 44.9824 37.728C45.3664 38.416 45.8624 38.944 46.4704 39.312C47.0944 39.664 47.7504 39.84 48.4384 39.84C49.1424 39.84 49.7984 39.664 50.4064 39.312C51.0144 38.96 51.5024 38.448 51.8704 37.776C52.2544 37.088 52.4464 36.288 52.4464 35.376ZM57.888 35.328C57.888 34 58.16 32.824 58.704 31.8C59.264 30.776 60.016 29.984 60.96 29.424C61.92 28.848 62.984 28.56 64.152 28.56C65.016 28.56 65.864 28.752 66.696 29.136C67.544 29.504 68.216 30 68.712 30.624V24.24H71.472V42H68.712V40.008C68.264 40.648 67.64 41.176 66.84 41.592C66.056 42.008 65.152 42.216 64.128 42.216C62.976 42.216 61.92 41.928 60.96 41.352C60.016 40.76 59.264 39.944 58.704 38.904C58.16 37.848 57.888 36.656 57.888 35.328ZM68.712 35.376C68.712 34.464 68.52 33.672 68.136 33C67.768 32.328 67.28 31.816 66.672 31.464C66.064 31.112 65.408 30.936 64.704 30.936C64 30.936 63.344 31.112 62.736 31.464C62.128 31.8 61.632 32.304 61.248 32.976C60.88 33.632 60.696 34.416 60.696 35.328C60.696 36.24 60.88 37.04 61.248 37.728C61.632 38.416 62.128 38.944 62.736 39.312C63.36 39.664 64.016 39.84 64.704 39.84C65.408 39.84 66.064 39.664 66.672 39.312C67.28 38.96 67.768 38.448 68.136 37.776C68.52 37.088 68.712 36.288 68.712 35.376ZM93.66 25.32L88.14 35.952V42H85.404V35.952L79.86 25.32H82.908L86.772 33.504L90.636 25.32H93.66ZM101.567 42.216C100.319 42.216 99.1913 41.936 98.1833 41.376C97.1753 40.8 96.3833 40 95.8073 38.976C95.2313 37.936 94.9433 36.736 94.9433 35.376C94.9433 34.032 95.2393 32.84 95.8313 31.8C96.4233 30.76 97.2313 29.96 98.2553 29.4C99.2793 28.84 100.423 28.56 101.687 28.56C102.951 28.56 104.095 28.84 105.119 29.4C106.143 29.96 106.951 30.76 107.543 31.8C108.135 32.84 108.431 34.032 108.431 35.376C108.431 36.72 108.127 37.912 107.519 38.952C106.911 39.992 106.079 40.8 105.023 41.376C103.983 41.936 102.831 42.216 101.567 42.216ZM101.567 39.84C102.271 39.84 102.927 39.672 103.535 39.336C104.159 39 104.663 38.496 105.047 37.824C105.431 37.152 105.623 36.336 105.623 35.376C105.623 34.416 105.439 33.608 105.071 32.952C104.703 32.28 104.215 31.776 103.607 31.44C102.999 31.104 102.343 30.936 101.639 30.936C100.935 30.936 100.279 31.104 99.6713 31.44C99.0793 31.776 98.6073 32.28 98.2553 32.952C97.9033 33.608 97.7273 34.416 97.7273 35.376C97.7273 36.8 98.0873 37.904 98.8073 38.688C99.5433 39.456 100.463 39.84 101.567 39.84ZM123.112 28.776V42H120.376V40.44C119.944 40.984 119.376 41.416 118.672 41.736C117.984 42.04 117.248 42.192 116.464 42.192C115.424 42.192 114.488 41.976 113.656 41.544C112.84 41.112 112.192 40.472 111.712 39.624C111.248 38.776 111.016 37.752 111.016 36.552V28.776H113.728V36.144C113.728 37.328 114.024 38.24 114.616 38.88C115.208 39.504 116.016 39.816 117.04 39.816C118.064 39.816 118.872 39.504 119.464 38.88C120.072 38.24 120.376 37.328 120.376 36.144V28.776H123.112ZM129.458 30.696C129.858 30.024 130.386 29.504 131.042 29.136C131.714 28.752 132.506 28.56 133.418 28.56V31.392H132.722C131.65 31.392 130.834 31.664 130.274 32.208C129.73 32.752 129.458 33.696 129.458 35.04V42H126.722V28.776H129.458V30.696ZM144.903 25.32V42H142.167V25.32H144.903ZM164.503 28.56C165.543 28.56 166.471 28.776 167.287 29.208C168.119 29.64 168.767 30.28 169.231 31.128C169.711 31.976 169.951 33 169.951 34.2V42H167.239V34.608C167.239 33.424 166.943 32.52 166.351 31.896C165.759 31.256 164.951 30.936 163.927 30.936C162.903 30.936 162.087 31.256 161.479 31.896C160.887 32.52 160.591 33.424 160.591 34.608V42H157.879V34.608C157.879 33.424 157.583 32.52 156.991 31.896C156.399 31.256 155.591 30.936 154.567 30.936C153.543 30.936 152.727 31.256 152.119 31.896C151.527 32.52 151.231 33.424 151.231 34.608V42H148.495V28.776H151.231V30.288C151.679 29.744 152.247 29.32 152.935 29.016C153.623 28.712 154.359 28.56 155.143 28.56C156.199 28.56 157.143 28.784 157.975 29.232C158.807 29.68 159.447 30.328 159.895 31.176C160.295 30.376 160.919 29.744 161.767 29.28C162.615 28.8 163.527 28.56 164.503 28.56ZM176.169 30.72C176.633 30.112 177.265 29.6 178.065 29.184C178.865 28.768 179.769 28.56 180.777 28.56C181.929 28.56 182.977 28.848 183.921 29.424C184.881 29.984 185.633 30.776 186.177 31.8C186.721 32.824 186.993 34 186.993 35.328C186.993 36.656 186.721 37.848 186.177 38.904C185.633 39.944 184.881 40.76 183.921 41.352C182.977 41.928 181.929 42.216 180.777 42.216C179.769 42.216 178.873 42.016 178.089 41.616C177.305 41.2 176.665 40.688 176.169 40.08V48.288H173.433V28.776H176.169V30.72ZM184.209 35.328C184.209 34.416 184.017 33.632 183.633 32.976C183.265 32.304 182.769 31.8 182.145 31.464C181.537 31.112 180.881 30.936 180.177 30.936C179.489 30.936 178.833 31.112 178.209 31.464C177.601 31.816 177.105 32.328 176.721 33C176.353 33.672 176.169 34.464 176.169 35.376C176.169 36.288 176.353 37.088 176.721 37.776C177.105 38.448 177.601 38.96 178.209 39.312C178.833 39.664 179.489 39.84 180.177 39.84C180.881 39.84 181.537 39.664 182.145 39.312C182.769 38.944 183.265 38.416 183.633 37.728C184.017 37.04 184.209 36.24 184.209 35.328ZM188.786 35.328C188.786 34 189.058 32.824 189.602 31.8C190.162 30.776 190.914 29.984 191.858 29.424C192.818 28.848 193.874 28.56 195.026 28.56C196.066 28.56 196.97 28.768 197.738 29.184C198.522 29.584 199.146 30.088 199.61 30.696V28.776H202.37V42H199.61V40.032C199.146 40.656 198.514 41.176 197.714 41.592C196.914 42.008 196.002 42.216 194.978 42.216C193.842 42.216 192.802 41.928 191.858 41.352C190.914 40.76 190.162 39.944 189.602 38.904C189.058 37.848 188.786 36.656 188.786 35.328ZM199.61 35.376C199.61 34.464 199.418 33.672 199.034 33C198.666 32.328 198.178 31.816 197.57 31.464C196.962 31.112 196.306 30.936 195.602 30.936C194.898 30.936 194.242 31.112 193.634 31.464C193.026 31.8 192.53 32.304 192.146 32.976C191.778 33.632 191.594 34.416 191.594 35.328C191.594 36.24 191.778 37.04 192.146 37.728C192.53 38.416 193.026 38.944 193.634 39.312C194.258 39.664 194.914 39.84 195.602 39.84C196.306 39.84 196.962 39.664 197.57 39.312C198.178 38.96 198.666 38.448 199.034 37.776C199.418 37.088 199.61 36.288 199.61 35.376ZM205.052 35.376C205.052 34.016 205.324 32.824 205.868 31.8C206.428 30.76 207.196 29.96 208.172 29.4C209.148 28.84 210.268 28.56 211.532 28.56C213.132 28.56 214.452 28.944 215.492 29.712C216.548 30.464 217.26 31.544 217.628 32.952H214.676C214.436 32.296 214.052 31.784 213.524 31.416C212.996 31.048 212.332 30.864 211.532 30.864C210.412 30.864 209.516 31.264 208.844 32.064C208.188 32.848 207.86 33.952 207.86 35.376C207.86 36.8 208.188 37.912 208.844 38.712C209.516 39.512 210.412 39.912 211.532 39.912C213.116 39.912 214.164 39.216 214.676 37.824H217.628C217.244 39.168 216.524 40.24 215.468 41.04C214.412 41.824 213.1 42.216 211.532 42.216C210.268 42.216 209.148 41.936 208.172 41.376C207.196 40.8 206.428 40 205.868 38.976C205.324 37.936 205.052 36.736 205.052 35.376ZM223.547 31.008V38.328C223.547 38.824 223.659 39.184 223.883 39.408C224.123 39.616 224.523 39.72 225.083 39.72H226.763V42H224.603C223.371 42 222.427 41.712 221.771 41.136C221.115 40.56 220.787 39.624 220.787 38.328V31.008H219.227V28.776H220.787V25.488H223.547V28.776H226.763V31.008H223.547Z" fill="#FF6B00" fill-opacity="0.75"/>
</g>
</g>
</svg>
