<svg width="223" height="100" viewBox="0 0 223 100" fill="none" xmlns="http://www.w3.org/2000/svg">
<g id="impactLensButton">
<g id="impactLens">
<rect id="impactLensButtonBox" y="2" width="222.913" height="98" rx="22" fill="#46A7FD"/>
<line id="impactLensLine" x1="22.8628" y1="2.84058" x2="50.0125" y2="2.84058" stroke="#FF5C00" stroke-width="4"/>
<path id="imactLensText" d="M43.032 42.272V59H40.848V42.272H43.032ZM62.5703 45.608C63.5943 45.608 64.5063 45.824 65.3063 46.256C66.1063 46.672 66.7383 47.304 67.2023 48.152C67.6663 49 67.8983 50.032 67.8983 51.248V59H65.7383V51.56C65.7383 50.248 65.4103 49.248 64.7543 48.56C64.1143 47.856 63.2423 47.504 62.1383 47.504C61.0023 47.504 60.0983 47.872 59.4263 48.608C58.7543 49.328 58.4183 50.376 58.4183 51.752V59H56.2583V51.56C56.2583 50.248 55.9303 49.248 55.2743 48.56C54.6343 47.856 53.7623 47.504 52.6583 47.504C51.5223 47.504 50.6183 47.872 49.9463 48.608C49.2743 49.328 48.9383 50.376 48.9383 51.752V59H46.7543V45.848H48.9383V47.744C49.3703 47.056 49.9463 46.528 50.6663 46.16C51.4023 45.792 52.2103 45.608 53.0903 45.608C54.1943 45.608 55.1703 45.856 56.0183 46.352C56.8663 46.848 57.4983 47.576 57.9143 48.536C58.2823 47.608 58.8903 46.888 59.7383 46.376C60.5863 45.864 61.5303 45.608 62.5703 45.608ZM73.6648 48.272C74.0968 47.52 74.7368 46.896 75.5848 46.4C76.4488 45.888 77.4488 45.632 78.5848 45.632C79.7528 45.632 80.8088 45.912 81.7528 46.472C82.7128 47.032 83.4648 47.824 84.0088 48.848C84.5528 49.856 84.8248 51.032 84.8248 52.376C84.8248 53.704 84.5528 54.888 84.0088 55.928C83.4648 56.968 82.7128 57.776 81.7528 58.352C80.8088 58.928 79.7528 59.216 78.5848 59.216C77.4648 59.216 76.4728 58.968 75.6088 58.472C74.7608 57.96 74.1128 57.328 73.6648 56.576V65.24H71.4808V45.848H73.6648V48.272ZM82.5928 52.376C82.5928 51.384 82.3928 50.52 81.9928 49.784C81.5928 49.048 81.0488 48.488 80.3608 48.104C79.6888 47.72 78.9448 47.528 78.1288 47.528C77.3288 47.528 76.5848 47.728 75.8968 48.128C75.2248 48.512 74.6808 49.08 74.2648 49.832C73.8648 50.568 73.6648 51.424 73.6648 52.4C73.6648 53.392 73.8648 54.264 74.2648 55.016C74.6808 55.752 75.2248 56.32 75.8968 56.72C76.5848 57.104 77.3288 57.296 78.1288 57.296C78.9448 57.296 79.6888 57.104 80.3608 56.72C81.0488 56.32 81.5928 55.752 81.9928 55.016C82.3928 54.264 82.5928 53.384 82.5928 52.376ZM86.8836 52.376C86.8836 51.032 87.1556 49.856 87.6996 48.848C88.2436 47.824 88.9876 47.032 89.9316 46.472C90.8916 45.912 91.9556 45.632 93.1236 45.632C94.2756 45.632 95.2756 45.88 96.1236 46.376C96.9716 46.872 97.6036 47.496 98.0196 48.248V45.848H100.228V59H98.0196V56.552C97.5876 57.32 96.9396 57.96 96.0756 58.472C95.2276 58.968 94.2356 59.216 93.0996 59.216C91.9316 59.216 90.8756 58.928 89.9316 58.352C88.9876 57.776 88.2436 56.968 87.6996 55.928C87.1556 54.888 86.8836 53.704 86.8836 52.376ZM98.0196 52.4C98.0196 51.408 97.8196 50.544 97.4196 49.808C97.0196 49.072 96.4756 48.512 95.7876 48.128C95.1156 47.728 94.3716 47.528 93.5556 47.528C92.7396 47.528 91.9956 47.72 91.3236 48.104C90.6516 48.488 90.1156 49.048 89.7156 49.784C89.3156 50.52 89.1156 51.384 89.1156 52.376C89.1156 53.384 89.3156 54.264 89.7156 55.016C90.1156 55.752 90.6516 56.32 91.3236 56.72C91.9956 57.104 92.7396 57.296 93.5556 57.296C94.3716 57.296 95.1156 57.104 95.7876 56.72C96.4756 56.32 97.0196 55.752 97.4196 55.016C97.8196 54.264 98.0196 53.392 98.0196 52.4ZM103.102 52.4C103.102 51.04 103.374 49.856 103.918 48.848C104.462 47.824 105.214 47.032 106.174 46.472C107.15 45.912 108.262 45.632 109.51 45.632C111.126 45.632 112.454 46.024 113.494 46.808C114.55 47.592 115.246 48.68 115.582 50.072H113.23C113.006 49.272 112.566 48.64 111.91 48.176C111.27 47.712 110.47 47.48 109.51 47.48C108.262 47.48 107.254 47.912 106.486 48.776C105.718 49.624 105.334 50.832 105.334 52.4C105.334 53.984 105.718 55.208 106.486 56.072C107.254 56.936 108.262 57.368 109.51 57.368C110.47 57.368 111.27 57.144 111.91 56.696C112.55 56.248 112.99 55.608 113.23 54.776H115.582C115.23 56.12 114.526 57.2 113.47 58.016C112.414 58.816 111.094 59.216 109.51 59.216C108.262 59.216 107.15 58.936 106.174 58.376C105.214 57.816 104.462 57.024 103.918 56C103.374 54.976 103.102 53.776 103.102 52.4ZM121.16 47.648V55.4C121.16 56.04 121.296 56.496 121.568 56.768C121.84 57.024 122.312 57.152 122.984 57.152H124.592V59H122.624C121.408 59 120.496 58.72 119.888 58.16C119.28 57.6 118.976 56.68 118.976 55.4V47.648H117.272V45.848H118.976V42.536H121.16V45.848H124.592V47.648H121.16ZM135.821 57.224H141.677V59H133.637V42.272H135.821V57.224ZM155.996 51.92C155.996 52.336 155.972 52.776 155.924 53.24H145.412C145.492 54.536 145.932 55.552 146.732 56.288C147.548 57.008 148.532 57.368 149.684 57.368C150.628 57.368 151.412 57.152 152.036 56.72C152.676 56.272 153.124 55.68 153.38 54.944H155.732C155.38 56.208 154.676 57.24 153.62 58.04C152.564 58.824 151.252 59.216 149.684 59.216C148.436 59.216 147.316 58.936 146.324 58.376C145.348 57.816 144.58 57.024 144.02 56C143.46 54.96 143.18 53.76 143.18 52.4C143.18 51.04 143.452 49.848 143.996 48.824C144.54 47.8 145.3 47.016 146.276 46.472C147.268 45.912 148.404 45.632 149.684 45.632C150.932 45.632 152.036 45.904 152.996 46.448C153.956 46.992 154.692 47.744 155.204 48.704C155.732 49.648 155.996 50.72 155.996 51.92ZM153.74 51.464C153.74 50.632 153.556 49.92 153.188 49.328C152.82 48.72 152.316 48.264 151.676 47.96C151.052 47.64 150.356 47.48 149.588 47.48C148.484 47.48 147.54 47.832 146.756 48.536C145.988 49.24 145.548 50.216 145.436 51.464H153.74ZM165.287 45.608C166.887 45.608 168.183 46.096 169.175 47.072C170.167 48.032 170.663 49.424 170.663 51.248V59H168.503V51.56C168.503 50.248 168.175 49.248 167.519 48.56C166.863 47.856 165.967 47.504 164.831 47.504C163.679 47.504 162.759 47.864 162.071 48.584C161.399 49.304 161.063 50.352 161.063 51.728V59H158.879V45.848H161.063V47.72C161.495 47.048 162.079 46.528 162.815 46.16C163.567 45.792 164.391 45.608 165.287 45.608ZM178.887 59.216C177.879 59.216 176.975 59.048 176.175 58.712C175.375 58.36 174.743 57.88 174.279 57.272C173.815 56.648 173.559 55.936 173.511 55.136H175.767C175.831 55.792 176.135 56.328 176.679 56.744C177.239 57.16 177.967 57.368 178.863 57.368C179.695 57.368 180.351 57.184 180.831 56.816C181.311 56.448 181.551 55.984 181.551 55.424C181.551 54.848 181.295 54.424 180.783 54.152C180.271 53.864 179.479 53.584 178.407 53.312C177.431 53.056 176.631 52.8 176.007 52.544C175.399 52.272 174.871 51.88 174.423 51.368C173.991 50.84 173.775 50.152 173.775 49.304C173.775 48.632 173.975 48.016 174.375 47.456C174.775 46.896 175.343 46.456 176.079 46.136C176.815 45.8 177.655 45.632 178.599 45.632C180.055 45.632 181.231 46 182.127 46.736C183.023 47.472 183.503 48.48 183.567 49.76H181.383C181.335 49.072 181.055 48.52 180.543 48.104C180.047 47.688 179.375 47.48 178.527 47.48C177.743 47.48 177.119 47.648 176.655 47.984C176.191 48.32 175.959 48.76 175.959 49.304C175.959 49.736 176.095 50.096 176.367 50.384C176.655 50.656 177.007 50.88 177.423 51.056C177.855 51.216 178.447 51.4 179.199 51.608C180.143 51.864 180.911 52.12 181.503 52.376C182.095 52.616 182.599 52.984 183.015 53.48C183.447 53.976 183.671 54.624 183.687 55.424C183.687 56.144 183.487 56.792 183.087 57.368C182.687 57.944 182.119 58.4 181.383 58.736C180.663 59.056 179.831 59.216 178.887 59.216Z" fill="black"/>
</g>
</g>
</svg>
