<svg width="252" height="68" viewBox="0 0 252 68" fill="none" xmlns="http://www.w3.org/2000/svg">
<g id="leaderboardButton">
<rect id="Rectangle 5" x="1.5" y="1.5" width="249" height="65" rx="11.5" stroke="#FF6B00" stroke-opacity="0.75" stroke-width="3"/>
<path id="leaderBoardText" d="M36 44.68H60V20.68H36V44.68ZM70.7704 40.792H76.4104V43H68.0344V26.32H70.7704V40.792ZM90.8184 36.064C90.8184 36.56 90.7864 37.008 90.7224 37.408H80.6184C80.6984 38.464 81.0904 39.312 81.7944 39.952C82.4984 40.592 83.3624 40.912 84.3864 40.912C85.8584 40.912 86.8984 40.296 87.5064 39.064H90.4584C90.0584 40.28 89.3304 41.28 88.2744 42.064C87.2344 42.832 85.9384 43.216 84.3864 43.216C83.1224 43.216 81.9864 42.936 80.9784 42.376C79.9864 41.8 79.2024 41 78.6264 39.976C78.0664 38.936 77.7864 37.736 77.7864 36.376C77.7864 35.016 78.0584 33.824 78.6024 32.8C79.1624 31.76 79.9384 30.96 80.9304 30.4C81.9384 29.84 83.0904 29.56 84.3864 29.56C85.6344 29.56 86.7464 29.832 87.7224 30.376C88.6984 30.92 89.4584 31.688 90.0024 32.68C90.5464 33.656 90.8184 34.784 90.8184 36.064ZM87.9624 35.2C87.9464 34.192 87.5864 33.384 86.8824 32.776C86.1784 32.168 85.3064 31.864 84.2664 31.864C83.3224 31.864 82.5144 32.168 81.8424 32.776C81.1704 33.368 80.7704 34.176 80.6424 35.2H87.9624ZM92.5989 36.328C92.5989 35 92.8709 33.824 93.4149 32.8C93.9749 31.776 94.7269 30.984 95.6709 30.424C96.6309 29.848 97.6869 29.56 98.8389 29.56C99.8789 29.56 100.783 29.768 101.551 30.184C102.335 30.584 102.959 31.088 103.423 31.696V29.776H106.183V43H103.423V41.032C102.959 41.656 102.327 42.176 101.527 42.592C100.727 43.008 99.8149 43.216 98.7909 43.216C97.6549 43.216 96.6149 42.928 95.6709 42.352C94.7269 41.76 93.9749 40.944 93.4149 39.904C92.8709 38.848 92.5989 37.656 92.5989 36.328ZM103.423 36.376C103.423 35.464 103.231 34.672 102.847 34C102.479 33.328 101.991 32.816 101.383 32.464C100.775 32.112 100.119 31.936 99.4149 31.936C98.7109 31.936 98.0549 32.112 97.4469 32.464C96.8389 32.8 96.3429 33.304 95.9589 33.976C95.5909 34.632 95.4069 35.416 95.4069 36.328C95.4069 37.24 95.5909 38.04 95.9589 38.728C96.3429 39.416 96.8389 39.944 97.4469 40.312C98.0709 40.664 98.7269 40.84 99.4149 40.84C100.119 40.84 100.775 40.664 101.383 40.312C101.991 39.96 102.479 39.448 102.847 38.776C103.231 38.088 103.423 37.288 103.423 36.376ZM108.865 36.328C108.865 35 109.137 33.824 109.681 32.8C110.241 31.776 110.993 30.984 111.937 30.424C112.897 29.848 113.961 29.56 115.129 29.56C115.993 29.56 116.841 29.752 117.673 30.136C118.521 30.504 119.193 31 119.689 31.624V25.24H122.449V43H119.689V41.008C119.241 41.648 118.617 42.176 117.817 42.592C117.033 43.008 116.129 43.216 115.105 43.216C113.953 43.216 112.897 42.928 111.937 42.352C110.993 41.76 110.241 40.944 109.681 39.904C109.137 38.848 108.865 37.656 108.865 36.328ZM119.689 36.376C119.689 35.464 119.497 34.672 119.113 34C118.745 33.328 118.257 32.816 117.649 32.464C117.041 32.112 116.385 31.936 115.681 31.936C114.977 31.936 114.321 32.112 113.713 32.464C113.105 32.8 112.609 33.304 112.225 33.976C111.857 34.632 111.673 35.416 111.673 36.328C111.673 37.24 111.857 38.04 112.225 38.728C112.609 39.416 113.105 39.944 113.713 40.312C114.337 40.664 114.993 40.84 115.681 40.84C116.385 40.84 117.041 40.664 117.649 40.312C118.257 39.96 118.745 39.448 119.113 38.776C119.497 38.088 119.689 37.288 119.689 36.376ZM138.162 36.064C138.162 36.56 138.13 37.008 138.066 37.408H127.962C128.042 38.464 128.434 39.312 129.138 39.952C129.842 40.592 130.706 40.912 131.73 40.912C133.202 40.912 134.242 40.296 134.85 39.064H137.802C137.402 40.28 136.674 41.28 135.618 42.064C134.578 42.832 133.282 43.216 131.73 43.216C130.466 43.216 129.33 42.936 128.322 42.376C127.33 41.8 126.546 41 125.97 39.976C125.41 38.936 125.13 37.736 125.13 36.376C125.13 35.016 125.402 33.824 125.946 32.8C126.506 31.76 127.282 30.96 128.274 30.4C129.282 29.84 130.434 29.56 131.73 29.56C132.978 29.56 134.09 29.832 135.066 30.376C136.042 30.92 136.802 31.688 137.346 32.68C137.89 33.656 138.162 34.784 138.162 36.064ZM135.306 35.2C135.29 34.192 134.93 33.384 134.226 32.776C133.522 32.168 132.65 31.864 131.61 31.864C130.666 31.864 129.858 32.168 129.186 32.776C128.514 33.368 128.114 34.176 127.986 35.2H135.306ZM143.591 31.696C143.991 31.024 144.519 30.504 145.175 30.136C145.847 29.752 146.639 29.56 147.551 29.56V32.392H146.855C145.783 32.392 144.967 32.664 144.407 33.208C143.863 33.752 143.591 34.696 143.591 36.04V43H140.855V29.776H143.591V31.696ZM165.228 34.432C166.124 34.592 166.884 35.064 167.508 35.848C168.132 36.632 168.444 37.52 168.444 38.512C168.444 39.36 168.22 40.128 167.772 40.816C167.34 41.488 166.708 42.024 165.876 42.424C165.044 42.808 164.076 43 162.972 43H156.3V26.32H162.66C163.796 26.32 164.772 26.512 165.588 26.896C166.404 27.28 167.02 27.8 167.436 28.456C167.852 29.096 168.06 29.816 168.06 30.616C168.06 31.576 167.804 32.376 167.292 33.016C166.78 33.656 166.092 34.128 165.228 34.432ZM159.036 33.328H162.42C163.316 33.328 164.012 33.128 164.508 32.728C165.02 32.312 165.276 31.72 165.276 30.952C165.276 30.2 165.02 29.616 164.508 29.2C164.012 28.768 163.316 28.552 162.42 28.552H159.036V33.328ZM162.732 40.768C163.66 40.768 164.388 40.544 164.916 40.096C165.444 39.648 165.708 39.024 165.708 38.224C165.708 37.408 165.428 36.76 164.868 36.28C164.308 35.8 163.564 35.56 162.636 35.56H159.036V40.768H162.732ZM177.153 43.216C175.905 43.216 174.777 42.936 173.769 42.376C172.761 41.8 171.969 41 171.393 39.976C170.817 38.936 170.529 37.736 170.529 36.376C170.529 35.032 170.825 33.84 171.417 32.8C172.009 31.76 172.817 30.96 173.841 30.4C174.865 29.84 176.009 29.56 177.273 29.56C178.537 29.56 179.681 29.84 180.705 30.4C181.729 30.96 182.537 31.76 183.129 32.8C183.721 33.84 184.017 35.032 184.017 36.376C184.017 37.72 183.713 38.912 183.105 39.952C182.497 40.992 181.665 41.8 180.609 42.376C179.569 42.936 178.417 43.216 177.153 43.216ZM177.153 40.84C177.857 40.84 178.513 40.672 179.121 40.336C179.745 40 180.249 39.496 180.633 38.824C181.017 38.152 181.209 37.336 181.209 36.376C181.209 35.416 181.025 34.608 180.657 33.952C180.289 33.28 179.801 32.776 179.193 32.44C178.585 32.104 177.929 31.936 177.225 31.936C176.521 31.936 175.865 32.104 175.257 32.44C174.665 32.776 174.193 33.28 173.841 33.952C173.489 34.608 173.313 35.416 173.313 36.376C173.313 37.8 173.673 38.904 174.393 39.688C175.129 40.456 176.049 40.84 177.153 40.84ZM185.81 36.328C185.81 35 186.082 33.824 186.626 32.8C187.186 31.776 187.938 30.984 188.882 30.424C189.842 29.848 190.898 29.56 192.05 29.56C193.09 29.56 193.994 29.768 194.762 30.184C195.546 30.584 196.17 31.088 196.634 31.696V29.776H199.394V43H196.634V41.032C196.17 41.656 195.538 42.176 194.738 42.592C193.938 43.008 193.026 43.216 192.002 43.216C190.866 43.216 189.826 42.928 188.882 42.352C187.938 41.76 187.186 40.944 186.626 39.904C186.082 38.848 185.81 37.656 185.81 36.328ZM196.634 36.376C196.634 35.464 196.442 34.672 196.058 34C195.69 33.328 195.202 32.816 194.594 32.464C193.986 32.112 193.33 31.936 192.626 31.936C191.922 31.936 191.266 32.112 190.658 32.464C190.05 32.8 189.554 33.304 189.17 33.976C188.802 34.632 188.618 35.416 188.618 36.328C188.618 37.24 188.802 38.04 189.17 38.728C189.554 39.416 190.05 39.944 190.658 40.312C191.282 40.664 191.938 40.84 192.626 40.84C193.33 40.84 193.986 40.664 194.594 40.312C195.202 39.96 195.69 39.448 196.058 38.776C196.442 38.088 196.634 37.288 196.634 36.376ZM205.724 31.696C206.124 31.024 206.652 30.504 207.308 30.136C207.98 29.752 208.772 29.56 209.684 29.56V32.392H208.988C207.916 32.392 207.1 32.664 206.54 33.208C205.996 33.752 205.724 34.696 205.724 36.04V43H202.988V29.776H205.724V31.696ZM211.286 36.328C211.286 35 211.558 33.824 212.102 32.8C212.662 31.776 213.414 30.984 214.358 30.424C215.318 29.848 216.382 29.56 217.55 29.56C218.414 29.56 219.262 29.752 220.094 30.136C220.942 30.504 221.614 31 222.11 31.624V25.24H224.87V43H222.11V41.008C221.662 41.648 221.038 42.176 220.238 42.592C219.454 43.008 218.55 43.216 217.526 43.216C216.374 43.216 215.318 42.928 214.358 42.352C213.414 41.76 212.662 40.944 212.102 39.904C211.558 38.848 211.286 37.656 211.286 36.328ZM222.11 36.376C222.11 35.464 221.918 34.672 221.534 34C221.166 33.328 220.678 32.816 220.07 32.464C219.462 32.112 218.806 31.936 218.102 31.936C217.398 31.936 216.742 32.112 216.134 32.464C215.526 32.8 215.03 33.304 214.646 33.976C214.278 34.632 214.094 35.416 214.094 36.328C214.094 37.24 214.278 38.04 214.646 38.728C215.03 39.416 215.526 39.944 216.134 40.312C216.758 40.664 217.414 40.84 218.102 40.84C218.806 40.84 219.462 40.664 220.07 40.312C220.678 39.96 221.166 39.448 221.534 38.776C221.918 38.088 222.11 37.288 222.11 36.376Z" fill="#FF6B00" fill-opacity="0.75"/>
</g>
</svg>
