<svg width="223" height="100" viewBox="0 0 223 100" fill="none" xmlns="http://www.w3.org/2000/svg">
<g id="loopMarketButton">
<g id="loopMarket">
<rect id="loopMarketButtonBox" y="2" width="222.913" height="98" rx="22" fill="#FFAE00"/>
<line id="loopMarketLine" x1="22.8628" y1="2.84058" x2="50.0125" y2="2.84058" stroke="#FF5C00" stroke-width="4"/>
<path id="loopMarketText" d="M40.032 58.224H45.888V60H37.848V43.272H40.032V58.224ZM53.9434 60.216C52.7114 60.216 51.5914 59.936 50.5834 59.376C49.5914 58.816 48.8074 58.024 48.2314 57C47.6714 55.96 47.3914 54.76 47.3914 53.4C47.3914 52.056 47.6794 50.872 48.2554 49.848C48.8474 48.808 49.6474 48.016 50.6554 47.472C51.6634 46.912 52.7914 46.632 54.0394 46.632C55.2874 46.632 56.4154 46.912 57.4234 47.472C58.4314 48.016 59.2234 48.8 59.7994 49.824C60.3914 50.848 60.6874 52.04 60.6874 53.4C60.6874 54.76 60.3834 55.96 59.7754 57C59.1834 58.024 58.3754 58.816 57.3514 59.376C56.3274 59.936 55.1914 60.216 53.9434 60.216ZM53.9434 58.296C54.7274 58.296 55.4634 58.112 56.1514 57.744C56.8394 57.376 57.3914 56.824 57.8074 56.088C58.2394 55.352 58.4554 54.456 58.4554 53.4C58.4554 52.344 58.2474 51.448 57.8314 50.712C57.4154 49.976 56.8714 49.432 56.1994 49.08C55.5274 48.712 54.7994 48.528 54.0154 48.528C53.2154 48.528 52.4794 48.712 51.8074 49.08C51.1514 49.432 50.6234 49.976 50.2234 50.712C49.8234 51.448 49.6234 52.344 49.6234 53.4C49.6234 54.472 49.8154 55.376 50.1994 56.112C50.5994 56.848 51.1274 57.4 51.7834 57.768C52.4394 58.12 53.1594 58.296 53.9434 58.296ZM69.2949 60.216C68.0629 60.216 66.9429 59.936 65.9349 59.376C64.9429 58.816 64.1589 58.024 63.5829 57C63.0229 55.96 62.7429 54.76 62.7429 53.4C62.7429 52.056 63.0309 50.872 63.6069 49.848C64.1989 48.808 64.9989 48.016 66.0069 47.472C67.0149 46.912 68.1429 46.632 69.3909 46.632C70.6389 46.632 71.7669 46.912 72.7749 47.472C73.7829 48.016 74.5749 48.8 75.1509 49.824C75.7429 50.848 76.0389 52.04 76.0389 53.4C76.0389 54.76 75.7349 55.96 75.1269 57C74.5349 58.024 73.7269 58.816 72.7029 59.376C71.6789 59.936 70.5429 60.216 69.2949 60.216ZM69.2949 58.296C70.0789 58.296 70.8149 58.112 71.5029 57.744C72.1909 57.376 72.7429 56.824 73.1589 56.088C73.5909 55.352 73.8069 54.456 73.8069 53.4C73.8069 52.344 73.5989 51.448 73.1829 50.712C72.7669 49.976 72.2229 49.432 71.5509 49.08C70.8789 48.712 70.1509 48.528 69.3669 48.528C68.5669 48.528 67.8309 48.712 67.1589 49.08C66.5029 49.432 65.9749 49.976 65.5749 50.712C65.1749 51.448 64.9749 52.344 64.9749 53.4C64.9749 54.472 65.1669 55.376 65.5509 56.112C65.9509 56.848 66.4789 57.4 67.1349 57.768C67.7909 58.12 68.5109 58.296 69.2949 58.296ZM81.0945 49.272C81.5265 48.52 82.1665 47.896 83.0145 47.4C83.8785 46.888 84.8785 46.632 86.0145 46.632C87.1825 46.632 88.2385 46.912 89.1825 47.472C90.1425 48.032 90.8945 48.824 91.4385 49.848C91.9825 50.856 92.2545 52.032 92.2545 53.376C92.2545 54.704 91.9825 55.888 91.4385 56.928C90.8945 57.968 90.1425 58.776 89.1825 59.352C88.2385 59.928 87.1825 60.216 86.0145 60.216C84.8945 60.216 83.9025 59.968 83.0385 59.472C82.1905 58.96 81.5425 58.328 81.0945 57.576V66.24H78.9105V46.848H81.0945V49.272ZM90.0225 53.376C90.0225 52.384 89.8225 51.52 89.4225 50.784C89.0225 50.048 88.4785 49.488 87.7905 49.104C87.1185 48.72 86.3745 48.528 85.5585 48.528C84.7585 48.528 84.0145 48.728 83.3265 49.128C82.6545 49.512 82.1105 50.08 81.6945 50.832C81.2945 51.568 81.0945 52.424 81.0945 53.4C81.0945 54.392 81.2945 55.264 81.6945 56.016C82.1105 56.752 82.6545 57.32 83.3265 57.72C84.0145 58.104 84.7585 58.296 85.5585 58.296C86.3745 58.296 87.1185 58.104 87.7905 57.72C88.4785 57.32 89.0225 56.752 89.4225 56.016C89.8225 55.264 90.0225 54.384 90.0225 53.376ZM118.496 43.392V60H116.312V47.616L110.792 60H109.256L103.712 47.592V60H101.528V43.392H103.88L110.024 57.12L116.168 43.392H118.496ZM121.384 53.376C121.384 52.032 121.656 50.856 122.2 49.848C122.744 48.824 123.488 48.032 124.432 47.472C125.392 46.912 126.456 46.632 127.624 46.632C128.776 46.632 129.776 46.88 130.624 47.376C131.472 47.872 132.104 48.496 132.52 49.248V46.848H134.728V60H132.52V57.552C132.088 58.32 131.44 58.96 130.576 59.472C129.728 59.968 128.736 60.216 127.6 60.216C126.432 60.216 125.376 59.928 124.432 59.352C123.488 58.776 122.744 57.968 122.2 56.928C121.656 55.888 121.384 54.704 121.384 53.376ZM132.52 53.4C132.52 52.408 132.32 51.544 131.92 50.808C131.52 50.072 130.976 49.512 130.288 49.128C129.616 48.728 128.872 48.528 128.056 48.528C127.24 48.528 126.496 48.72 125.824 49.104C125.152 49.488 124.616 50.048 124.216 50.784C123.816 51.52 123.616 52.384 123.616 53.376C123.616 54.384 123.816 55.264 124.216 56.016C124.616 56.752 125.152 57.32 125.824 57.72C126.496 58.104 127.24 58.296 128.056 58.296C128.872 58.296 129.616 58.104 130.288 57.72C130.976 57.32 131.52 56.752 131.92 56.016C132.32 55.264 132.52 54.392 132.52 53.4ZM140.602 48.984C140.986 48.232 141.53 47.648 142.234 47.232C142.954 46.816 143.826 46.608 144.85 46.608V48.864H144.274C141.826 48.864 140.602 50.192 140.602 52.848V60H138.418V46.848H140.602V48.984ZM154.715 60L149.555 54.192V60H147.371V42.24H149.555V52.68L154.619 46.848H157.667L151.475 53.4L157.691 60H154.715ZM171.723 52.92C171.723 53.336 171.699 53.776 171.651 54.24H161.139C161.219 55.536 161.659 56.552 162.459 57.288C163.275 58.008 164.259 58.368 165.411 58.368C166.355 58.368 167.139 58.152 167.763 57.72C168.403 57.272 168.851 56.68 169.107 55.944H171.459C171.107 57.208 170.403 58.24 169.347 59.04C168.291 59.824 166.979 60.216 165.411 60.216C164.163 60.216 163.043 59.936 162.051 59.376C161.075 58.816 160.307 58.024 159.747 57C159.187 55.96 158.907 54.76 158.907 53.4C158.907 52.04 159.179 50.848 159.723 49.824C160.267 48.8 161.027 48.016 162.003 47.472C162.995 46.912 164.131 46.632 165.411 46.632C166.659 46.632 167.763 46.904 168.723 47.448C169.683 47.992 170.419 48.744 170.931 49.704C171.459 50.648 171.723 51.72 171.723 52.92ZM169.467 52.464C169.467 51.632 169.283 50.92 168.915 50.328C168.547 49.72 168.043 49.264 167.403 48.96C166.779 48.64 166.083 48.48 165.315 48.48C164.211 48.48 163.267 48.832 162.483 49.536C161.715 50.24 161.275 51.216 161.163 52.464H169.467ZM177.27 48.648V56.4C177.27 57.04 177.406 57.496 177.678 57.768C177.95 58.024 178.422 58.152 179.094 58.152H180.702V60H178.734C177.518 60 176.606 59.72 175.998 59.16C175.39 58.6 175.086 57.68 175.086 56.4V48.648H173.382V46.848H175.086V43.536H177.27V46.848H180.702V48.648H177.27Z" fill="black"/>
</g>
</g>
</svg>
