<svg width="213" height="213" viewBox="0 0 213 213" fill="none" xmlns="http://www.w3.org/2000/svg">
<g id="speedyAndWetTask">
<g id="Group 2">
<path id="Vector 2" d="M43.3118 162.686L27.2868 53.1827H185.442L169.418 162.686C167.276 177.32 154.724 188.169 139.934 188.169H72.7957C58.0054 188.169 45.4534 177.32 43.3118 162.686Z" fill="#F9FCF8" stroke="#348E2B" stroke-width="8.86373" stroke-linecap="round"/>
<g id="Group 4">
<path id="Intersect" d="M108.551 155.115L105.312 155.154L104.291 152.08C99.9838 139.109 101.476 124.2 109.615 112.049C117.767 99.8782 130.753 93.2292 144.067 93.0697L147.305 93.0309L148.326 96.1044C152.633 109.075 151.141 123.985 143.002 136.136C134.85 148.307 121.864 154.956 108.551 155.115Z" fill="#70D767" stroke="#348E2B" stroke-width="8.86373"/>
<path id="Intersect_2" d="M96.3346 133.888C101.981 142.318 103.531 152.513 101.379 161.842C92.5149 160.773 84.0626 155.886 78.4656 147.53C72.8193 139.1 71.2694 128.905 73.421 119.577C82.2853 120.645 90.7376 125.532 96.3346 133.888Z" fill="#70D767" stroke="#348E2B" stroke-width="8.86373"/>
<path id="Vector 3" d="M108.833 172.843C108.833 172.843 103.279 165.858 108.833 154.588C114.387 143.318 118.87 133.37 128.524 128.524" stroke="#348E2B" stroke-width="8.86373" stroke-linecap="round"/>
</g>
<ellipse id="Ellipse 5" cx="106.365" cy="48.7506" rx="31.0231" ry="84.2055" transform="rotate(90 106.365 48.7506)" fill="#F9FCF8"/>
<path id="Intersect_3" fill-rule="evenodd" clip-rule="evenodd" d="M27.688 59.8305C39.7947 71.4923 70.4545 79.7738 106.364 79.7738C142.274 79.7738 172.934 71.4923 185.041 59.8305C172.934 48.1687 142.274 39.8872 106.364 39.8872C70.4545 39.8872 39.7947 48.1687 27.688 59.8305Z" fill="#70D767"/>
<path id="Ellipse 3" d="M106.365 76.4498C83.5029 76.4498 63.0027 72.9672 48.3787 67.4832C41.0504 64.7351 35.4277 61.5697 31.7168 58.2796C28.0007 54.9849 26.5912 51.9419 26.5912 49.3046C26.5912 46.6673 28.0007 43.6242 31.7168 40.3296C35.4277 37.0394 41.0504 33.8741 48.3787 31.1259C63.0027 25.6419 83.5029 22.1594 106.365 22.1594C129.227 22.1594 149.727 25.6419 164.351 31.1259C171.679 33.8741 177.302 37.0395 181.013 40.3296C184.729 43.6242 186.138 46.6673 186.138 49.3046C186.138 51.9419 184.729 54.9849 181.013 58.2796C177.302 61.5697 171.679 64.7351 164.351 67.4833C149.727 72.9672 129.227 76.4498 106.365 76.4498Z" stroke="#348E2B" stroke-width="8.86373"/>
</g>
</g>
</svg>
