<svg width="125" height="33" viewBox="0 0 125 33" fill="none" xmlns="http://www.w3.org/2000/svg">
<g id="createButton">
<rect x="0.5" y="0.5" width="124" height="32" rx="3.5" fill="#70D767"/>
<rect x="0.5" y="0.5" width="124" height="32" rx="3.5" stroke="#22B9CA"/>
<path id="createButtonText" d="M21.906 23.154C20.73 23.154 19.8947 22.8273 19.4 22.174C18.9147 21.5113 18.672 20.578 18.672 19.374V15.328C18.672 14.0867 18.9147 13.144 19.4 12.5C19.8853 11.856 20.7207 11.534 21.906 11.534C23.0167 11.534 23.8053 11.814 24.272 12.374C24.7387 12.934 24.972 13.7413 24.972 14.796V15.748H22.984V14.768C22.984 14.3667 22.9653 14.054 22.928 13.83C22.8907 13.5967 22.7927 13.41 22.634 13.27C22.4847 13.1207 22.2467 13.046 21.92 13.046C21.584 13.046 21.332 13.1253 21.164 13.284C20.996 13.4333 20.884 13.6387 20.828 13.9C20.7813 14.152 20.758 14.4833 20.758 14.894V19.808C20.758 20.452 20.842 20.9187 21.01 21.208C21.178 21.488 21.4813 21.628 21.92 21.628C22.2373 21.628 22.4707 21.5533 22.62 21.404C22.7787 21.2547 22.8767 21.0587 22.914 20.816C22.9607 20.564 22.984 20.2327 22.984 19.822V18.8H24.972V19.71C24.972 20.802 24.7433 21.6513 24.286 22.258C23.8287 22.8553 23.0353 23.154 21.906 23.154ZM26.3305 14.908H28.2345V16.154C28.5052 15.678 28.7805 15.3373 29.0605 15.132C29.3405 14.9173 29.6532 14.81 29.9985 14.81C30.1199 14.81 30.2179 14.8193 30.2925 14.838V16.812C29.9939 16.7 29.7325 16.644 29.5085 16.644C29.0045 16.644 28.5799 16.9053 28.2345 17.428V23H26.3305V14.908ZM33.6741 23.126C32.7781 23.126 32.1201 22.8787 31.7001 22.384C31.2801 21.88 31.0701 21.138 31.0701 20.158V17.75C31.0701 16.7607 31.2801 16.0187 31.7001 15.524C32.1294 15.0293 32.7874 14.782 33.6741 14.782C34.5888 14.782 35.2328 15.0387 35.6061 15.552C35.9888 16.0653 36.1801 16.84 36.1801 17.876V19.038H32.9601V20.634C32.9601 21.026 33.0161 21.3107 33.1281 21.488C33.2494 21.6653 33.4361 21.754 33.6881 21.754C33.9308 21.754 34.1034 21.67 34.2061 21.502C34.3181 21.3247 34.3741 21.0587 34.3741 20.704V20.018H36.1661V20.578C36.1661 21.4087 35.9561 22.0433 35.5361 22.482C35.1161 22.9113 34.4954 23.126 33.6741 23.126ZM34.3741 18.1V17.33C34.3741 16.91 34.3228 16.6113 34.2201 16.434C34.1174 16.2473 33.9354 16.154 33.6741 16.154C33.4034 16.154 33.2168 16.252 33.1141 16.448C33.0114 16.644 32.9601 17.008 32.9601 17.54V18.1H34.3741ZM39.0401 23.126C38.6948 23.126 38.3868 23.0327 38.1161 22.846C37.8548 22.6593 37.6495 22.4213 37.5001 22.132C37.3601 21.8333 37.2901 21.5253 37.2901 21.208C37.2901 20.5827 37.4348 20.0693 37.7241 19.668C38.0228 19.2573 38.3868 18.94 38.8161 18.716C39.2548 18.492 39.8335 18.2447 40.5521 17.974V17.274C40.5521 16.9007 40.5055 16.63 40.4121 16.462C40.3281 16.2847 40.1601 16.196 39.9081 16.196C39.4788 16.196 39.2548 16.4947 39.2361 17.092L39.2081 17.582L37.4021 17.512C37.4301 16.5787 37.6588 15.8927 38.0881 15.454C38.5268 15.006 39.1848 14.782 40.0621 14.782C40.8555 14.782 41.4435 15.0013 41.8261 15.44C42.2088 15.8693 42.4001 16.4807 42.4001 17.274V21.012C42.4001 21.5907 42.4468 22.2533 42.5401 23H40.8321C40.7388 22.496 40.6735 22.1087 40.6361 21.838C40.5241 22.202 40.3328 22.51 40.0621 22.762C39.8008 23.0047 39.4601 23.126 39.0401 23.126ZM39.7401 21.712C39.8988 21.712 40.0481 21.656 40.1881 21.544C40.3375 21.432 40.4588 21.3107 40.5521 21.18V18.912C40.0575 19.2013 39.6888 19.4813 39.4461 19.752C39.2035 20.0133 39.0821 20.3447 39.0821 20.746C39.0821 21.0447 39.1381 21.2827 39.2501 21.46C39.3715 21.628 39.5348 21.712 39.7401 21.712ZM46.0719 23.098C45.3345 23.098 44.8119 22.9207 44.5039 22.566C44.2052 22.2113 44.0559 21.684 44.0559 20.984V16.154H43.2439V14.908H44.0559V12.486H45.9739V14.908H47.1919V16.154H45.9739V20.816C45.9739 21.0867 46.0299 21.2827 46.1419 21.404C46.2632 21.5253 46.4499 21.586 46.7019 21.586C46.9352 21.586 47.1312 21.5673 47.2899 21.53V23C46.9165 23.0653 46.5105 23.098 46.0719 23.098ZM50.8323 23.126C49.9363 23.126 49.2783 22.8787 48.8583 22.384C48.4383 21.88 48.2283 21.138 48.2283 20.158V17.75C48.2283 16.7607 48.4383 16.0187 48.8583 15.524C49.2876 15.0293 49.9456 14.782 50.8323 14.782C51.747 14.782 52.391 15.0387 52.7643 15.552C53.147 16.0653 53.3383 16.84 53.3383 17.876V19.038H50.1183V20.634C50.1183 21.026 50.1743 21.3107 50.2863 21.488C50.4076 21.6653 50.5943 21.754 50.8463 21.754C51.089 21.754 51.2616 21.67 51.3643 21.502C51.4763 21.3247 51.5323 21.0587 51.5323 20.704V20.018H53.3243V20.578C53.3243 21.4087 53.1143 22.0433 52.6943 22.482C52.2743 22.9113 51.6536 23.126 50.8323 23.126ZM51.5323 18.1V17.33C51.5323 16.91 51.481 16.6113 51.3783 16.434C51.2756 16.2473 51.0936 16.154 50.8323 16.154C50.5616 16.154 50.375 16.252 50.2723 16.448C50.1696 16.644 50.1183 17.008 50.1183 17.54V18.1H51.5323ZM58.0346 14.908H59.9386V15.706C60.5826 15.09 61.236 14.782 61.8986 14.782C62.356 14.782 62.6966 14.95 62.9206 15.286C63.154 15.622 63.2706 16.0467 63.2706 16.56V23H61.3666V16.938C61.3666 16.6767 61.3246 16.4853 61.2406 16.364C61.166 16.2427 61.026 16.182 60.8206 16.182C60.5966 16.182 60.3026 16.3127 59.9386 16.574V23H58.0346V14.908ZM67.1155 23.126C66.2195 23.126 65.5615 22.8787 65.1415 22.384C64.7215 21.88 64.5115 21.138 64.5115 20.158V17.75C64.5115 16.7607 64.7215 16.0187 65.1415 15.524C65.5708 15.0293 66.2288 14.782 67.1155 14.782C68.0302 14.782 68.6742 15.0387 69.0475 15.552C69.4302 16.0653 69.6215 16.84 69.6215 17.876V19.038H66.4015V20.634C66.4015 21.026 66.4575 21.3107 66.5695 21.488C66.6908 21.6653 66.8775 21.754 67.1295 21.754C67.3722 21.754 67.5448 21.67 67.6475 21.502C67.7595 21.3247 67.8155 21.0587 67.8155 20.704V20.018H69.6075V20.578C69.6075 21.4087 69.3975 22.0433 68.9775 22.482C68.5575 22.9113 67.9368 23.126 67.1155 23.126ZM67.8155 18.1V17.33C67.8155 16.91 67.7642 16.6113 67.6615 16.434C67.5588 16.2473 67.3768 16.154 67.1155 16.154C66.8448 16.154 66.6582 16.252 66.5555 16.448C66.4528 16.644 66.4015 17.008 66.4015 17.54V18.1H67.8155ZM70.5215 14.908H72.1035L72.8175 20.172L73.6715 14.908H75.0715L75.8695 20.2L76.6255 14.908H78.1375L76.8635 23H75.2535L74.3575 17.89L73.4195 23H71.7675L70.5215 14.908ZM82.6727 12.038H84.5767V13.62H82.6727V12.038ZM82.6727 14.908H84.5767V23H82.6727V14.908ZM88.4273 23.098C87.69 23.098 87.1673 22.9207 86.8593 22.566C86.5607 22.2113 86.4113 21.684 86.4113 20.984V16.154H85.5993V14.908H86.4113V12.486H88.3293V14.908H89.5473V16.154H88.3293V20.816C88.3293 21.0867 88.3853 21.2827 88.4973 21.404C88.6187 21.5253 88.8053 21.586 89.0573 21.586C89.2907 21.586 89.4867 21.5673 89.6453 21.53V23C89.272 23.0653 88.866 23.098 88.4273 23.098ZM93.1878 23.126C92.2918 23.126 91.6338 22.8787 91.2138 22.384C90.7938 21.88 90.5838 21.138 90.5838 20.158V17.75C90.5838 16.7607 90.7938 16.0187 91.2138 15.524C91.6431 15.0293 92.3011 14.782 93.1878 14.782C94.1024 14.782 94.7464 15.0387 95.1198 15.552C95.5024 16.0653 95.6938 16.84 95.6938 17.876V19.038H92.4738V20.634C92.4738 21.026 92.5298 21.3107 92.6418 21.488C92.7631 21.6653 92.9498 21.754 93.2018 21.754C93.4444 21.754 93.6171 21.67 93.7198 21.502C93.8318 21.3247 93.8878 21.0587 93.8878 20.704V20.018H95.6798V20.578C95.6798 21.4087 95.4698 22.0433 95.0498 22.482C94.6298 22.9113 94.0091 23.126 93.1878 23.126ZM93.8878 18.1V17.33C93.8878 16.91 93.8364 16.6113 93.7338 16.434C93.6311 16.2473 93.4491 16.154 93.1878 16.154C92.9171 16.154 92.7304 16.252 92.6278 16.448C92.5251 16.644 92.4738 17.008 92.4738 17.54V18.1H93.8878ZM96.9858 14.908H98.8198V15.622C99.3611 15.0527 99.9958 14.768 100.724 14.768C101.05 14.768 101.33 14.852 101.564 15.02C101.797 15.1787 101.97 15.4213 102.082 15.748C102.642 15.0947 103.323 14.768 104.126 14.768C104.574 14.768 104.933 14.9313 105.204 15.258C105.484 15.5847 105.624 16.056 105.624 16.672V23H103.804V16.854C103.804 16.5553 103.752 16.3453 103.65 16.224C103.556 16.1027 103.412 16.042 103.216 16.042C103.066 16.042 102.898 16.084 102.712 16.168C102.534 16.252 102.371 16.3687 102.222 16.518V16.672V23H100.416V16.854C100.416 16.5553 100.364 16.3453 100.262 16.224C100.159 16.1027 100.01 16.042 99.8138 16.042C99.6645 16.042 99.5011 16.084 99.3238 16.168C99.1465 16.252 98.9785 16.3687 98.8198 16.518V23H96.9858V14.908Z" fill="white"/>
</g>
</svg>
