<svg width="207" height="193" viewBox="0 0 207 193" fill="none" xmlns="http://www.w3.org/2000/svg">
<g id="Frame 5">
<g id="Group 6">
<path id="Rectangle 7" d="M79.6154 151.506L79.6206 151.493L79.6255 151.48C80.4296 149.395 82.0061 148.249 83.4697 147.991C84.8505 147.749 86.3655 148.241 87.4361 150.008C89.6356 153.639 94.6241 154.476 97.9789 151.945L106.796 145.291L106.893 145.218L106.982 145.135L108.623 143.586L107.103 141.974L108.623 143.586C116.324 136.324 128.968 139.666 132.068 149.414L132.092 149.488L132.12 149.56L134.081 154.5C134.645 155.921 135.287 157.353 135.909 158.741C136.032 159.015 136.154 159.288 136.275 159.559C137.018 161.223 137.714 162.83 138.271 164.423C139.389 167.617 139.865 170.526 139.122 173.33C139.063 173.551 138.979 173.765 138.871 173.963L140.821 175.017L138.871 173.964C138.239 175.134 137.945 175.64 137.608 176.081C137.273 176.52 136.851 176.951 135.868 177.878C133.205 180.39 130.05 181.706 126.308 181.706H86.4217C85.4411 181.706 84.704 181.681 84.0966 181.62L83.8758 183.825L84.0966 181.62C81.4385 181.354 78.6416 180.018 76.5152 178.016C74.387 176.013 73.1261 173.539 73.1261 171.097V170.529C73.1261 168.018 74.0826 165.442 75.1887 162.573L79.6154 151.506Z" fill="#70D767" stroke="#F9FCF8" stroke-width="4.43187"/>
<path id="Vector" d="M68.2862 162.385L68.3591 162.236L68.4207 162.083L76.9361 140.919C80.2518 132.679 80.745 123.666 78.3381 115.142L72.5792 94.7456C69.5998 84.1935 72.3773 72.9023 80.143 64.5511L99.001 44.2713C99.1174 44.3024 99.2607 44.3439 99.435 44.3994C99.729 44.4929 100.025 44.5963 100.394 44.7254C100.475 44.7538 100.56 44.7833 100.649 44.8143C101.109 44.9748 101.661 45.1641 102.245 45.3347C103.346 45.6558 104.77 45.9758 106.365 45.9248C107.961 45.9758 109.384 45.6559 110.485 45.3348C111.069 45.1643 111.621 44.9751 112.081 44.8146C112.17 44.7837 112.255 44.7541 112.336 44.7258C112.705 44.5967 113.001 44.4933 113.295 44.3998C113.469 44.3443 113.613 44.3028 113.729 44.2718L132.587 64.5517C140.353 72.9029 143.13 84.1942 140.151 94.7463L134.392 115.142C131.985 123.666 132.478 132.68 135.794 140.92L144.309 162.084L144.371 162.237L144.444 162.385C150.23 174.152 141.229 188.436 126.087 188.436L106.365 188.435H86.6433C71.501 188.435 62.4998 174.151 68.2862 162.385ZM99.4369 43.8027C99.4366 43.803 99.4363 43.8033 99.436 43.8036L99.4369 43.8027L96.1914 40.7847L99.4369 43.8027Z" stroke="#348E2B" stroke-width="8.86373"/>
<rect id="Rectangle 6" x="91.0693" y="22.1597" width="26.5912" height="13.2956" rx="4.43187" fill="#70D767"/>
</g>
</g>
</svg>
