<svg width="223" height="100" viewBox="0 0 223 100" fill="none" xmlns="http://www.w3.org/2000/svg">
<g id="ecoQuestButton">
<g id="ecoQuest">
<rect id="ecoQuestButtonBox" y="2" width="222.913" height="98" rx="22" fill="#54BF58"/>
<line id="ecoQuestionButtonLine" x1="22.8628" y1="2.84058" x2="50.0125" y2="2.84058" stroke="#FF5C00" stroke-width="4"/>
<path id="ecoQuestText" d="M54.032 45.048V50.64H60.128V52.44H54.032V58.2H60.848V60H51.848V43.248H60.848V45.048H54.032ZM63.3367 53.4C63.3367 52.04 63.6087 50.856 64.1527 49.848C64.6967 48.824 65.4487 48.032 66.4087 47.472C67.3847 46.912 68.4967 46.632 69.7447 46.632C71.3607 46.632 72.6887 47.024 73.7287 47.808C74.7847 48.592 75.4807 49.68 75.8167 51.072H73.4647C73.2407 50.272 72.8007 49.64 72.1447 49.176C71.5047 48.712 70.7047 48.48 69.7447 48.48C68.4967 48.48 67.4887 48.912 66.7207 49.776C65.9527 50.624 65.5687 51.832 65.5687 53.4C65.5687 54.984 65.9527 56.208 66.7207 57.072C67.4887 57.936 68.4967 58.368 69.7447 58.368C70.7047 58.368 71.5047 58.144 72.1447 57.696C72.7847 57.248 73.2247 56.608 73.4647 55.776H75.8167C75.4647 57.12 74.7607 58.2 73.7047 59.016C72.6487 59.816 71.3287 60.216 69.7447 60.216C68.4967 60.216 67.3847 59.936 66.4087 59.376C65.4487 58.816 64.6967 58.024 64.1527 57C63.6087 55.976 63.3367 54.776 63.3367 53.4ZM84.4668 60.216C83.2348 60.216 82.1148 59.936 81.1068 59.376C80.1148 58.816 79.3308 58.024 78.7548 57C78.1948 55.96 77.9148 54.76 77.9148 53.4C77.9148 52.056 78.2028 50.872 78.7788 49.848C79.3708 48.808 80.1708 48.016 81.1788 47.472C82.1868 46.912 83.3148 46.632 84.5628 46.632C85.8108 46.632 86.9388 46.912 87.9468 47.472C88.9548 48.016 89.7468 48.8 90.3228 49.824C90.9148 50.848 91.2108 52.04 91.2108 53.4C91.2108 54.76 90.9068 55.96 90.2988 57C89.7068 58.024 88.8988 58.816 87.8748 59.376C86.8508 59.936 85.7148 60.216 84.4668 60.216ZM84.4668 58.296C85.2508 58.296 85.9868 58.112 86.6748 57.744C87.3628 57.376 87.9148 56.824 88.3308 56.088C88.7628 55.352 88.9788 54.456 88.9788 53.4C88.9788 52.344 88.7708 51.448 88.3548 50.712C87.9388 49.976 87.3948 49.432 86.7228 49.08C86.0508 48.712 85.3228 48.528 84.5388 48.528C83.7388 48.528 83.0028 48.712 82.3308 49.08C81.6748 49.432 81.1468 49.976 80.7468 50.712C80.3468 51.448 80.1468 52.344 80.1468 53.4C80.1468 54.472 80.3388 55.376 80.7228 56.112C81.1228 56.848 81.6508 57.4 82.3068 57.768C82.9628 58.12 83.6828 58.296 84.4668 58.296ZM113.897 63.168L110.561 59.832C109.745 60.056 108.913 60.168 108.065 60.168C106.513 60.168 105.097 59.808 103.817 59.088C102.537 58.352 101.521 57.336 100.769 56.04C100.033 54.728 99.6648 53.256 99.6648 51.624C99.6648 49.992 100.033 48.528 100.769 47.232C101.521 45.92 102.537 44.904 103.817 44.184C105.097 43.448 106.513 43.08 108.065 43.08C109.633 43.08 111.057 43.448 112.337 44.184C113.617 44.904 114.625 45.912 115.361 47.208C116.097 48.504 116.465 49.976 116.465 51.624C116.465 53.224 116.113 54.664 115.409 55.944C114.705 57.224 113.737 58.232 112.505 58.968L116.729 63.168H113.897ZM101.897 51.624C101.897 52.952 102.161 54.12 102.689 55.128C103.233 56.136 103.969 56.912 104.897 57.456C105.841 58 106.897 58.272 108.065 58.272C109.233 58.272 110.281 58 111.209 57.456C112.153 56.912 112.889 56.136 113.417 55.128C113.961 54.12 114.233 52.952 114.233 51.624C114.233 50.28 113.961 49.112 113.417 48.12C112.889 47.112 112.161 46.336 111.233 45.792C110.305 45.248 109.249 44.976 108.065 44.976C106.881 44.976 105.825 45.248 104.897 45.792C103.969 46.336 103.233 47.112 102.689 48.12C102.161 49.112 101.897 50.28 101.897 51.624ZM131.059 46.848V60H128.875V58.056C128.459 58.728 127.875 59.256 127.123 59.64C126.387 60.008 125.571 60.192 124.675 60.192C123.651 60.192 122.731 59.984 121.915 59.568C121.099 59.136 120.451 58.496 119.971 57.648C119.507 56.8 119.275 55.768 119.275 54.552V46.848H121.435V54.264C121.435 55.56 121.763 56.56 122.419 57.264C123.075 57.952 123.971 58.296 125.107 58.296C126.275 58.296 127.195 57.936 127.867 57.216C128.539 56.496 128.875 55.448 128.875 54.072V46.848H131.059ZM146.746 52.92C146.746 53.336 146.722 53.776 146.674 54.24H136.162C136.242 55.536 136.682 56.552 137.482 57.288C138.298 58.008 139.282 58.368 140.434 58.368C141.378 58.368 142.162 58.152 142.786 57.72C143.426 57.272 143.874 56.68 144.13 55.944H146.482C146.13 57.208 145.426 58.24 144.37 59.04C143.314 59.824 142.002 60.216 140.434 60.216C139.186 60.216 138.066 59.936 137.074 59.376C136.098 58.816 135.33 58.024 134.77 57C134.21 55.96 133.93 54.76 133.93 53.4C133.93 52.04 134.202 50.848 134.746 49.824C135.29 48.8 136.05 48.016 137.026 47.472C138.018 46.912 139.154 46.632 140.434 46.632C141.682 46.632 142.786 46.904 143.746 47.448C144.706 47.992 145.442 48.744 145.954 49.704C146.482 50.648 146.746 51.72 146.746 52.92ZM144.49 52.464C144.49 51.632 144.306 50.92 143.938 50.328C143.57 49.72 143.066 49.264 142.426 48.96C141.802 48.64 141.106 48.48 140.338 48.48C139.234 48.48 138.29 48.832 137.506 49.536C136.738 50.24 136.298 51.216 136.186 52.464H144.49ZM154.285 60.216C153.277 60.216 152.373 60.048 151.573 59.712C150.773 59.36 150.141 58.88 149.677 58.272C149.213 57.648 148.957 56.936 148.909 56.136H151.165C151.229 56.792 151.533 57.328 152.077 57.744C152.637 58.16 153.365 58.368 154.261 58.368C155.093 58.368 155.749 58.184 156.229 57.816C156.709 57.448 156.949 56.984 156.949 56.424C156.949 55.848 156.693 55.424 156.181 55.152C155.669 54.864 154.877 54.584 153.805 54.312C152.829 54.056 152.029 53.8 151.405 53.544C150.797 53.272 150.269 52.88 149.821 52.368C149.389 51.84 149.173 51.152 149.173 50.304C149.173 49.632 149.373 49.016 149.773 48.456C150.173 47.896 150.741 47.456 151.477 47.136C152.213 46.8 153.053 46.632 153.997 46.632C155.453 46.632 156.629 47 157.525 47.736C158.421 48.472 158.901 49.48 158.965 50.76H156.781C156.733 50.072 156.453 49.52 155.941 49.104C155.445 48.688 154.773 48.48 153.925 48.48C153.141 48.48 152.517 48.648 152.053 48.984C151.589 49.32 151.357 49.76 151.357 50.304C151.357 50.736 151.493 51.096 151.765 51.384C152.053 51.656 152.405 51.88 152.821 52.056C153.253 52.216 153.845 52.4 154.597 52.608C155.541 52.864 156.309 53.12 156.901 53.376C157.493 53.616 157.997 53.984 158.413 54.48C158.845 54.976 159.069 55.624 159.085 56.424C159.085 57.144 158.885 57.792 158.485 58.368C158.085 58.944 157.517 59.4 156.781 59.736C156.061 60.056 155.229 60.216 154.285 60.216ZM164.832 48.648V56.4C164.832 57.04 164.968 57.496 165.24 57.768C165.512 58.024 165.984 58.152 166.656 58.152H168.264V60H166.296C165.08 60 164.168 59.72 163.56 59.16C162.952 58.6 162.648 57.68 162.648 56.4V48.648H160.944V46.848H162.648V43.536H164.832V46.848H168.264V48.648H164.832Z" fill="black"/>
</g>
</g>
</svg>
