<svg width="72" height="22" viewBox="0 0 72 22" fill="none" xmlns="http://www.w3.org/2000/svg">
<g id="pointsText">
<mask id="path-1-outside-1_47_155" maskUnits="userSpaceOnUse" x="0" y="0" width="72" height="22" fill="black">
<rect fill="white" width="72" height="22"/>
<path d="M13.032 8.168C13.032 9.56 12.552 10.72 11.592 11.648C10.648 12.56 9.2 13.016 7.248 13.016H4.032V20H1.848V3.272H7.248C9.136 3.272 10.568 3.728 11.544 4.64C12.536 5.552 13.032 6.728 13.032 8.168ZM7.248 11.216C8.464 11.216 9.36 10.952 9.936 10.424C10.512 9.896 10.8 9.144 10.8 8.168C10.8 6.104 9.616 5.072 7.248 5.072H4.032V11.216H7.248ZM21.4824 20.216C20.2504 20.216 19.1304 19.936 18.1224 19.376C17.1304 18.816 16.3464 18.024 15.7704 17C15.2104 15.96 14.9304 14.76 14.9304 13.4C14.9304 12.056 15.2184 10.872 15.7944 9.848C16.3864 8.808 17.1864 8.016 18.1944 7.472C19.2024 6.912 20.3304 6.632 21.5784 6.632C22.8264 6.632 23.9544 6.912 24.9624 7.472C25.9704 8.016 26.7624 8.8 27.3384 9.824C27.9304 10.848 28.2264 12.04 28.2264 13.4C28.2264 14.76 27.9224 15.96 27.3144 17C26.7224 18.024 25.9144 18.816 24.8904 19.376C23.8664 19.936 22.7304 20.216 21.4824 20.216ZM21.4824 18.296C22.2664 18.296 23.0024 18.112 23.6904 17.744C24.3784 17.376 24.9304 16.824 25.3464 16.088C25.7784 15.352 25.9944 14.456 25.9944 13.4C25.9944 12.344 25.7864 11.448 25.3704 10.712C24.9544 9.976 24.4104 9.432 23.7384 9.08C23.0664 8.712 22.3384 8.528 21.5544 8.528C20.7544 8.528 20.0184 8.712 19.3464 9.08C18.6904 9.432 18.1624 9.976 17.7624 10.712C17.3624 11.448 17.1624 12.344 17.1624 13.4C17.1624 14.472 17.3544 15.376 17.7384 16.112C18.1384 16.848 18.6664 17.4 19.3224 17.768C19.9784 18.12 20.6984 18.296 21.4824 18.296ZM32.226 4.712C31.81 4.712 31.458 4.568 31.17 4.28C30.882 3.992 30.738 3.64 30.738 3.224C30.738 2.808 30.882 2.456 31.17 2.168C31.458 1.88 31.81 1.736 32.226 1.736C32.626 1.736 32.962 1.88 33.234 2.168C33.522 2.456 33.666 2.808 33.666 3.224C33.666 3.64 33.522 3.992 33.234 4.28C32.962 4.568 32.626 4.712 32.226 4.712ZM33.282 6.848V20H31.098V6.848H33.282ZM43.4123 6.608C45.0123 6.608 46.3083 7.096 47.3003 8.072C48.2923 9.032 48.7883 10.424 48.7883 12.248V20H46.6283V12.56C46.6283 11.248 46.3003 10.248 45.6443 9.56C44.9883 8.856 44.0923 8.504 42.9563 8.504C41.8043 8.504 40.8843 8.864 40.1963 9.584C39.5243 10.304 39.1883 11.352 39.1883 12.728V20H37.0043V6.848H39.1883V8.72C39.6203 8.048 40.2043 7.528 40.9403 7.16C41.6923 6.792 42.5163 6.608 43.4123 6.608ZM55.0198 8.648V16.4C55.0198 17.04 55.1558 17.496 55.4278 17.768C55.6998 18.024 56.1718 18.152 56.8438 18.152H58.4518V20H56.4838C55.2678 20 54.3558 19.72 53.7478 19.16C53.1398 18.6 52.8358 17.68 52.8358 16.4V8.648H51.1318V6.848H52.8358V3.536H55.0198V6.848H58.4518V8.648H55.0198ZM65.754 20.216C64.746 20.216 63.842 20.048 63.042 19.712C62.242 19.36 61.61 18.88 61.146 18.272C60.682 17.648 60.426 16.936 60.378 16.136H62.634C62.698 16.792 63.002 17.328 63.546 17.744C64.106 18.16 64.834 18.368 65.73 18.368C66.562 18.368 67.218 18.184 67.698 17.816C68.178 17.448 68.418 16.984 68.418 16.424C68.418 15.848 68.162 15.424 67.65 15.152C67.138 14.864 66.346 14.584 65.274 14.312C64.298 14.056 63.498 13.8 62.874 13.544C62.266 13.272 61.738 12.88 61.29 12.368C60.858 11.84 60.642 11.152 60.642 10.304C60.642 9.632 60.842 9.016 61.242 8.456C61.642 7.896 62.21 7.456 62.946 7.136C63.682 6.8 64.522 6.632 65.466 6.632C66.922 6.632 68.098 7 68.994 7.736C69.89 8.472 70.37 9.48 70.434 10.76H68.25C68.202 10.072 67.922 9.52 67.41 9.104C66.914 8.688 66.242 8.48 65.394 8.48C64.61 8.48 63.986 8.648 63.522 8.984C63.058 9.32 62.826 9.76 62.826 10.304C62.826 10.736 62.962 11.096 63.234 11.384C63.522 11.656 63.874 11.88 64.29 12.056C64.722 12.216 65.314 12.4 66.066 12.608C67.01 12.864 67.778 13.12 68.37 13.376C68.962 13.616 69.466 13.984 69.882 14.48C70.314 14.976 70.538 15.624 70.554 16.424C70.554 17.144 70.354 17.792 69.954 18.368C69.554 18.944 68.986 19.4 68.25 19.736C67.53 20.056 66.698 20.216 65.754 20.216Z"/>
</mask>
<path d="M13.032 8.168C13.032 9.56 12.552 10.72 11.592 11.648C10.648 12.56 9.2 13.016 7.248 13.016H4.032V20H1.848V3.272H7.248C9.136 3.272 10.568 3.728 11.544 4.64C12.536 5.552 13.032 6.728 13.032 8.168ZM7.248 11.216C8.464 11.216 9.36 10.952 9.936 10.424C10.512 9.896 10.8 9.144 10.8 8.168C10.8 6.104 9.616 5.072 7.248 5.072H4.032V11.216H7.248ZM21.4824 20.216C20.2504 20.216 19.1304 19.936 18.1224 19.376C17.1304 18.816 16.3464 18.024 15.7704 17C15.2104 15.96 14.9304 14.76 14.9304 13.4C14.9304 12.056 15.2184 10.872 15.7944 9.848C16.3864 8.808 17.1864 8.016 18.1944 7.472C19.2024 6.912 20.3304 6.632 21.5784 6.632C22.8264 6.632 23.9544 6.912 24.9624 7.472C25.9704 8.016 26.7624 8.8 27.3384 9.824C27.9304 10.848 28.2264 12.04 28.2264 13.4C28.2264 14.76 27.9224 15.96 27.3144 17C26.7224 18.024 25.9144 18.816 24.8904 19.376C23.8664 19.936 22.7304 20.216 21.4824 20.216ZM21.4824 18.296C22.2664 18.296 23.0024 18.112 23.6904 17.744C24.3784 17.376 24.9304 16.824 25.3464 16.088C25.7784 15.352 25.9944 14.456 25.9944 13.4C25.9944 12.344 25.7864 11.448 25.3704 10.712C24.9544 9.976 24.4104 9.432 23.7384 9.08C23.0664 8.712 22.3384 8.528 21.5544 8.528C20.7544 8.528 20.0184 8.712 19.3464 9.08C18.6904 9.432 18.1624 9.976 17.7624 10.712C17.3624 11.448 17.1624 12.344 17.1624 13.4C17.1624 14.472 17.3544 15.376 17.7384 16.112C18.1384 16.848 18.6664 17.4 19.3224 17.768C19.9784 18.12 20.6984 18.296 21.4824 18.296ZM32.226 4.712C31.81 4.712 31.458 4.568 31.17 4.28C30.882 3.992 30.738 3.64 30.738 3.224C30.738 2.808 30.882 2.456 31.17 2.168C31.458 1.88 31.81 1.736 32.226 1.736C32.626 1.736 32.962 1.88 33.234 2.168C33.522 2.456 33.666 2.808 33.666 3.224C33.666 3.64 33.522 3.992 33.234 4.28C32.962 4.568 32.626 4.712 32.226 4.712ZM33.282 6.848V20H31.098V6.848H33.282ZM43.4123 6.608C45.0123 6.608 46.3083 7.096 47.3003 8.072C48.2923 9.032 48.7883 10.424 48.7883 12.248V20H46.6283V12.56C46.6283 11.248 46.3003 10.248 45.6443 9.56C44.9883 8.856 44.0923 8.504 42.9563 8.504C41.8043 8.504 40.8843 8.864 40.1963 9.584C39.5243 10.304 39.1883 11.352 39.1883 12.728V20H37.0043V6.848H39.1883V8.72C39.6203 8.048 40.2043 7.528 40.9403 7.16C41.6923 6.792 42.5163 6.608 43.4123 6.608ZM55.0198 8.648V16.4C55.0198 17.04 55.1558 17.496 55.4278 17.768C55.6998 18.024 56.1718 18.152 56.8438 18.152H58.4518V20H56.4838C55.2678 20 54.3558 19.72 53.7478 19.16C53.1398 18.6 52.8358 17.68 52.8358 16.4V8.648H51.1318V6.848H52.8358V3.536H55.0198V6.848H58.4518V8.648H55.0198ZM65.754 20.216C64.746 20.216 63.842 20.048 63.042 19.712C62.242 19.36 61.61 18.88 61.146 18.272C60.682 17.648 60.426 16.936 60.378 16.136H62.634C62.698 16.792 63.002 17.328 63.546 17.744C64.106 18.16 64.834 18.368 65.73 18.368C66.562 18.368 67.218 18.184 67.698 17.816C68.178 17.448 68.418 16.984 68.418 16.424C68.418 15.848 68.162 15.424 67.65 15.152C67.138 14.864 66.346 14.584 65.274 14.312C64.298 14.056 63.498 13.8 62.874 13.544C62.266 13.272 61.738 12.88 61.29 12.368C60.858 11.84 60.642 11.152 60.642 10.304C60.642 9.632 60.842 9.016 61.242 8.456C61.642 7.896 62.21 7.456 62.946 7.136C63.682 6.8 64.522 6.632 65.466 6.632C66.922 6.632 68.098 7 68.994 7.736C69.89 8.472 70.37 9.48 70.434 10.76H68.25C68.202 10.072 67.922 9.52 67.41 9.104C66.914 8.688 66.242 8.48 65.394 8.48C64.61 8.48 63.986 8.648 63.522 8.984C63.058 9.32 62.826 9.76 62.826 10.304C62.826 10.736 62.962 11.096 63.234 11.384C63.522 11.656 63.874 11.88 64.29 12.056C64.722 12.216 65.314 12.4 66.066 12.608C67.01 12.864 67.778 13.12 68.37 13.376C68.962 13.616 69.466 13.984 69.882 14.48C70.314 14.976 70.538 15.624 70.554 16.424C70.554 17.144 70.354 17.792 69.954 18.368C69.554 18.944 68.986 19.4 68.25 19.736C67.53 20.056 66.698 20.216 65.754 20.216Z" fill="black" fill-opacity="0.75"/>
<path d="M11.592 11.648L12.2868 12.3672L12.287 12.367L11.592 11.648ZM4.032 13.016V12.016H3.032V13.016H4.032ZM4.032 20V21H5.032V20H4.032ZM1.848 20H0.848V21H1.848V20ZM1.848 3.272V2.272H0.848V3.272H1.848ZM11.544 4.64L10.8612 5.37068L10.8672 5.37617L11.544 4.64ZM9.936 10.424L10.6117 11.1612L10.6117 11.1612L9.936 10.424ZM4.032 5.072V4.072H3.032V5.072H4.032ZM4.032 11.216H3.032V12.216H4.032V11.216ZM12.032 8.168C12.032 9.30183 11.653 10.1982 10.897 10.929L12.287 12.367C13.451 11.2418 14.032 9.81817 14.032 8.168H12.032ZM10.8972 10.9288C10.2133 11.5895 9.06533 12.016 7.248 12.016V14.016C9.33467 14.016 11.0827 13.5305 12.2868 12.3672L10.8972 10.9288ZM7.248 12.016H4.032V14.016H7.248V12.016ZM3.032 13.016V20H5.032V13.016H3.032ZM4.032 19H1.848V21H4.032V19ZM2.848 20V3.272H0.848V20H2.848ZM1.848 4.272H7.248V2.272H1.848V4.272ZM7.248 4.272C8.98741 4.272 10.135 4.69206 10.8613 5.37066L12.2267 3.90934C11.001 2.76394 9.28459 2.272 7.248 2.272V4.272ZM10.8672 5.37617C11.6379 6.08468 12.032 6.98624 12.032 8.168H14.032C14.032 6.46976 13.4341 5.01931 12.2208 3.90383L10.8672 5.37617ZM7.248 12.216C8.58043 12.216 9.77201 11.9309 10.6117 11.1612L9.26028 9.68685C8.94799 9.97311 8.34757 10.216 7.248 10.216V12.216ZM10.6117 11.1612C11.4437 10.3985 11.8 9.34951 11.8 8.168H9.8C9.8 8.93849 9.58029 9.3935 9.26028 9.68685L10.6117 11.1612ZM11.8 8.168C11.8 6.94337 11.4424 5.85337 10.5691 5.09216C9.72199 4.35384 8.555 4.072 7.248 4.072V6.072C8.309 6.072 8.91801 6.30616 9.25494 6.59984C9.56561 6.87063 9.8 7.32863 9.8 8.168H11.8ZM7.248 4.072H4.032V6.072H7.248V4.072ZM3.032 5.072V11.216H5.032V5.072H3.032ZM4.032 12.216H7.248V10.216H4.032V12.216ZM18.1224 19.376L17.6308 20.2468L17.6368 20.2502L18.1224 19.376ZM15.7704 17L14.89 17.4741L14.8943 17.4822L14.8989 17.4903L15.7704 17ZM15.7944 9.848L14.9254 9.3533L14.9229 9.35774L15.7944 9.848ZM18.1944 7.472L18.6694 8.35209L18.6801 8.34616L18.1944 7.472ZM24.9624 7.472L24.4768 8.34622L24.4875 8.35202L24.9624 7.472ZM27.3384 9.824L26.4668 10.3143L26.4727 10.3245L27.3384 9.824ZM27.3144 17L26.4511 16.4953L26.4487 16.4995L27.3144 17ZM24.8904 19.376L25.3703 20.2534L25.3703 20.2534L24.8904 19.376ZM25.3464 16.088L24.484 15.5818L24.4799 15.5888L24.4759 15.5959L25.3464 16.088ZM23.7384 9.08L23.2581 9.9571L23.2662 9.96154L23.2744 9.96583L23.7384 9.08ZM19.3464 9.08L19.8193 9.96119L19.8268 9.9571L19.3464 9.08ZM17.7624 10.712L18.6411 11.1895L18.6411 11.1895L17.7624 10.712ZM17.7384 16.112L16.8519 16.5746L16.8558 16.5821L16.8598 16.5895L17.7384 16.112ZM19.3224 17.768L18.8332 18.6401L18.8414 18.6447L18.8496 18.6492L19.3224 17.768ZM21.4824 19.216C20.4084 19.216 19.4574 18.9737 18.6081 18.5018L17.6368 20.2502C18.8035 20.8983 20.0925 21.216 21.4824 21.216V19.216ZM18.614 18.5052C17.7862 18.0379 17.1314 17.3798 16.642 16.5097L14.8989 17.4903C15.5614 18.6682 16.4747 19.5941 17.6308 20.2468L18.614 18.5052ZM16.6509 16.5259C16.1805 15.6523 15.9304 14.6198 15.9304 13.4H13.9304C13.9304 14.9002 14.2404 16.2677 14.89 17.4741L16.6509 16.5259ZM15.9304 13.4C15.9304 12.2027 16.1857 11.1922 16.666 10.3383L14.9229 9.35774C14.2512 10.5518 13.9304 11.9093 13.9304 13.4H15.9304ZM16.6635 10.3427C17.1672 9.45788 17.8338 8.80295 18.6694 8.35202L17.7195 6.59198C16.539 7.22905 15.6057 8.15812 14.9254 9.3533L16.6635 10.3427ZM18.6801 8.34616C19.5274 7.8754 20.486 7.632 21.5784 7.632V5.632C20.1749 5.632 18.8774 5.9486 17.7088 6.59784L18.6801 8.34616ZM21.5784 7.632C22.6709 7.632 23.6294 7.8754 24.4768 8.34616L25.4481 6.59784C24.2794 5.9486 22.982 5.632 21.5784 5.632V7.632ZM24.4875 8.35202C25.3246 8.80381 25.9811 9.45059 26.4669 10.3143L28.21 9.33374C27.5438 8.1494 26.6162 7.22819 25.4374 6.59198L24.4875 8.35202ZM26.4727 10.3245C26.9643 11.1748 27.2264 12.189 27.2264 13.4H29.2264C29.2264 11.891 28.8966 10.5212 28.2042 9.3235L26.4727 10.3245ZM27.2264 13.4C27.2264 14.606 26.9585 15.6274 26.4511 16.4953L28.1777 17.5047C28.8863 16.2926 29.2264 14.914 29.2264 13.4H27.2264ZM26.4487 16.4995C25.9471 17.3671 25.2716 18.0278 24.4106 18.4986L25.3703 20.2534C26.5572 19.6042 27.4978 18.6809 28.1802 17.5005L26.4487 16.4995ZM24.4106 18.4986C23.5439 18.9726 22.5747 19.216 21.4824 19.216V21.216C22.8862 21.216 24.189 20.8994 25.3703 20.2534L24.4106 18.4986ZM21.4824 19.296C22.4302 19.296 23.3283 19.0718 24.1621 18.6258L23.2188 16.8622C22.6766 17.1522 22.1027 17.296 21.4824 17.296V19.296ZM24.1621 18.6258C25.0313 18.1609 25.7158 17.4668 26.217 16.5801L24.4759 15.5959C24.1451 16.1812 23.7256 16.5911 23.2188 16.8622L24.1621 18.6258ZM26.2089 16.5942C26.75 15.6722 26.9944 14.592 26.9944 13.4H24.9944C24.9944 14.32 24.8068 15.0318 24.484 15.5818L26.2089 16.5942ZM26.9944 13.4C26.9944 12.2139 26.7605 11.1391 26.241 10.2199L24.4999 11.2041C24.8124 11.7569 24.9944 12.4741 24.9944 13.4H26.9944ZM26.241 10.2199C25.7414 9.33612 25.0642 8.64556 24.2024 8.19417L23.2744 9.96583C23.7567 10.2184 24.1674 10.6159 24.4999 11.2041L26.241 10.2199ZM24.2188 8.2029C23.396 7.75233 22.5022 7.528 21.5544 7.528V9.528C22.1746 9.528 22.7369 9.67167 23.2581 9.9571L24.2188 8.2029ZM21.5544 7.528C20.5942 7.528 19.692 7.75065 18.8661 8.2029L19.8268 9.9571C20.3449 9.67335 20.9146 9.528 21.5544 9.528V7.528ZM18.8736 8.19884C18.025 8.65421 17.3648 9.34941 16.8838 10.2345L18.6411 11.1895C18.96 10.6026 19.3559 10.2098 19.8193 9.96116L18.8736 8.19884ZM16.8838 10.2345C16.386 11.1504 16.1624 12.2198 16.1624 13.4H18.1624C18.1624 12.4682 18.3388 11.7456 18.6411 11.1895L16.8838 10.2345ZM16.1624 13.4C16.1624 14.5876 16.3748 15.6602 16.8519 16.5746L18.625 15.6494C18.3341 15.0918 18.1624 14.3564 18.1624 13.4H16.1624ZM16.8598 16.5895C17.3393 17.4717 17.9945 18.1697 18.8332 18.6401L19.8117 16.8959C19.3383 16.6303 18.9376 16.2243 18.6171 15.6345L16.8598 16.5895ZM18.8496 18.6492C19.6588 19.0833 20.5425 19.296 21.4824 19.296V17.296C20.8544 17.296 20.2981 17.1567 19.7953 16.8868L18.8496 18.6492ZM31.17 4.28L31.8771 3.57289L31.8771 3.57289L31.17 4.28ZM31.17 2.168L31.8771 2.87511L31.8771 2.87511L31.17 2.168ZM33.234 2.168L32.507 2.85462L32.5168 2.86501L32.5269 2.87511L33.234 2.168ZM33.234 4.28L32.5269 3.57289L32.5168 3.58299L32.507 3.59338L33.234 4.28ZM33.282 6.848H34.282V5.848H33.282V6.848ZM33.282 20V21H34.282V20H33.282ZM31.098 20H30.098V21H31.098V20ZM31.098 6.848V5.848H30.098V6.848H31.098ZM32.226 3.712C32.0689 3.712 31.9731 3.66891 31.8771 3.57289L30.4629 4.98711C30.9429 5.46709 31.5511 5.712 32.226 5.712V3.712ZM31.8771 3.57289C31.7811 3.47688 31.738 3.38114 31.738 3.224H29.738C29.738 3.89886 29.9829 4.50712 30.4629 4.98711L31.8771 3.57289ZM31.738 3.224C31.738 3.06686 31.7811 2.97112 31.8771 2.87511L30.4629 1.46089C29.9829 1.94088 29.738 2.54914 29.738 3.224H31.738ZM31.8771 2.87511C31.9731 2.77909 32.0689 2.736 32.226 2.736V0.735999C31.5511 0.735999 30.9429 0.98091 30.4629 1.46089L31.8771 2.87511ZM32.226 2.736C32.3539 2.736 32.426 2.76884 32.507 2.85462L33.961 1.48138C33.498 0.991154 32.8981 0.735999 32.226 0.735999V2.736ZM32.5269 2.87511C32.6229 2.97112 32.666 3.06686 32.666 3.224H34.666C34.666 2.54914 34.4211 1.94088 33.9411 1.46089L32.5269 2.87511ZM32.666 3.224C32.666 3.38114 32.6229 3.47688 32.5269 3.57289L33.9411 4.98711C34.4211 4.50712 34.666 3.89886 34.666 3.224H32.666ZM32.507 3.59338C32.426 3.67915 32.3539 3.712 32.226 3.712V5.712C32.8981 5.712 33.498 5.45684 33.961 4.96662L32.507 3.59338ZM32.282 6.848V20H34.282V6.848H32.282ZM33.282 19H31.098V21H33.282V19ZM32.098 20V6.848H30.098V20H32.098ZM31.098 7.848H33.282V5.848H31.098V7.848ZM47.3003 8.072L46.5989 8.78486L46.6048 8.7906L47.3003 8.072ZM48.7883 20V21H49.7883V20H48.7883ZM46.6283 20H45.6283V21H46.6283V20ZM45.6443 9.56L44.9126 10.2418L44.9205 10.2501L45.6443 9.56ZM40.1963 9.584L39.4732 8.89309L39.4652 8.90168L40.1963 9.584ZM39.1883 20V21H40.1883V20H39.1883ZM37.0043 20H36.0043V21H37.0043V20ZM37.0043 6.848V5.848H36.0043V6.848H37.0043ZM39.1883 6.848H40.1883V5.848H39.1883V6.848ZM39.1883 8.72H38.1883V12.1248L40.0294 9.26076L39.1883 8.72ZM40.9403 7.16L40.5007 6.26175L40.493 6.26557L40.9403 7.16ZM43.4123 7.608C44.7924 7.608 45.8222 8.02066 46.5989 8.78483L48.0016 7.35917C46.7943 6.17133 45.2321 5.608 43.4123 5.608V7.608ZM46.6048 8.7906C47.3454 9.50731 47.7883 10.6042 47.7883 12.248H49.7883C49.7883 10.2438 49.2391 8.55669 47.9957 7.3534L46.6048 8.7906ZM47.7883 12.248V20H49.7883V12.248H47.7883ZM48.7883 19H46.6283V21H48.7883V19ZM47.6283 20V12.56H45.6283V20H47.6283ZM47.6283 12.56C47.6283 11.09 47.2595 9.80494 46.368 8.86992L44.9205 10.2501C45.341 10.6911 45.6283 11.406 45.6283 12.56H47.6283ZM46.3759 8.87827C45.4965 7.93457 44.3152 7.504 42.9563 7.504V9.504C43.8693 9.504 44.48 9.77743 44.9126 10.2417L46.3759 8.87827ZM42.9563 7.504C41.5778 7.504 40.3799 7.9443 39.4733 8.89314L40.9192 10.2749C41.3886 9.78369 42.0307 9.504 42.9563 9.504V7.504ZM39.4652 8.90168C38.5619 9.86947 38.1883 11.1998 38.1883 12.728H40.1883C40.1883 11.5042 40.4866 10.7385 40.9273 10.2663L39.4652 8.90168ZM38.1883 12.728V20H40.1883V12.728H38.1883ZM39.1883 19H37.0043V21H39.1883V19ZM38.0043 20V6.848H36.0043V20H38.0043ZM37.0043 7.848H39.1883V5.848H37.0043V7.848ZM38.1883 6.848V8.72H40.1883V6.848H38.1883ZM40.0294 9.26076C40.3613 8.74459 40.8071 8.3446 41.3875 8.05443L40.493 6.26557C39.6014 6.7114 38.8792 7.35141 38.3471 8.17924L40.0294 9.26076ZM41.3798 8.05822C41.9855 7.76183 42.6577 7.608 43.4123 7.608V5.608C42.3748 5.608 41.399 5.82217 40.5007 6.26178L41.3798 8.05822ZM55.0198 8.648V7.648H54.0198V8.648H55.0198ZM55.4278 17.768L54.7207 18.4751L54.7314 18.4858L54.7424 18.4962L55.4278 17.768ZM58.4518 18.152H59.4518V17.152H58.4518V18.152ZM58.4518 20V21H59.4518V20H58.4518ZM52.8358 8.648H53.8358V7.648H52.8358V8.648ZM51.1318 8.648H50.1318V9.648H51.1318V8.648ZM51.1318 6.848V5.848H50.1318V6.848H51.1318ZM52.8358 6.848V7.848H53.8358V6.848H52.8358ZM52.8358 3.536V2.536H51.8358V3.536H52.8358ZM55.0198 3.536H56.0198V2.536H55.0198V3.536ZM55.0198 6.848H54.0198V7.848H55.0198V6.848ZM58.4518 6.848H59.4518V5.848H58.4518V6.848ZM58.4518 8.648V9.648H59.4518V8.648H58.4518ZM54.0198 8.648V16.4H56.0198V8.648H54.0198ZM54.0198 16.4C54.0198 17.1386 54.1694 17.9238 54.7207 18.4751L56.1349 17.0609C56.141 17.067 56.1117 17.0423 56.0801 16.9362C56.0474 16.8266 56.0198 16.6543 56.0198 16.4H54.0198ZM54.7424 18.4962C55.3007 19.0216 56.1014 19.152 56.8438 19.152V17.152C56.5658 17.152 56.3731 17.1249 56.2475 17.0909C56.1227 17.057 56.0983 17.0258 56.1132 17.0398L54.7424 18.4962ZM56.8438 19.152H58.4518V17.152H56.8438V19.152ZM57.4518 18.152V20H59.4518V18.152H57.4518ZM58.4518 19H56.4838V21H58.4518V19ZM56.4838 19C55.4025 19 54.778 18.7493 54.4253 18.4245L53.0703 19.8955C53.9337 20.6907 55.1331 21 56.4838 21V19ZM54.4253 18.4245C54.1127 18.1365 53.8358 17.552 53.8358 16.4H51.8358C51.8358 17.808 52.167 19.0635 53.0703 19.8955L54.4253 18.4245ZM53.8358 16.4V8.648H51.8358V16.4H53.8358ZM52.8358 7.648H51.1318V9.648H52.8358V7.648ZM52.1318 8.648V6.848H50.1318V8.648H52.1318ZM51.1318 7.848H52.8358V5.848H51.1318V7.848ZM53.8358 6.848V3.536H51.8358V6.848H53.8358ZM52.8358 4.536H55.0198V2.536H52.8358V4.536ZM54.0198 3.536V6.848H56.0198V3.536H54.0198ZM55.0198 7.848H58.4518V5.848H55.0198V7.848ZM57.4518 6.848V8.648H59.4518V6.848H57.4518ZM58.4518 7.648H55.0198V9.648H58.4518V7.648ZM63.042 19.712L62.6393 20.6273L62.647 20.6307L62.6548 20.634L63.042 19.712ZM61.146 18.272L60.3435 18.8687L60.351 18.8787L61.146 18.272ZM60.378 16.136V15.136H59.3162L59.3798 16.1959L60.378 16.136ZM62.634 16.136L63.6293 16.0389L63.5412 15.136H62.634V16.136ZM63.546 17.744L62.9385 18.5384L62.9497 18.5467L63.546 17.744ZM67.65 15.152L67.1597 16.0236L67.1702 16.0295L67.1808 16.0351L67.65 15.152ZM65.274 14.312L65.0203 15.2793L65.0281 15.2813L65.274 14.312ZM62.874 13.544L62.4656 14.4568L62.4799 14.4632L62.4944 14.4692L62.874 13.544ZM61.29 12.368L60.516 13.0012L60.5265 13.014L60.5374 13.0265L61.29 12.368ZM61.242 8.456L60.4283 7.87476L60.4283 7.87476L61.242 8.456ZM62.946 7.136L63.3447 8.05307L63.353 8.04945L63.3613 8.04569L62.946 7.136ZM70.434 10.76V11.76H71.4852L71.4328 10.7101L70.434 10.76ZM68.25 10.76L67.2524 10.8296L67.3173 11.76H68.25V10.76ZM67.41 9.104L66.7674 9.87019L66.7734 9.8752L66.7794 9.88011L67.41 9.104ZM63.522 8.984L62.9355 8.17406L62.9355 8.17406L63.522 8.984ZM63.234 11.384L62.507 12.0706L62.5266 12.0914L62.5474 12.111L63.234 11.384ZM64.29 12.056L63.9004 12.977L63.9213 12.9858L63.9427 12.9937L64.29 12.056ZM66.066 12.608L65.7994 13.5718L65.8043 13.5731L66.066 12.608ZM68.37 13.376L67.9731 14.2939L67.9836 14.2984L67.9943 14.3027L68.37 13.376ZM69.882 14.48L69.1158 15.1226L69.1218 15.1298L69.1279 15.1368L69.882 14.48ZM70.554 16.424H71.554V16.414L71.5538 16.404L70.554 16.424ZM69.954 18.368L69.1326 17.7976L69.1326 17.7976L69.954 18.368ZM68.25 19.736L68.6562 20.6499L68.6653 20.6457L68.25 19.736ZM65.754 19.216C64.8577 19.216 64.0884 19.0669 63.4292 18.79L62.6548 20.634C63.5956 21.0291 64.6343 21.216 65.754 21.216V19.216ZM63.4447 18.7967C62.7771 18.5029 62.2885 18.1208 61.941 17.6653L60.351 18.8787C60.9315 19.6392 61.7069 20.2171 62.6393 20.6273L63.4447 18.7967ZM61.9485 17.6753C61.6042 17.2124 61.4129 16.6882 61.3762 16.0761L59.3798 16.1959C59.4391 17.1838 59.7598 18.0836 60.3435 18.8687L61.9485 17.6753ZM60.378 17.136H62.634V15.136H60.378V17.136ZM61.6387 16.2331C61.7308 17.1772 62.1838 17.9612 62.9385 18.5384L64.1535 16.9496C63.8202 16.6948 63.6652 16.4068 63.6293 16.0389L61.6387 16.2331ZM62.9497 18.5467C63.7256 19.1231 64.6806 19.368 65.73 19.368V17.368C64.9874 17.368 64.4864 17.1969 64.1423 16.9413L62.9497 18.5467ZM65.73 19.368C66.7006 19.368 67.5967 19.1537 68.3064 18.6096L67.0896 17.0224C66.8393 17.2143 66.4234 17.368 65.73 17.368V19.368ZM68.3064 18.6096C69.0104 18.0699 69.418 17.3227 69.418 16.424H67.418C67.418 16.6453 67.3456 16.8261 67.0896 17.0224L68.3064 18.6096ZM69.418 16.424C69.418 15.9839 69.3187 15.549 69.0821 15.1571C68.8457 14.7656 68.5073 14.4751 68.1192 14.2689L67.1808 16.0351C67.3047 16.1009 67.3503 16.1584 67.3699 16.1909C67.3893 16.223 67.418 16.2881 67.418 16.424H69.418ZM68.1403 14.2804C67.5112 13.9266 66.6163 13.6209 65.5199 13.3427L65.0281 15.2813C66.0757 15.5471 66.7648 15.8014 67.1597 16.0236L68.1403 14.2804ZM65.5277 13.3447C64.5758 13.095 63.8219 12.852 63.2536 12.6188L62.4944 14.4692C63.1741 14.748 64.0202 15.017 65.0203 15.2793L65.5277 13.3447ZM63.2824 12.6312C62.809 12.4194 62.3976 12.1153 62.0426 11.7095L60.5374 13.0265C61.0784 13.6447 61.723 14.1246 62.4656 14.4568L63.2824 12.6312ZM62.064 11.7348C61.8109 11.4255 61.642 10.9788 61.642 10.304H59.642C59.642 11.3252 59.9051 12.2545 60.516 13.0012L62.064 11.7348ZM61.642 10.304C61.642 9.84573 61.7738 9.43201 62.0557 9.03724L60.4283 7.87476C59.9102 8.59999 59.642 9.41827 59.642 10.304H61.642ZM62.0557 9.03724C62.334 8.64772 62.7469 8.31297 63.3447 8.05307L62.5473 6.21893C61.6731 6.59903 60.95 7.14428 60.4283 7.87476L62.0557 9.03724ZM63.3613 8.04569C63.947 7.77832 64.6416 7.632 65.466 7.632V5.632C64.4024 5.632 63.417 5.82168 62.5307 6.22631L63.3613 8.04569ZM65.466 7.632C66.7512 7.632 67.684 7.95406 68.3593 8.50873L69.6287 6.96327C68.512 6.04594 67.0928 5.632 65.466 5.632V7.632ZM68.3593 8.50873C69.0132 9.04589 69.3837 9.77838 69.4352 10.8099L71.4328 10.7101C71.3563 9.18162 70.7668 7.89811 69.6287 6.96327L68.3593 8.50873ZM70.434 9.76H68.25V11.76H70.434V9.76ZM69.2476 10.6904C69.1813 9.74038 68.7782 8.92718 68.0406 8.32789L66.7794 9.88011C67.0658 10.1128 67.2227 10.4036 67.2524 10.8296L69.2476 10.6904ZM68.0526 8.33781C67.3271 7.7293 66.4032 7.48 65.394 7.48V9.48C66.0808 9.48 66.5009 9.6467 66.7674 9.87019L68.0526 8.33781ZM65.394 7.48C64.4754 7.48 63.6228 7.67634 62.9355 8.17406L64.1085 9.79394C64.3492 9.61966 64.7446 9.48 65.394 9.48V7.48ZM62.9355 8.17406C62.228 8.68639 61.826 9.41983 61.826 10.304H63.826C63.826 10.1002 63.888 9.95361 64.1085 9.79394L62.9355 8.17406ZM61.826 10.304C61.826 10.9661 62.0431 11.5794 62.507 12.0706L63.961 10.6974C63.8809 10.6126 63.826 10.5059 63.826 10.304H61.826ZM62.5474 12.111C62.9333 12.4755 63.3898 12.761 63.9004 12.977L64.6796 11.135C64.3582 10.999 64.1107 10.8365 63.9206 10.657L62.5474 12.111ZM63.9427 12.9937C64.4131 13.168 65.036 13.3607 65.7994 13.5718L66.3326 11.6442C65.592 11.4393 65.0309 11.264 64.6373 11.1183L63.9427 12.9937ZM65.8043 13.5731C66.7231 13.8223 67.4412 14.0638 67.9731 14.2939L68.7669 12.4581C68.1148 12.1762 67.2969 11.9057 66.3277 11.6429L65.8043 13.5731ZM67.9943 14.3027C68.4328 14.4805 68.8033 14.7501 69.1158 15.1226L70.6482 13.8374C70.1287 13.2179 69.4912 12.7515 68.7457 12.4493L67.9943 14.3027ZM69.1279 15.1368C69.3745 15.4198 69.5418 15.8258 69.5542 16.444L71.5538 16.404C71.5342 15.4222 71.2535 14.5322 70.6361 13.8232L69.1279 15.1368ZM69.554 16.424C69.554 16.9459 69.4131 17.3938 69.1326 17.7976L70.7754 18.9384C71.2949 18.1902 71.554 17.3421 71.554 16.424H69.554ZM69.1326 17.7976C68.85 18.2047 68.4328 18.5533 67.8347 18.8263L68.6653 20.6457C69.5392 20.2467 70.258 19.6833 70.7754 18.9384L69.1326 17.7976ZM67.8439 18.8222C67.2745 19.0753 66.5853 19.216 65.754 19.216V21.216C66.8107 21.216 67.7855 21.0367 68.6561 20.6498L67.8439 18.8222Z" fill="#FFAE00" mask="url(#path-1-outside-1_47_155)"/>
</g>
</svg>
