<svg width="450" height="57" viewBox="0 0 450 57" fill="none" xmlns="http://www.w3.org/2000/svg">
<g id="signInButton">
<path d="M0 25.6C0 16.6392 0 12.1587 1.7439 8.73615C3.27787 5.72556 5.72556 3.27787 8.73615 1.7439C12.1587 0 16.6392 0 25.6 0H424.4C433.361 0 437.841 0 441.264 1.7439C444.274 3.27787 446.722 5.72556 448.256 8.73615C450 12.1587 450 16.6392 450 25.6V31.4C450 40.3608 450 44.8413 448.256 48.2638C446.722 51.2744 444.274 53.7221 441.264 55.2561C437.841 57 433.361 57 424.4 57H25.6C16.6392 57 12.1587 57 8.73615 55.2561C5.72556 53.7221 3.27787 51.2744 1.7439 48.2638C0 44.8413 0 40.3608 0 31.4V25.6Z" fill="#00A900"/>
<path id="signInText" d="M200.368 35.18C199.216 35.18 198.25 35.012 197.47 34.676C196.702 34.34 196.12 33.902 195.724 33.362C195.328 32.822 195.118 32.246 195.094 31.634C195.094 31.538 195.13 31.454 195.202 31.382C195.274 31.298 195.364 31.256 195.472 31.256H197.398C197.554 31.256 197.674 31.292 197.758 31.364C197.842 31.424 197.92 31.502 197.992 31.598C198.076 31.802 198.208 32 198.388 32.192C198.58 32.384 198.838 32.546 199.162 32.678C199.486 32.798 199.888 32.858 200.368 32.858C201.148 32.858 201.73 32.732 202.114 32.48C202.51 32.228 202.708 31.886 202.708 31.454C202.708 31.142 202.6 30.89 202.384 30.698C202.18 30.506 201.85 30.332 201.394 30.176C200.95 30.02 200.356 29.852 199.612 29.672C198.712 29.48 197.944 29.234 197.308 28.934C196.684 28.622 196.21 28.226 195.886 27.746C195.574 27.254 195.418 26.648 195.418 25.928C195.418 25.208 195.616 24.572 196.012 24.02C196.408 23.456 196.966 23.018 197.686 22.706C198.406 22.382 199.264 22.22 200.26 22.22C201.064 22.22 201.772 22.328 202.384 22.544C203.008 22.76 203.524 23.042 203.932 23.39C204.352 23.738 204.67 24.11 204.886 24.506C205.102 24.902 205.216 25.286 205.228 25.658C205.228 25.754 205.192 25.844 205.12 25.928C205.048 26 204.958 26.036 204.85 26.036H202.834C202.714 26.036 202.606 26.012 202.51 25.964C202.414 25.916 202.336 25.832 202.276 25.712C202.204 25.4 201.988 25.13 201.628 24.902C201.28 24.662 200.824 24.542 200.26 24.542C199.672 24.542 199.204 24.65 198.856 24.866C198.52 25.082 198.352 25.412 198.352 25.856C198.352 26.144 198.436 26.39 198.604 26.594C198.784 26.786 199.078 26.96 199.486 27.116C199.906 27.26 200.458 27.422 201.142 27.602C202.198 27.818 203.056 28.076 203.716 28.376C204.376 28.676 204.862 29.066 205.174 29.546C205.486 30.014 205.642 30.608 205.642 31.328C205.642 32.132 205.414 32.822 204.958 33.398C204.514 33.974 203.896 34.418 203.104 34.73C202.324 35.03 201.412 35.18 200.368 35.18ZM208.008 35C207.888 35 207.786 34.958 207.702 34.874C207.618 34.79 207.576 34.682 207.576 34.55V26.09C207.576 25.958 207.618 25.85 207.702 25.766C207.786 25.682 207.888 25.64 208.008 25.64H209.808C209.94 25.64 210.048 25.682 210.132 25.766C210.216 25.85 210.258 25.958 210.258 26.09V34.55C210.258 34.682 210.216 34.79 210.132 34.874C210.048 34.958 209.94 35 209.808 35H208.008ZM207.954 24.2C207.834 24.2 207.732 24.158 207.648 24.074C207.564 23.99 207.522 23.882 207.522 23.75V22.31C207.522 22.178 207.564 22.07 207.648 21.986C207.732 21.89 207.834 21.842 207.954 21.842H209.844C209.976 21.842 210.084 21.89 210.168 21.986C210.264 22.07 210.312 22.178 210.312 22.31V23.75C210.312 23.882 210.264 23.99 210.168 24.074C210.084 24.158 209.976 24.2 209.844 24.2H207.954ZM217.108 38.96C216.22 38.96 215.482 38.84 214.894 38.6C214.306 38.372 213.838 38.09 213.49 37.754C213.154 37.43 212.914 37.106 212.77 36.782C212.626 36.458 212.548 36.206 212.536 36.026C212.524 35.894 212.566 35.786 212.662 35.702C212.758 35.618 212.866 35.576 212.986 35.576H214.912C215.02 35.576 215.11 35.6 215.182 35.648C215.266 35.708 215.332 35.804 215.38 35.936C215.44 36.08 215.524 36.23 215.632 36.386C215.74 36.554 215.902 36.692 216.118 36.8C216.346 36.908 216.646 36.962 217.018 36.962C217.438 36.962 217.786 36.902 218.062 36.782C218.338 36.662 218.542 36.458 218.674 36.17C218.818 35.882 218.89 35.492 218.89 35V33.794C218.602 34.106 218.236 34.364 217.792 34.568C217.36 34.772 216.826 34.874 216.19 34.874C215.566 34.874 215.014 34.778 214.534 34.586C214.066 34.382 213.676 34.1 213.364 33.74C213.052 33.368 212.812 32.924 212.644 32.408C212.476 31.892 212.38 31.31 212.356 30.662C212.344 30.338 212.344 30.02 212.356 29.708C212.38 29.084 212.476 28.514 212.644 27.998C212.812 27.482 213.052 27.038 213.364 26.666C213.676 26.282 214.066 25.988 214.534 25.784C215.014 25.568 215.566 25.46 216.19 25.46C216.85 25.46 217.414 25.586 217.882 25.838C218.35 26.09 218.734 26.402 219.034 26.774V26.09C219.034 25.97 219.076 25.868 219.16 25.784C219.244 25.688 219.346 25.64 219.466 25.64H221.23C221.35 25.64 221.452 25.688 221.536 25.784C221.632 25.868 221.68 25.97 221.68 26.09L221.698 34.748C221.698 35.648 221.524 36.41 221.176 37.034C220.828 37.658 220.312 38.132 219.628 38.456C218.956 38.792 218.116 38.96 217.108 38.96ZM217.018 32.768C217.45 32.768 217.798 32.672 218.062 32.48C218.338 32.276 218.542 32.024 218.674 31.724C218.806 31.412 218.878 31.088 218.89 30.752C218.902 30.62 218.908 30.434 218.908 30.194C218.908 29.942 218.902 29.75 218.89 29.618C218.878 29.282 218.806 28.964 218.674 28.664C218.542 28.352 218.338 28.1 218.062 27.908C217.798 27.716 217.45 27.62 217.018 27.62C216.562 27.62 216.202 27.722 215.938 27.926C215.674 28.118 215.482 28.376 215.362 28.7C215.242 29.024 215.17 29.378 215.146 29.762C215.134 30.05 215.134 30.332 215.146 30.608C215.17 31.004 215.242 31.364 215.362 31.688C215.482 32.012 215.674 32.276 215.938 32.48C216.202 32.672 216.562 32.768 217.018 32.768ZM224.598 35C224.478 35 224.376 34.958 224.292 34.874C224.208 34.79 224.166 34.682 224.166 34.55V26.09C224.166 25.958 224.208 25.85 224.292 25.766C224.376 25.682 224.478 25.64 224.598 25.64H226.362C226.494 25.64 226.602 25.682 226.686 25.766C226.77 25.85 226.812 25.958 226.812 26.09V26.792C227.124 26.408 227.526 26.09 228.018 25.838C228.51 25.586 229.11 25.46 229.818 25.46C230.526 25.46 231.144 25.622 231.672 25.946C232.212 26.258 232.632 26.72 232.932 27.332C233.244 27.932 233.4 28.664 233.4 29.528V34.55C233.4 34.682 233.352 34.79 233.256 34.874C233.172 34.958 233.07 35 232.95 35H231.042C230.91 35 230.802 34.958 230.718 34.874C230.634 34.79 230.592 34.682 230.592 34.55V29.636C230.592 29 230.436 28.508 230.124 28.16C229.824 27.8 229.38 27.62 228.792 27.62C228.228 27.62 227.778 27.8 227.442 28.16C227.106 28.508 226.938 29 226.938 29.636V34.55C226.938 34.682 226.896 34.79 226.812 34.874C226.728 34.958 226.626 35 226.506 35H224.598ZM240.361 35C240.241 35 240.139 34.958 240.055 34.874C239.971 34.79 239.929 34.682 239.929 34.55V26.09C239.929 25.958 239.971 25.85 240.055 25.766C240.139 25.682 240.241 25.64 240.361 25.64H242.161C242.293 25.64 242.401 25.682 242.485 25.766C242.569 25.85 242.611 25.958 242.611 26.09V34.55C242.611 34.682 242.569 34.79 242.485 34.874C242.401 34.958 242.293 35 242.161 35H240.361ZM240.307 24.2C240.187 24.2 240.085 24.158 240.001 24.074C239.917 23.99 239.875 23.882 239.875 23.75V22.31C239.875 22.178 239.917 22.07 240.001 21.986C240.085 21.89 240.187 21.842 240.307 21.842H242.197C242.329 21.842 242.437 21.89 242.521 21.986C242.617 22.07 242.665 22.178 242.665 22.31V23.75C242.665 23.882 242.617 23.99 242.521 24.074C242.437 24.158 242.329 24.2 242.197 24.2H240.307ZM245.5 35C245.38 35 245.278 34.958 245.194 34.874C245.11 34.79 245.068 34.682 245.068 34.55V26.09C245.068 25.958 245.11 25.85 245.194 25.766C245.278 25.682 245.38 25.64 245.5 25.64H247.264C247.396 25.64 247.504 25.682 247.588 25.766C247.672 25.85 247.714 25.958 247.714 26.09V26.792C248.026 26.408 248.428 26.09 248.92 25.838C249.412 25.586 250.012 25.46 250.72 25.46C251.428 25.46 252.046 25.622 252.574 25.946C253.114 26.258 253.534 26.72 253.834 27.332C254.146 27.932 254.302 28.664 254.302 29.528V34.55C254.302 34.682 254.254 34.79 254.158 34.874C254.074 34.958 253.972 35 253.852 35H251.944C251.812 35 251.704 34.958 251.62 34.874C251.536 34.79 251.494 34.682 251.494 34.55V29.636C251.494 29 251.338 28.508 251.026 28.16C250.726 27.8 250.282 27.62 249.694 27.62C249.13 27.62 248.68 27.8 248.344 28.16C248.008 28.508 247.84 29 247.84 29.636V34.55C247.84 34.682 247.798 34.79 247.714 34.874C247.63 34.958 247.528 35 247.408 35H245.5Z" fill="white"/>
</g>
</svg>
