<svg width="68" height="68" viewBox="0 0 68 68" fill="none" xmlns="http://www.w3.org/2000/svg">
<g id="plantIcon">
<path id="Union" d="M30.2362 53.0501C31.6717 52.4948 33.4201 52.4739 34.8831 52.9945C36.1789 53.4557 43.3322 56.0012 44.9497 56.5768C45.1648 56.6533 45.393 56.6626 45.6143 56.6066C47.0237 56.2498 48.7403 56.2364 50.1767 56.5709L60.415 58.9553C64.8587 59.9902 63.2159 63.0001 58.2073 63.0001H9.30599C4.38685 63.0001 2.6689 60.0751 6.95132 58.991L16.3706 56.6066C17.78 56.2498 19.4966 56.2364 20.933 56.5709C21.0147 56.5899 21.1002 56.5839 21.1784 56.5537L30.2362 53.0501Z" fill="#F9FCF8" stroke="#348E2B" stroke-width="8.86373"/>
<path id="Intersect" d="M35.3196 34.2735C32.4605 28.3818 33.4602 21.6218 38.8389 16.1264C44.2176 10.6312 52.7413 7.66128 61.4367 7.58997C64.2958 13.4816 63.2961 20.2417 57.9174 25.737C52.5387 31.2322 44.015 34.2021 35.3196 34.2735Z" fill="#70D767" stroke="#70D767" stroke-width="6.44635"/>
<path id="Vector 7" d="M35.6812 30.6835C35.7494 29.5525 36.7952 28.3445 37.7843 27.4158C39.7181 25.6002 42.3134 24.1355 44.5871 22.4904C46.4463 21.1452 48.7716 20.0535 50.6109 18.7126C51.2329 18.2592 52.3102 17.8694 52.74 17.3418" stroke="#348E2B" stroke-width="8.86373" stroke-linecap="round"/>
<path id="Intersect_2" d="M37.2396 37.4929C41.3322 30.5679 40.8882 22.3979 35.0443 15.5171C29.2004 8.63632 19.2972 4.62328 8.86357 4.08193C4.77096 11.0069 5.21492 19.177 11.0589 26.0578C16.9028 32.9385 26.8059 36.9515 37.2396 37.4929Z" fill="#70D767" stroke="#F9FCF8" stroke-width="6.44635"/>
<path id="Vector 4" d="M24.1338 20.9317C24.7348 21.3118 25.1725 21.8313 25.6486 22.2809C27.0299 23.5852 28.4621 24.8859 29.7082 26.2533C30.8389 27.4943 31.8337 28.7638 32.7805 30.0723C34.4538 32.3851 36.2489 35.168 36.1798 37.8007C36.1321 39.6171 36.1111 41.3688 35.6704 43.1701C35.4108 44.231 35.1309 45.2823 34.8273 46.3364C34.6185 47.0609 34.5638 47.8136 34.3067 48.5252C34.2193 48.767 33.779 49.8435 34.0656 50.0164" stroke="#348E2B" stroke-width="8.86373" stroke-linecap="round"/>
<path id="Vector 5" d="M24.2412 20.0347C24.2412 19.4866 24.4597 18.9605 24.6284 18.4287C24.7234 18.1293 24.8029 17.8283 24.9022 17.5294C25.0385 17.119 25.0563 16.6967 25.1897 16.2861C25.3343 15.8408 25.4283 15.3909 25.5925 14.9478C25.6722 14.733 25.7369 14.5153 25.8057 14.2988C25.8326 14.2142 25.8956 14.1237 25.8956 14.0365" stroke="#348E2B" stroke-width="8.86373" stroke-linecap="round"/>
<path id="Vector 6" d="M23.4322 20.6127C22.9175 20.5992 22.4079 20.4178 21.9068 20.3478C21.2759 20.2595 20.6455 20.1572 20.0177 20.0587C19.5573 19.9864 19.1168 19.8531 18.6723 19.7455C18.4343 19.6879 18.1842 19.6522 17.9428 19.601C17.831 19.5772 17.7081 19.5287 17.5889 19.5287" stroke="#348E2B" stroke-width="8.86373" stroke-linecap="round"/>
</g>
</svg>
