<svg width="157" height="54" viewBox="0 0 157 54" fill="none" xmlns="http://www.w3.org/2000/svg">
<path d="M0.5 20C0.5 9.23045 9.23045 0.5 20 0.5H137C147.77 0.5 156.5 9.23045 156.5 20V34C156.5 44.7696 147.77 53.5 137 53.5H20C9.23045 53.5 0.5 44.7696 0.5 34V20Z" fill="white" stroke="#757575"/>
<path d="M43.76 32C43.6427 32 43.552 31.968 43.488 31.904C43.424 31.8293 43.392 31.7387 43.392 31.632V21.184C43.392 21.0667 43.424 20.976 43.488 20.912C43.552 20.8373 43.6427 20.8 43.76 20.8H47.664C48.8693 20.8 49.824 21.0827 50.528 21.648C51.232 22.2133 51.584 23.0507 51.584 24.16C51.584 24.9813 51.376 25.6533 50.96 26.176C50.5547 26.688 50 27.0453 49.296 27.248L51.76 31.504C51.792 31.568 51.808 31.6267 51.808 31.68C51.808 31.7653 51.7707 31.84 51.696 31.904C51.632 31.968 51.5573 32 51.472 32H50.704C50.5227 32 50.3893 31.952 50.304 31.856C50.2187 31.76 50.144 31.664 50.08 31.568L47.76 27.504H44.96V31.632C44.96 31.7387 44.9227 31.8293 44.848 31.904C44.784 31.968 44.6933 32 44.576 32H43.76ZM44.96 26.144H47.6C48.4 26.144 48.9973 25.9787 49.392 25.648C49.7867 25.3067 49.984 24.8053 49.984 24.144C49.984 23.4933 49.7867 22.9973 49.392 22.656C49.008 22.3147 48.4107 22.144 47.6 22.144H44.96V26.144ZM57.0866 32.16C55.988 32.16 55.1133 31.824 54.4626 31.152C53.812 30.4693 53.4546 29.5413 53.3906 28.368C53.38 28.2293 53.3746 28.0533 53.3746 27.84C53.3746 27.616 53.38 27.4347 53.3906 27.296C53.4333 26.5387 53.6093 25.8773 53.9186 25.312C54.228 24.736 54.6493 24.2933 55.1826 23.984C55.7266 23.6747 56.3613 23.52 57.0866 23.52C57.8973 23.52 58.5746 23.6907 59.1186 24.032C59.6733 24.3733 60.0946 24.8587 60.3826 25.488C60.6706 26.1173 60.8146 26.8533 60.8146 27.696V27.968C60.8146 28.0853 60.7773 28.176 60.7026 28.24C60.6386 28.304 60.5533 28.336 60.4466 28.336H54.9106C54.9106 28.3467 54.9106 28.368 54.9106 28.4C54.9106 28.432 54.9106 28.4587 54.9106 28.48C54.932 28.9173 55.028 29.328 55.1986 29.712C55.3693 30.0853 55.6146 30.3893 55.9346 30.624C56.2546 30.8587 56.6386 30.976 57.0866 30.976C57.4706 30.976 57.7906 30.9173 58.0466 30.8C58.3026 30.6827 58.5106 30.5547 58.6706 30.416C58.8306 30.2667 58.9373 30.1547 58.9906 30.08C59.0866 29.9413 59.1613 29.8613 59.2146 29.84C59.268 29.808 59.3533 29.792 59.4706 29.792H60.2386C60.3453 29.792 60.4306 29.824 60.4946 29.888C60.5693 29.9413 60.6013 30.0213 60.5906 30.128C60.58 30.288 60.4946 30.4853 60.3346 30.72C60.1746 30.944 59.9453 31.168 59.6466 31.392C59.348 31.616 58.9853 31.8027 58.5586 31.952C58.132 32.0907 57.6413 32.16 57.0866 32.16ZM54.9106 27.232H59.2946V27.184C59.2946 26.704 59.204 26.2773 59.0226 25.904C58.852 25.5307 58.6013 25.2373 58.2706 25.024C57.94 24.8 57.5453 24.688 57.0866 24.688C56.628 24.688 56.2333 24.8 55.9026 25.024C55.5826 25.2373 55.3373 25.5307 55.1666 25.904C54.996 26.2773 54.9106 26.704 54.9106 27.184V27.232ZM66.2877 32.16C65.5304 32.16 64.8744 32.016 64.3197 31.728C63.7757 31.4293 63.3544 31.008 63.0557 30.464C62.7571 29.9093 62.5971 29.248 62.5757 28.48C62.5651 28.32 62.5597 28.1067 62.5597 27.84C62.5597 27.5733 62.5651 27.36 62.5757 27.2C62.5971 26.432 62.7571 25.776 63.0557 25.232C63.3544 24.6773 63.7757 24.256 64.3197 23.968C64.8744 23.6693 65.5304 23.52 66.2877 23.52C66.9064 23.52 67.4344 23.6053 67.8717 23.776C68.3197 23.9467 68.6877 24.1653 68.9757 24.432C69.2638 24.6987 69.4771 24.9867 69.6157 25.296C69.7651 25.6053 69.8451 25.8987 69.8558 26.176C69.8664 26.2827 69.8344 26.368 69.7598 26.432C69.6851 26.496 69.5944 26.528 69.4878 26.528H68.7197C68.6131 26.528 68.5331 26.5067 68.4798 26.464C68.4264 26.4107 68.3731 26.3253 68.3197 26.208C68.1277 25.6853 67.8664 25.3173 67.5357 25.104C67.2051 24.8907 66.7944 24.784 66.3038 24.784C65.6637 24.784 65.1411 24.9813 64.7357 25.376C64.3411 25.7707 64.1277 26.4053 64.0957 27.28C64.0851 27.664 64.0851 28.0373 64.0957 28.4C64.1277 29.2853 64.3411 29.9253 64.7357 30.32C65.1411 30.704 65.6637 30.896 66.3038 30.896C66.7944 30.896 67.2051 30.7893 67.5357 30.576C67.8664 30.3627 68.1277 29.9947 68.3197 29.472C68.3731 29.3547 68.4264 29.2747 68.4798 29.232C68.5331 29.1787 68.6131 29.152 68.7197 29.152H69.4878C69.5944 29.152 69.6851 29.184 69.7598 29.248C69.8344 29.312 69.8664 29.3973 69.8558 29.504C69.8451 29.728 69.7971 29.9573 69.7118 30.192C69.6264 30.4267 69.4877 30.6667 69.2958 30.912C69.1144 31.1467 68.8851 31.36 68.6077 31.552C68.3304 31.7333 67.9944 31.8827 67.5998 32C67.2157 32.1067 66.7784 32.16 66.2877 32.16ZM73.1775 35.04C73.0922 35.04 73.0175 35.008 72.9535 34.944C72.8895 34.88 72.8575 34.8053 72.8575 34.72C72.8575 34.6773 72.8628 34.6347 72.8735 34.592C72.8842 34.5493 72.9055 34.496 72.9375 34.432L74.1695 31.504L71.1135 24.288C71.0602 24.16 71.0335 24.0693 71.0335 24.016C71.0335 23.92 71.0655 23.84 71.1295 23.776C71.1935 23.712 71.2735 23.68 71.3695 23.68H72.1535C72.2602 23.68 72.3455 23.7067 72.4095 23.76C72.4735 23.8133 72.5162 23.8773 72.5375 23.952L74.9695 29.776L77.4655 23.952C77.4975 23.8773 77.5402 23.8133 77.5935 23.76C77.6575 23.7067 77.7482 23.68 77.8655 23.68H78.6175C78.7135 23.68 78.7935 23.712 78.8575 23.776C78.9215 23.84 78.9535 23.9147 78.9535 24C78.9535 24.0533 78.9268 24.1493 78.8735 24.288L74.3295 34.768C74.2975 34.8427 74.2495 34.9067 74.1855 34.96C74.1322 35.0133 74.0468 35.04 73.9295 35.04H73.1775ZM83.8127 32.16C83.0554 32.16 82.3994 32.016 81.8447 31.728C81.3007 31.4293 80.8794 31.008 80.5807 30.464C80.2821 29.9093 80.1221 29.248 80.1007 28.48C80.0901 28.32 80.0847 28.1067 80.0847 27.84C80.0847 27.5733 80.0901 27.36 80.1007 27.2C80.1221 26.432 80.2821 25.776 80.5807 25.232C80.8794 24.6773 81.3007 24.256 81.8447 23.968C82.3994 23.6693 83.0554 23.52 83.8127 23.52C84.4314 23.52 84.9594 23.6053 85.3967 23.776C85.8447 23.9467 86.2127 24.1653 86.5007 24.432C86.7887 24.6987 87.0021 24.9867 87.1407 25.296C87.2901 25.6053 87.3701 25.8987 87.3807 26.176C87.3914 26.2827 87.3594 26.368 87.2847 26.432C87.2101 26.496 87.1194 26.528 87.0127 26.528H86.2447C86.1381 26.528 86.0581 26.5067 86.0047 26.464C85.9514 26.4107 85.8981 26.3253 85.8447 26.208C85.6527 25.6853 85.3914 25.3173 85.0607 25.104C84.7301 24.8907 84.3194 24.784 83.8287 24.784C83.1887 24.784 82.6661 24.9813 82.2607 25.376C81.8661 25.7707 81.6527 26.4053 81.6207 27.28C81.6101 27.664 81.6101 28.0373 81.6207 28.4C81.6527 29.2853 81.8661 29.9253 82.2607 30.32C82.6661 30.704 83.1887 30.896 83.8287 30.896C84.3194 30.896 84.7301 30.7893 85.0607 30.576C85.3914 30.3627 85.6527 29.9947 85.8447 29.472C85.8981 29.3547 85.9514 29.2747 86.0047 29.232C86.0581 29.1787 86.1381 29.152 86.2447 29.152H87.0127C87.1194 29.152 87.2101 29.184 87.2847 29.248C87.3594 29.312 87.3914 29.3973 87.3807 29.504C87.3701 29.728 87.3221 29.9573 87.2367 30.192C87.1514 30.4267 87.0127 30.6667 86.8207 30.912C86.6394 31.1467 86.4101 31.36 86.1327 31.552C85.8554 31.7333 85.5194 31.8827 85.1247 32C84.7407 32.1067 84.3034 32.16 83.8127 32.16ZM89.8649 32C89.7582 32 89.6675 31.968 89.5929 31.904C89.5289 31.8293 89.4969 31.7387 89.4969 31.632V21.008C89.4969 20.9013 89.5289 20.816 89.5929 20.752C89.6675 20.6773 89.7582 20.64 89.8649 20.64H90.6169C90.7342 20.64 90.8249 20.6773 90.8889 20.752C90.9529 20.816 90.9849 20.9013 90.9849 21.008V31.632C90.9849 31.7387 90.9529 31.8293 90.8889 31.904C90.8249 31.968 90.7342 32 90.6169 32H89.8649ZM93.9395 32C93.8328 32 93.7422 31.968 93.6675 31.904C93.6035 31.8293 93.5715 31.7387 93.5715 31.632V24.048C93.5715 23.9413 93.6035 23.856 93.6675 23.792C93.7422 23.7173 93.8328 23.68 93.9395 23.68H94.7075C94.8142 23.68 94.8995 23.7173 94.9635 23.792C95.0275 23.856 95.0595 23.9413 95.0595 24.048V31.632C95.0595 31.7387 95.0275 31.8293 94.9635 31.904C94.8995 31.968 94.8142 32 94.7075 32H93.9395ZM93.8115 22.128C93.7048 22.128 93.6142 22.096 93.5395 22.032C93.4755 21.9573 93.4435 21.8667 93.4435 21.76V20.896C93.4435 20.7893 93.4755 20.704 93.5395 20.64C93.6142 20.5653 93.7048 20.528 93.8115 20.528H94.8195C94.9262 20.528 95.0115 20.5653 95.0755 20.64C95.1502 20.704 95.1875 20.7893 95.1875 20.896V21.76C95.1875 21.8667 95.1502 21.9573 95.0755 22.032C95.0115 22.096 94.9262 22.128 94.8195 22.128H93.8115ZM98.0145 32C97.9078 32 97.8172 31.968 97.7425 31.904C97.6785 31.8293 97.6465 31.7387 97.6465 31.632V24.048C97.6465 23.9413 97.6785 23.856 97.7425 23.792C97.8172 23.7173 97.9078 23.68 98.0145 23.68H98.7665C98.8732 23.68 98.9585 23.7173 99.0225 23.792C99.0972 23.856 99.1345 23.9413 99.1345 24.048V24.752C99.4118 24.3893 99.7585 24.096 100.175 23.872C100.601 23.6373 101.145 23.52 101.807 23.52C102.5 23.52 103.087 23.6747 103.567 23.984C104.057 24.2827 104.425 24.704 104.671 25.248C104.916 25.7813 105.039 26.4053 105.039 27.12V31.632C105.039 31.7387 105.007 31.8293 104.943 31.904C104.879 31.968 104.793 32 104.687 32H103.887C103.78 32 103.689 31.968 103.615 31.904C103.551 31.8293 103.519 31.7387 103.519 31.632V27.2C103.519 26.4533 103.337 25.872 102.975 25.456C102.612 25.0293 102.079 24.816 101.375 24.816C100.713 24.816 100.18 25.0293 99.7745 25.456C99.3798 25.872 99.1825 26.4533 99.1825 27.2V31.632C99.1825 31.7387 99.1452 31.8293 99.0705 31.904C99.0065 31.968 98.9212 32 98.8145 32H98.0145ZM110.958 35.52C110.232 35.52 109.635 35.424 109.166 35.232C108.707 35.04 108.344 34.8053 108.078 34.528C107.822 34.2613 107.635 33.9893 107.518 33.712C107.411 33.4453 107.352 33.232 107.342 33.072C107.331 32.9653 107.363 32.8747 107.438 32.8C107.523 32.7253 107.614 32.688 107.71 32.688H108.478C108.574 32.688 108.654 32.7093 108.718 32.752C108.782 32.7947 108.835 32.8853 108.878 33.024C108.942 33.184 109.038 33.36 109.166 33.552C109.294 33.7547 109.491 33.9253 109.758 34.064C110.024 34.2133 110.398 34.288 110.878 34.288C111.379 34.288 111.8 34.2187 112.142 34.08C112.483 33.952 112.739 33.7173 112.91 33.376C113.091 33.0453 113.182 32.5867 113.182 32V30.912C112.926 31.2427 112.59 31.52 112.174 31.744C111.758 31.9573 111.235 32.064 110.606 32.064C110.008 32.064 109.496 31.9627 109.07 31.76C108.643 31.5467 108.291 31.264 108.014 30.912C107.747 30.5493 107.544 30.1387 107.406 29.68C107.278 29.2213 107.203 28.7413 107.182 28.24C107.171 27.9413 107.171 27.648 107.182 27.36C107.203 26.8587 107.278 26.3787 107.406 25.92C107.544 25.4613 107.747 25.0507 108.014 24.688C108.291 24.3253 108.643 24.0427 109.07 23.84C109.496 23.6267 110.008 23.52 110.606 23.52C111.246 23.52 111.774 23.6427 112.19 23.888C112.616 24.1227 112.963 24.4107 113.23 24.752V24.064C113.23 23.9573 113.262 23.8667 113.326 23.792C113.4 23.7173 113.491 23.68 113.598 23.68H114.334C114.44 23.68 114.531 23.7173 114.606 23.792C114.68 23.8667 114.718 23.9573 114.718 24.064V31.824C114.718 32.5387 114.595 33.1733 114.35 33.728C114.115 34.2827 113.72 34.72 113.166 35.04C112.622 35.36 111.886 35.52 110.958 35.52ZM110.926 30.784C111.459 30.784 111.886 30.6613 112.206 30.416C112.536 30.1707 112.776 29.8613 112.926 29.488C113.086 29.1147 113.171 28.736 113.182 28.352C113.192 28.2027 113.198 28.0213 113.198 27.808C113.198 27.584 113.192 27.3973 113.182 27.248C113.171 26.864 113.086 26.4853 112.926 26.112C112.776 25.7387 112.536 25.4293 112.206 25.184C111.886 24.9387 111.459 24.816 110.926 24.816C110.392 24.816 109.966 24.9387 109.646 25.184C109.326 25.4187 109.096 25.7333 108.958 26.128C108.819 26.512 108.739 26.928 108.718 27.376C108.707 27.6533 108.707 27.936 108.718 28.224C108.739 28.672 108.819 29.0933 108.958 29.488C109.096 29.872 109.326 30.1867 109.646 30.432C109.966 30.6667 110.392 30.784 110.926 30.784Z" fill="black"/>
</svg>
