<svg width="157" height="54" viewBox="0 0 157 54" fill="none" xmlns="http://www.w3.org/2000/svg">
<path d="M0.5 20C0.5 9.23045 9.23045 0.5 20 0.5H137C147.77 0.5 156.5 9.23045 156.5 20V34C156.5 44.7696 147.77 53.5 137 53.5H20C9.23045 53.5 0.5 44.7696 0.5 34V20Z" fill="white" stroke="#757575"/>
<path d="M42.76 32C42.6427 32 42.552 31.968 42.488 31.904C42.424 31.8293 42.392 31.7387 42.392 31.632V21.184C42.392 21.0667 42.424 20.976 42.488 20.912C42.552 20.8373 42.6427 20.8 42.76 20.8H46.664C47.8693 20.8 48.824 21.0827 49.528 21.648C50.232 22.2133 50.584 23.0507 50.584 24.16C50.584 24.9813 50.376 25.6533 49.96 26.176C49.5547 26.688 49 27.0453 48.296 27.248L50.76 31.504C50.792 31.568 50.808 31.6267 50.808 31.68C50.808 31.7653 50.7707 31.84 50.696 31.904C50.632 31.968 50.5573 32 50.472 32H49.704C49.5227 32 49.3893 31.952 49.304 31.856C49.2187 31.76 49.144 31.664 49.08 31.568L46.76 27.504H43.96V31.632C43.96 31.7387 43.9227 31.8293 43.848 31.904C43.784 31.968 43.6933 32 43.576 32H42.76ZM43.96 26.144H46.6C47.4 26.144 47.9973 25.9787 48.392 25.648C48.7867 25.3067 48.984 24.8053 48.984 24.144C48.984 23.4933 48.7867 22.9973 48.392 22.656C48.008 22.3147 47.4107 22.144 46.6 22.144H43.96V26.144ZM56.0866 32.16C54.988 32.16 54.1133 31.824 53.4626 31.152C52.812 30.4693 52.4546 29.5413 52.3906 28.368C52.38 28.2293 52.3746 28.0533 52.3746 27.84C52.3746 27.616 52.38 27.4347 52.3906 27.296C52.4333 26.5387 52.6093 25.8773 52.9186 25.312C53.228 24.736 53.6493 24.2933 54.1826 23.984C54.7266 23.6747 55.3613 23.52 56.0866 23.52C56.8973 23.52 57.5746 23.6907 58.1186 24.032C58.6733 24.3733 59.0946 24.8587 59.3826 25.488C59.6706 26.1173 59.8146 26.8533 59.8146 27.696V27.968C59.8146 28.0853 59.7773 28.176 59.7026 28.24C59.6386 28.304 59.5533 28.336 59.4466 28.336H53.9106C53.9106 28.3467 53.9106 28.368 53.9106 28.4C53.9106 28.432 53.9106 28.4587 53.9106 28.48C53.932 28.9173 54.028 29.328 54.1986 29.712C54.3693 30.0853 54.6146 30.3893 54.9346 30.624C55.2546 30.8587 55.6386 30.976 56.0866 30.976C56.4706 30.976 56.7906 30.9173 57.0466 30.8C57.3026 30.6827 57.5106 30.5547 57.6706 30.416C57.8306 30.2667 57.9373 30.1547 57.9906 30.08C58.0866 29.9413 58.1613 29.8613 58.2146 29.84C58.268 29.808 58.3533 29.792 58.4706 29.792H59.2386C59.3453 29.792 59.4306 29.824 59.4946 29.888C59.5693 29.9413 59.6013 30.0213 59.5906 30.128C59.58 30.288 59.4946 30.4853 59.3346 30.72C59.1746 30.944 58.9453 31.168 58.6466 31.392C58.348 31.616 57.9853 31.8027 57.5586 31.952C57.132 32.0907 56.6413 32.16 56.0866 32.16ZM53.9106 27.232H58.2946V27.184C58.2946 26.704 58.204 26.2773 58.0226 25.904C57.852 25.5307 57.6013 25.2373 57.2706 25.024C56.94 24.8 56.5453 24.688 56.0866 24.688C55.628 24.688 55.2333 24.8 54.9026 25.024C54.5826 25.2373 54.3373 25.5307 54.1666 25.904C53.996 26.2773 53.9106 26.704 53.9106 27.184V27.232ZM65.1289 32C64.5315 32 64.0462 31.888 63.6729 31.664C63.2995 31.4293 63.0275 31.104 62.8569 30.688C62.6862 30.2613 62.6009 29.76 62.6009 29.184V24.96H61.3529C61.2462 24.96 61.1555 24.928 61.0809 24.864C61.0169 24.7893 60.9849 24.6987 60.9849 24.592V24.048C60.9849 23.9413 61.0169 23.856 61.0809 23.792C61.1555 23.7173 61.2462 23.68 61.3529 23.68H62.6009V21.008C62.6009 20.9013 62.6329 20.816 62.6969 20.752C62.7715 20.6773 62.8622 20.64 62.9689 20.64H63.7209C63.8275 20.64 63.9129 20.6773 63.9769 20.752C64.0515 20.816 64.0889 20.9013 64.0889 21.008V23.68H66.0729C66.1795 23.68 66.2649 23.7173 66.3289 23.792C66.4035 23.856 66.4409 23.9413 66.4409 24.048V24.592C66.4409 24.6987 66.4035 24.7893 66.3289 24.864C66.2649 24.928 66.1795 24.96 66.0729 24.96H64.0889V29.072C64.0889 29.5733 64.1742 29.968 64.3449 30.256C64.5155 30.544 64.8195 30.688 65.2569 30.688H66.2329C66.3395 30.688 66.4249 30.7253 66.4889 30.8C66.5635 30.864 66.6009 30.9493 66.6009 31.056V31.632C66.6009 31.7387 66.5635 31.8293 66.4889 31.904C66.4249 31.968 66.3395 32 66.2329 32H65.1289ZM71.4349 32.16C70.7522 32.16 70.1709 32.0107 69.6909 31.712C69.2215 31.4027 68.8642 30.976 68.6189 30.432C68.3735 29.888 68.2509 29.264 68.2509 28.56V24.048C68.2509 23.9413 68.2829 23.856 68.3469 23.792C68.4215 23.7173 68.5122 23.68 68.6189 23.68H69.4189C69.5255 23.68 69.6109 23.7173 69.6749 23.792C69.7495 23.856 69.7869 23.9413 69.7869 24.048V28.48C69.7869 30.0693 70.4802 30.864 71.8669 30.864C72.5282 30.864 73.0562 30.656 73.4509 30.24C73.8562 29.8133 74.0589 29.2267 74.0589 28.48V24.048C74.0589 23.9413 74.0909 23.856 74.1549 23.792C74.2295 23.7173 74.3202 23.68 74.4269 23.68H75.2109C75.3282 23.68 75.4189 23.7173 75.4829 23.792C75.5469 23.856 75.5789 23.9413 75.5789 24.048V31.632C75.5789 31.7387 75.5469 31.8293 75.4829 31.904C75.4189 31.968 75.3282 32 75.2109 32H74.4749C74.3682 32 74.2775 31.968 74.2029 31.904C74.1389 31.8293 74.1069 31.7387 74.1069 31.632V30.928C73.8189 31.3013 73.4669 31.6 73.0509 31.824C72.6455 32.048 72.1069 32.16 71.4349 32.16ZM78.5239 32C78.4172 32 78.3265 31.968 78.2519 31.904C78.1879 31.8293 78.1559 31.7387 78.1559 31.632V24.064C78.1559 23.9573 78.1879 23.8667 78.2519 23.792C78.3265 23.7173 78.4172 23.68 78.5239 23.68H79.2599C79.3665 23.68 79.4572 23.7173 79.5319 23.792C79.6065 23.8667 79.6439 23.9573 79.6439 24.064V24.768C79.8572 24.4053 80.1505 24.1333 80.5239 23.952C80.8972 23.7707 81.3452 23.68 81.8679 23.68H82.5079C82.6145 23.68 82.6999 23.7173 82.7639 23.792C82.8279 23.856 82.8599 23.9413 82.8599 24.048V24.704C82.8599 24.8107 82.8279 24.896 82.7639 24.96C82.6999 25.024 82.6145 25.056 82.5079 25.056H81.5479C80.9719 25.056 80.5185 25.2267 80.1879 25.568C79.8572 25.8987 79.6919 26.352 79.6919 26.928V31.632C79.6919 31.7387 79.6545 31.8293 79.5799 31.904C79.5052 31.968 79.4145 32 79.3079 32H78.5239ZM84.802 32C84.6953 32 84.6047 31.968 84.53 31.904C84.466 31.8293 84.434 31.7387 84.434 31.632V24.048C84.434 23.9413 84.466 23.856 84.53 23.792C84.6047 23.7173 84.6953 23.68 84.802 23.68H85.554C85.6607 23.68 85.746 23.7173 85.81 23.792C85.8847 23.856 85.922 23.9413 85.922 24.048V24.752C86.1993 24.3893 86.546 24.096 86.962 23.872C87.3887 23.6373 87.9327 23.52 88.594 23.52C89.2873 23.52 89.874 23.6747 90.354 23.984C90.8447 24.2827 91.2127 24.704 91.458 25.248C91.7033 25.7813 91.826 26.4053 91.826 27.12V31.632C91.826 31.7387 91.794 31.8293 91.73 31.904C91.666 31.968 91.5807 32 91.474 32H90.674C90.5673 32 90.4767 31.968 90.402 31.904C90.338 31.8293 90.306 31.7387 90.306 31.632V27.2C90.306 26.4533 90.1247 25.872 89.762 25.456C89.3993 25.0293 88.866 24.816 88.162 24.816C87.5007 24.816 86.9673 25.0293 86.562 25.456C86.1673 25.872 85.97 26.4533 85.97 27.2V31.632C85.97 31.7387 85.9327 31.8293 85.858 31.904C85.794 31.968 85.7087 32 85.602 32H84.802ZM94.7051 32C94.5985 32 94.5078 31.968 94.4331 31.904C94.3691 31.8293 94.3371 31.7387 94.3371 31.632V24.048C94.3371 23.9413 94.3691 23.856 94.4331 23.792C94.5078 23.7173 94.5985 23.68 94.7051 23.68H95.4731C95.5798 23.68 95.6651 23.7173 95.7291 23.792C95.7931 23.856 95.8251 23.9413 95.8251 24.048V31.632C95.8251 31.7387 95.7931 31.8293 95.7291 31.904C95.6651 31.968 95.5798 32 95.4731 32H94.7051ZM94.5771 22.128C94.4705 22.128 94.3798 22.096 94.3051 22.032C94.2411 21.9573 94.2091 21.8667 94.2091 21.76V20.896C94.2091 20.7893 94.2411 20.704 94.3051 20.64C94.3798 20.5653 94.4705 20.528 94.5771 20.528H95.5851C95.6918 20.528 95.7771 20.5653 95.8411 20.64C95.9158 20.704 95.9531 20.7893 95.9531 20.896V21.76C95.9531 21.8667 95.9158 21.9573 95.8411 22.032C95.7771 22.096 95.6918 22.128 95.5851 22.128H94.5771ZM98.7801 32C98.6735 32 98.5828 31.968 98.5081 31.904C98.4441 31.8293 98.4121 31.7387 98.4121 31.632V24.048C98.4121 23.9413 98.4441 23.856 98.5081 23.792C98.5828 23.7173 98.6735 23.68 98.7801 23.68H99.5321C99.6388 23.68 99.7241 23.7173 99.7881 23.792C99.8628 23.856 99.9001 23.9413 99.9001 24.048V24.752C100.177 24.3893 100.524 24.096 100.94 23.872C101.367 23.6373 101.911 23.52 102.572 23.52C103.265 23.52 103.852 23.6747 104.332 23.984C104.823 24.2827 105.191 24.704 105.436 25.248C105.681 25.7813 105.804 26.4053 105.804 27.12V31.632C105.804 31.7387 105.772 31.8293 105.708 31.904C105.644 31.968 105.559 32 105.452 32H104.652C104.545 32 104.455 31.968 104.38 31.904C104.316 31.8293 104.284 31.7387 104.284 31.632V27.2C104.284 26.4533 104.103 25.872 103.74 25.456C103.377 25.0293 102.844 24.816 102.14 24.816C101.479 24.816 100.945 25.0293 100.54 25.456C100.145 25.872 99.9481 26.4533 99.9481 27.2V31.632C99.9481 31.7387 99.9108 31.8293 99.8361 31.904C99.7721 31.968 99.6868 32 99.5801 32H98.7801ZM111.723 35.52C110.998 35.52 110.401 35.424 109.931 35.232C109.473 35.04 109.11 34.8053 108.843 34.528C108.587 34.2613 108.401 33.9893 108.283 33.712C108.177 33.4453 108.118 33.232 108.107 33.072C108.097 32.9653 108.129 32.8747 108.203 32.8C108.289 32.7253 108.379 32.688 108.475 32.688H109.243C109.339 32.688 109.419 32.7093 109.483 32.752C109.547 32.7947 109.601 32.8853 109.643 33.024C109.707 33.184 109.803 33.36 109.931 33.552C110.059 33.7547 110.257 33.9253 110.523 34.064C110.79 34.2133 111.163 34.288 111.643 34.288C112.145 34.288 112.566 34.2187 112.907 34.08C113.249 33.952 113.505 33.7173 113.675 33.376C113.857 33.0453 113.947 32.5867 113.947 32V30.912C113.691 31.2427 113.355 31.52 112.939 31.744C112.523 31.9573 112.001 32.064 111.371 32.064C110.774 32.064 110.262 31.9627 109.835 31.76C109.409 31.5467 109.057 31.264 108.779 30.912C108.513 30.5493 108.31 30.1387 108.171 29.68C108.043 29.2213 107.969 28.7413 107.947 28.24C107.937 27.9413 107.937 27.648 107.947 27.36C107.969 26.8587 108.043 26.3787 108.171 25.92C108.31 25.4613 108.513 25.0507 108.779 24.688C109.057 24.3253 109.409 24.0427 109.835 23.84C110.262 23.6267 110.774 23.52 111.371 23.52C112.011 23.52 112.539 23.6427 112.955 23.888C113.382 24.1227 113.729 24.4107 113.995 24.752V24.064C113.995 23.9573 114.027 23.8667 114.091 23.792C114.166 23.7173 114.257 23.68 114.363 23.68H115.099C115.206 23.68 115.297 23.7173 115.371 23.792C115.446 23.8667 115.483 23.9573 115.483 24.064V31.824C115.483 32.5387 115.361 33.1733 115.115 33.728C114.881 34.2827 114.486 34.72 113.931 35.04C113.387 35.36 112.651 35.52 111.723 35.52ZM111.691 30.784C112.225 30.784 112.651 30.6613 112.971 30.416C113.302 30.1707 113.542 29.8613 113.691 29.488C113.851 29.1147 113.937 28.736 113.947 28.352C113.958 28.2027 113.963 28.0213 113.963 27.808C113.963 27.584 113.958 27.3973 113.947 27.248C113.937 26.864 113.851 26.4853 113.691 26.112C113.542 25.7387 113.302 25.4293 112.971 25.184C112.651 24.9387 112.225 24.816 111.691 24.816C111.158 24.816 110.731 24.9387 110.411 25.184C110.091 25.4187 109.862 25.7333 109.723 26.128C109.585 26.512 109.505 26.928 109.483 27.376C109.473 27.6533 109.473 27.936 109.483 28.224C109.505 28.672 109.585 29.0933 109.723 29.488C109.862 29.872 110.091 30.1867 110.411 30.432C110.731 30.6667 111.158 30.784 111.691 30.784Z" fill="black"/>
</svg>
