<svg width="450" height="58" viewBox="0 0 450 58" fill="none" xmlns="http://www.w3.org/2000/svg">
<g id="signUpButton">
<path d="M0 26.1C0 17.1392 0 12.6587 1.7439 9.23615C3.27787 6.22556 5.72556 3.77787 8.73615 2.2439C12.1587 0.5 16.6392 0.5 25.6 0.5H424.4C433.361 0.5 437.841 0.5 441.264 2.2439C444.274 3.77787 446.722 6.22556 448.256 9.23615C450 12.6587 450 17.1392 450 26.1V31.9C450 40.8608 450 45.3413 448.256 48.7638C446.722 51.7744 444.274 54.2221 441.264 55.7561C437.841 57.5 433.361 57.5 424.4 57.5H25.6C16.6392 57.5 12.1587 57.5 8.73615 55.7561C5.72556 54.2221 3.27787 51.7744 1.7439 48.7638C0 45.3413 0 40.8608 0 31.9V26.1Z" fill="#00A900"/>
<path id="signUpText" d="M196.868 35.68C195.716 35.68 194.75 35.512 193.97 35.176C193.202 34.84 192.62 34.402 192.224 33.862C191.828 33.322 191.618 32.746 191.594 32.134C191.594 32.038 191.63 31.954 191.702 31.882C191.774 31.798 191.864 31.756 191.972 31.756H193.898C194.054 31.756 194.174 31.792 194.258 31.864C194.342 31.924 194.42 32.002 194.492 32.098C194.576 32.302 194.708 32.5 194.888 32.692C195.08 32.884 195.338 33.046 195.662 33.178C195.986 33.298 196.388 33.358 196.868 33.358C197.648 33.358 198.23 33.232 198.614 32.98C199.01 32.728 199.208 32.386 199.208 31.954C199.208 31.642 199.1 31.39 198.884 31.198C198.68 31.006 198.35 30.832 197.894 30.676C197.45 30.52 196.856 30.352 196.112 30.172C195.212 29.98 194.444 29.734 193.808 29.434C193.184 29.122 192.71 28.726 192.386 28.246C192.074 27.754 191.918 27.148 191.918 26.428C191.918 25.708 192.116 25.072 192.512 24.52C192.908 23.956 193.466 23.518 194.186 23.206C194.906 22.882 195.764 22.72 196.76 22.72C197.564 22.72 198.272 22.828 198.884 23.044C199.508 23.26 200.024 23.542 200.432 23.89C200.852 24.238 201.17 24.61 201.386 25.006C201.602 25.402 201.716 25.786 201.728 26.158C201.728 26.254 201.692 26.344 201.62 26.428C201.548 26.5 201.458 26.536 201.35 26.536H199.334C199.214 26.536 199.106 26.512 199.01 26.464C198.914 26.416 198.836 26.332 198.776 26.212C198.704 25.9 198.488 25.63 198.128 25.402C197.78 25.162 197.324 25.042 196.76 25.042C196.172 25.042 195.704 25.15 195.356 25.366C195.02 25.582 194.852 25.912 194.852 26.356C194.852 26.644 194.936 26.89 195.104 27.094C195.284 27.286 195.578 27.46 195.986 27.616C196.406 27.76 196.958 27.922 197.642 28.102C198.698 28.318 199.556 28.576 200.216 28.876C200.876 29.176 201.362 29.566 201.674 30.046C201.986 30.514 202.142 31.108 202.142 31.828C202.142 32.632 201.914 33.322 201.458 33.898C201.014 34.474 200.396 34.918 199.604 35.23C198.824 35.53 197.912 35.68 196.868 35.68ZM204.508 35.5C204.388 35.5 204.286 35.458 204.202 35.374C204.118 35.29 204.076 35.182 204.076 35.05V26.59C204.076 26.458 204.118 26.35 204.202 26.266C204.286 26.182 204.388 26.14 204.508 26.14H206.308C206.44 26.14 206.548 26.182 206.632 26.266C206.716 26.35 206.758 26.458 206.758 26.59V35.05C206.758 35.182 206.716 35.29 206.632 35.374C206.548 35.458 206.44 35.5 206.308 35.5H204.508ZM204.454 24.7C204.334 24.7 204.232 24.658 204.148 24.574C204.064 24.49 204.022 24.382 204.022 24.25V22.81C204.022 22.678 204.064 22.57 204.148 22.486C204.232 22.39 204.334 22.342 204.454 22.342H206.344C206.476 22.342 206.584 22.39 206.668 22.486C206.764 22.57 206.812 22.678 206.812 22.81V24.25C206.812 24.382 206.764 24.49 206.668 24.574C206.584 24.658 206.476 24.7 206.344 24.7H204.454ZM213.608 39.46C212.72 39.46 211.982 39.34 211.394 39.1C210.806 38.872 210.338 38.59 209.99 38.254C209.654 37.93 209.414 37.606 209.27 37.282C209.126 36.958 209.048 36.706 209.036 36.526C209.024 36.394 209.066 36.286 209.162 36.202C209.258 36.118 209.366 36.076 209.486 36.076H211.412C211.52 36.076 211.61 36.1 211.682 36.148C211.766 36.208 211.832 36.304 211.88 36.436C211.94 36.58 212.024 36.73 212.132 36.886C212.24 37.054 212.402 37.192 212.618 37.3C212.846 37.408 213.146 37.462 213.518 37.462C213.938 37.462 214.286 37.402 214.562 37.282C214.838 37.162 215.042 36.958 215.174 36.67C215.318 36.382 215.39 35.992 215.39 35.5V34.294C215.102 34.606 214.736 34.864 214.292 35.068C213.86 35.272 213.326 35.374 212.69 35.374C212.066 35.374 211.514 35.278 211.034 35.086C210.566 34.882 210.176 34.6 209.864 34.24C209.552 33.868 209.312 33.424 209.144 32.908C208.976 32.392 208.88 31.81 208.856 31.162C208.844 30.838 208.844 30.52 208.856 30.208C208.88 29.584 208.976 29.014 209.144 28.498C209.312 27.982 209.552 27.538 209.864 27.166C210.176 26.782 210.566 26.488 211.034 26.284C211.514 26.068 212.066 25.96 212.69 25.96C213.35 25.96 213.914 26.086 214.382 26.338C214.85 26.59 215.234 26.902 215.534 27.274V26.59C215.534 26.47 215.576 26.368 215.66 26.284C215.744 26.188 215.846 26.14 215.966 26.14H217.73C217.85 26.14 217.952 26.188 218.036 26.284C218.132 26.368 218.18 26.47 218.18 26.59L218.198 35.248C218.198 36.148 218.024 36.91 217.676 37.534C217.328 38.158 216.812 38.632 216.128 38.956C215.456 39.292 214.616 39.46 213.608 39.46ZM213.518 33.268C213.95 33.268 214.298 33.172 214.562 32.98C214.838 32.776 215.042 32.524 215.174 32.224C215.306 31.912 215.378 31.588 215.39 31.252C215.402 31.12 215.408 30.934 215.408 30.694C215.408 30.442 215.402 30.25 215.39 30.118C215.378 29.782 215.306 29.464 215.174 29.164C215.042 28.852 214.838 28.6 214.562 28.408C214.298 28.216 213.95 28.12 213.518 28.12C213.062 28.12 212.702 28.222 212.438 28.426C212.174 28.618 211.982 28.876 211.862 29.2C211.742 29.524 211.67 29.878 211.646 30.262C211.634 30.55 211.634 30.832 211.646 31.108C211.67 31.504 211.742 31.864 211.862 32.188C211.982 32.512 212.174 32.776 212.438 32.98C212.702 33.172 213.062 33.268 213.518 33.268ZM221.098 35.5C220.978 35.5 220.876 35.458 220.792 35.374C220.708 35.29 220.666 35.182 220.666 35.05V26.59C220.666 26.458 220.708 26.35 220.792 26.266C220.876 26.182 220.978 26.14 221.098 26.14H222.862C222.994 26.14 223.102 26.182 223.186 26.266C223.27 26.35 223.312 26.458 223.312 26.59V27.292C223.624 26.908 224.026 26.59 224.518 26.338C225.01 26.086 225.61 25.96 226.318 25.96C227.026 25.96 227.644 26.122 228.172 26.446C228.712 26.758 229.132 27.22 229.432 27.832C229.744 28.432 229.9 29.164 229.9 30.028V35.05C229.9 35.182 229.852 35.29 229.756 35.374C229.672 35.458 229.57 35.5 229.45 35.5H227.542C227.41 35.5 227.302 35.458 227.218 35.374C227.134 35.29 227.092 35.182 227.092 35.05V30.136C227.092 29.5 226.936 29.008 226.624 28.66C226.324 28.3 225.88 28.12 225.292 28.12C224.728 28.12 224.278 28.3 223.942 28.66C223.606 29.008 223.438 29.5 223.438 30.136V35.05C223.438 35.182 223.396 35.29 223.312 35.374C223.228 35.458 223.126 35.5 223.006 35.5H221.098ZM239.867 35.68C239.171 35.68 238.553 35.524 238.013 35.212C237.485 34.888 237.071 34.426 236.771 33.826C236.483 33.214 236.339 32.476 236.339 31.612V26.59C236.339 26.458 236.381 26.35 236.465 26.266C236.549 26.182 236.651 26.14 236.771 26.14H238.679C238.811 26.14 238.919 26.182 239.003 26.266C239.087 26.35 239.129 26.458 239.129 26.59V31.504C239.129 32.848 239.717 33.52 240.893 33.52C241.457 33.52 241.901 33.346 242.225 32.998C242.561 32.638 242.729 32.14 242.729 31.504V26.59C242.729 26.458 242.771 26.35 242.855 26.266C242.939 26.182 243.047 26.14 243.179 26.14H245.087C245.207 26.14 245.309 26.182 245.393 26.266C245.477 26.35 245.519 26.458 245.519 26.59V35.05C245.519 35.182 245.477 35.29 245.393 35.374C245.309 35.458 245.207 35.5 245.087 35.5H243.323C243.191 35.5 243.083 35.458 242.999 35.374C242.915 35.29 242.873 35.182 242.873 35.05V34.348C242.561 34.78 242.159 35.11 241.667 35.338C241.175 35.566 240.575 35.68 239.867 35.68ZM248.434 38.92C248.302 38.92 248.194 38.878 248.11 38.794C248.026 38.71 247.984 38.602 247.984 38.47V26.59C247.984 26.458 248.026 26.35 248.11 26.266C248.194 26.182 248.302 26.14 248.434 26.14H250.144C250.276 26.14 250.384 26.182 250.468 26.266C250.552 26.35 250.594 26.458 250.594 26.59V27.274C250.882 26.89 251.254 26.578 251.71 26.338C252.166 26.086 252.736 25.96 253.42 25.96C254.044 25.96 254.584 26.062 255.04 26.266C255.508 26.458 255.898 26.74 256.21 27.112C256.534 27.472 256.78 27.91 256.948 28.426C257.128 28.942 257.23 29.524 257.254 30.172C257.266 30.4 257.272 30.616 257.272 30.82C257.272 31.024 257.266 31.246 257.254 31.486C257.242 32.098 257.146 32.662 256.966 33.178C256.798 33.694 256.552 34.138 256.228 34.51C255.904 34.882 255.508 35.17 255.04 35.374C254.584 35.578 254.044 35.68 253.42 35.68C252.808 35.68 252.274 35.572 251.818 35.356C251.374 35.128 251.008 34.822 250.72 34.438V38.47C250.72 38.602 250.678 38.71 250.594 38.794C250.51 38.878 250.408 38.92 250.288 38.92H248.434ZM252.61 33.52C253.066 33.52 253.426 33.424 253.69 33.232C253.954 33.028 254.14 32.764 254.248 32.44C254.368 32.116 254.44 31.762 254.464 31.378C254.488 31.006 254.488 30.634 254.464 30.262C254.44 29.878 254.368 29.524 254.248 29.2C254.14 28.876 253.954 28.618 253.69 28.426C253.426 28.222 253.066 28.12 252.61 28.12C252.166 28.12 251.806 28.222 251.53 28.426C251.254 28.63 251.056 28.888 250.936 29.2C250.816 29.512 250.744 29.848 250.72 30.208C250.708 30.424 250.702 30.646 250.702 30.874C250.702 31.102 250.708 31.33 250.72 31.558C250.732 31.894 250.804 32.212 250.936 32.512C251.08 32.8 251.284 33.04 251.548 33.232C251.824 33.424 252.178 33.52 252.61 33.52Z" fill="white"/>
</g>
</svg>
