<svg width="536" height="282" viewBox="0 0 536 282" fill="none" xmlns="http://www.w3.org/2000/svg">
<g id="rankGroup">
<path id="Your current ranking &#240;&#159;&#143;&#134;" d="M93.8463 61.3745L82.5183 83.2145V94.8785H75.7983V83.2145L64.4223 61.3745H72.0063L79.2063 76.6865L86.3583 61.3745H93.8463ZM109.53 95.3105C106.97 95.3105 104.666 94.7505 102.618 93.6305C100.57 92.4785 98.9539 90.8625 97.7699 88.7825C96.6179 86.7025 96.0419 84.3025 96.0419 81.5825C96.0419 78.8625 96.6339 76.4625 97.8179 74.3825C99.0339 72.3025 100.682 70.7025 102.762 69.5825C104.842 68.4305 107.162 67.8545 109.722 67.8545C112.282 67.8545 114.602 68.4305 116.682 69.5825C118.762 70.7025 120.394 72.3025 121.578 74.3825C122.794 76.4625 123.402 78.8625 123.402 81.5825C123.402 84.3025 122.778 86.7025 121.53 88.7825C120.314 90.8625 118.65 92.4785 116.538 93.6305C114.458 94.7505 112.122 95.3105 109.53 95.3105ZM109.53 89.4545C110.746 89.4545 111.882 89.1665 112.938 88.5905C114.026 87.9825 114.89 87.0865 115.53 85.9025C116.17 84.7185 116.49 83.2785 116.49 81.5825C116.49 79.0545 115.818 77.1185 114.474 75.7745C113.162 74.3985 111.546 73.7105 109.626 73.7105C107.706 73.7105 106.09 74.3985 104.778 75.7745C103.498 77.1185 102.858 79.0545 102.858 81.5825C102.858 84.1105 103.482 86.0625 104.73 87.4385C106.01 88.7825 107.61 89.4545 109.53 89.4545ZM153.435 68.2865V94.8785H146.667V91.5185C145.803 92.6705 144.667 93.5825 143.259 94.2545C141.883 94.8945 140.379 95.2145 138.747 95.2145C136.667 95.2145 134.827 94.7825 133.227 93.9185C131.627 93.0225 130.363 91.7265 129.435 90.0305C128.539 88.3025 128.091 86.2545 128.091 83.8865V68.2865H134.811V82.9265C134.811 85.0385 135.339 86.6705 136.395 87.8225C137.451 88.9425 138.891 89.5025 140.715 89.5025C142.571 89.5025 144.027 88.9425 145.083 87.8225C146.139 86.6705 146.667 85.0385 146.667 82.9265V68.2865H153.435ZM166.786 72.4145C167.65 71.0065 168.77 69.9025 170.146 69.1025C171.554 68.3025 173.154 67.9025 174.946 67.9025V74.9585H173.17C171.058 74.9585 169.458 75.4545 168.37 76.4465C167.314 77.4385 166.786 79.1665 166.786 81.6305V94.8785H160.066V68.2865H166.786V72.4145ZM189.181 81.5825C189.181 78.8305 189.741 76.4305 190.861 74.3825C191.981 72.3025 193.533 70.7025 195.517 69.5825C197.501 68.4305 199.773 67.8545 202.333 67.8545C205.629 67.8545 208.349 68.6865 210.493 70.3505C212.669 71.9825 214.125 74.2865 214.861 77.2625H207.613C207.229 76.1105 206.573 75.2145 205.645 74.5745C204.749 73.9025 203.629 73.5665 202.285 73.5665C200.365 73.5665 198.845 74.2705 197.725 75.6785C196.605 77.0545 196.045 79.0225 196.045 81.5825C196.045 84.1105 196.605 86.0785 197.725 87.4865C198.845 88.8625 200.365 89.5505 202.285 89.5505C205.005 89.5505 206.781 88.3345 207.613 85.9025H214.861C214.125 88.7825 212.669 91.0705 210.493 92.7665C208.317 94.4625 205.597 95.3105 202.333 95.3105C199.773 95.3105 197.501 94.7505 195.517 93.6305C193.533 92.4785 191.981 90.8785 190.861 88.8305C189.741 86.7505 189.181 84.3345 189.181 81.5825ZM244.888 68.2865V94.8785H238.12V91.5185C237.256 92.6705 236.12 93.5825 234.712 94.2545C233.336 94.8945 231.832 95.2145 230.2 95.2145C228.12 95.2145 226.28 94.7825 224.68 93.9185C223.08 93.0225 221.816 91.7265 220.888 90.0305C219.992 88.3025 219.544 86.2545 219.544 83.8865V68.2865H226.264V82.9265C226.264 85.0385 226.792 86.6705 227.848 87.8225C228.904 88.9425 230.344 89.5025 232.168 89.5025C234.024 89.5025 235.48 88.9425 236.536 87.8225C237.592 86.6705 238.12 85.0385 238.12 82.9265V68.2865H244.888ZM258.239 72.4145C259.103 71.0065 260.223 69.9025 261.599 69.1025C263.007 68.3025 264.607 67.9025 266.399 67.9025V74.9585H264.623C262.511 74.9585 260.911 75.4545 259.823 76.4465C258.767 77.4385 258.239 79.1665 258.239 81.6305V94.8785H251.519V68.2865H258.239V72.4145ZM277.645 72.4145C278.509 71.0065 279.629 69.9025 281.005 69.1025C282.413 68.3025 284.013 67.9025 285.805 67.9025V74.9585H284.029C281.917 74.9585 280.317 75.4545 279.229 76.4465C278.173 77.4385 277.645 79.1665 277.645 81.6305V94.8785H270.925V68.2865H277.645V72.4145ZM315.051 81.0065C315.051 81.9665 314.987 82.8305 314.859 83.5985H295.419C295.579 85.5185 296.251 87.0225 297.435 88.1105C298.619 89.1985 300.075 89.7425 301.803 89.7425C304.299 89.7425 306.075 88.6705 307.131 86.5265H314.379C313.611 89.0865 312.139 91.1985 309.963 92.8625C307.787 94.4945 305.115 95.3105 301.947 95.3105C299.387 95.3105 297.083 94.7505 295.035 93.6305C293.019 92.4785 291.435 90.8625 290.283 88.7825C289.163 86.7025 288.603 84.3025 288.603 81.5825C288.603 78.8305 289.163 76.4145 290.283 74.3345C291.403 72.2545 292.971 70.6545 294.987 69.5345C297.003 68.4145 299.323 67.8545 301.947 67.8545C304.475 67.8545 306.731 68.3985 308.715 69.4865C310.731 70.5745 312.283 72.1265 313.371 74.1425C314.491 76.1265 315.051 78.4145 315.051 81.0065ZM308.091 79.0865C308.059 77.3585 307.435 75.9825 306.219 74.9585C305.003 73.9025 303.515 73.3745 301.755 73.3745C300.091 73.3745 298.683 73.8865 297.531 74.9105C296.411 75.9025 295.723 77.2945 295.467 79.0865H308.091ZM334.692 67.9025C337.86 67.9025 340.42 68.9105 342.372 70.9265C344.324 72.9105 345.3 75.6945 345.3 79.2785V94.8785H338.58V80.1905C338.58 78.0785 338.052 76.4625 336.996 75.3425C335.94 74.1905 334.5 73.6145 332.676 73.6145C330.82 73.6145 329.348 74.1905 328.26 75.3425C327.204 76.4625 326.676 78.0785 326.676 80.1905V94.8785H319.956V68.2865H326.676V71.5985C327.572 70.4465 328.708 69.5505 330.084 68.9105C331.492 68.2385 333.028 67.9025 334.692 67.9025ZM359.515 73.8065V86.6705C359.515 87.5665 359.723 88.2225 360.139 88.6385C360.587 89.0225 361.323 89.2145 362.347 89.2145H365.467V94.8785H361.243C355.579 94.8785 352.747 92.1265 352.747 86.6225V73.8065H349.579V68.2865H352.747V61.7105H359.515V68.2865H365.467V73.8065H359.515ZM73.9263 121.415C74.7903 120.007 75.9103 118.903 77.2863 118.103C78.6943 117.303 80.2943 116.903 82.0863 116.903V123.959H80.3103C78.1983 123.959 76.5983 124.455 75.5103 125.447C74.4543 126.439 73.9263 128.167 73.9263 130.631V143.879H67.2063V117.287H73.9263V121.415ZM84.8845 130.487C84.8845 127.799 85.4125 125.415 86.4685 123.335C87.5565 121.255 89.0125 119.655 90.8365 118.535C92.6925 117.415 94.7565 116.855 97.0285 116.855C99.0125 116.855 100.741 117.255 102.213 118.055C103.717 118.855 104.917 119.863 105.813 121.079V117.287H112.581V143.879H105.813V139.991C104.949 141.239 103.749 142.279 102.213 143.111C100.709 143.911 98.9645 144.311 96.9805 144.311C94.7405 144.311 92.6925 143.735 90.8365 142.583C89.0125 141.431 87.5565 139.815 86.4685 137.735C85.4125 135.623 84.8845 133.207 84.8845 130.487ZM105.813 130.583C105.813 128.951 105.493 127.559 104.853 126.407C104.213 125.223 103.349 124.327 102.261 123.719C101.173 123.079 100.005 122.759 98.7565 122.759C97.5085 122.759 96.3565 123.063 95.3005 123.671C94.2445 124.279 93.3805 125.175 92.7085 126.359C92.0685 127.511 91.7485 128.887 91.7485 130.487C91.7485 132.087 92.0685 133.495 92.7085 134.711C93.3805 135.895 94.2445 136.807 95.3005 137.447C96.3885 138.087 97.5405 138.407 98.7565 138.407C100.005 138.407 101.173 138.103 102.261 137.495C103.349 136.855 104.213 135.959 104.853 134.807C105.493 133.623 105.813 132.215 105.813 130.583ZM133.88 116.903C137.048 116.903 139.608 117.911 141.56 119.927C143.512 121.911 144.488 124.695 144.488 128.279V143.879H137.768V129.191C137.768 127.079 137.24 125.463 136.184 124.343C135.128 123.191 133.688 122.615 131.864 122.615C130.008 122.615 128.536 123.191 127.448 124.343C126.392 125.463 125.864 127.079 125.864 129.191V143.879H119.144V117.287H125.864V120.599C126.76 119.447 127.896 118.551 129.272 117.911C130.68 117.239 132.216 116.903 133.88 116.903ZM166.622 143.879L157.598 132.551V143.879H150.878V108.359H157.598V128.567L166.526 117.287H175.262L163.55 130.631L175.358 143.879H166.622ZM182.317 114.119C181.133 114.119 180.141 113.751 179.341 113.015C178.573 112.247 178.189 111.303 178.189 110.183C178.189 109.063 178.573 108.135 179.341 107.399C180.141 106.631 181.133 106.247 182.317 106.247C183.501 106.247 184.477 106.631 185.245 107.399C186.045 108.135 186.445 109.063 186.445 110.183C186.445 111.303 186.045 112.247 185.245 113.015C184.477 113.751 183.501 114.119 182.317 114.119ZM185.629 117.287V143.879H178.909V117.287H185.629ZM207.005 116.903C210.173 116.903 212.733 117.911 214.685 119.927C216.637 121.911 217.613 124.695 217.613 128.279V143.879H210.893V129.191C210.893 127.079 210.365 125.463 209.309 124.343C208.253 123.191 206.813 122.615 204.989 122.615C203.133 122.615 201.661 123.191 200.573 124.343C199.517 125.463 198.989 127.079 198.989 129.191V143.879H192.269V117.287H198.989V120.599C199.885 119.447 201.021 118.551 202.397 117.911C203.805 117.239 205.341 116.903 207.005 116.903ZM234.419 116.855C236.403 116.855 238.147 117.255 239.651 118.055C241.155 118.823 242.339 119.831 243.203 121.079V117.287H249.971V144.071C249.971 146.535 249.475 148.727 248.483 150.647C247.491 152.599 246.003 154.135 244.019 155.255C242.035 156.407 239.635 156.983 236.819 156.983C233.043 156.983 229.939 156.103 227.507 154.343C225.107 152.583 223.747 150.183 223.427 147.143H230.099C230.451 148.359 231.203 149.319 232.355 150.023C233.539 150.759 234.963 151.127 236.627 151.127C238.579 151.127 240.163 150.535 241.379 149.351C242.595 148.199 243.203 146.439 243.203 144.071V139.943C242.339 141.191 241.139 142.231 239.603 143.063C238.099 143.895 236.371 144.311 234.419 144.311C232.179 144.311 230.131 143.735 228.275 142.583C226.419 141.431 224.947 139.815 223.859 137.735C222.803 135.623 222.275 133.207 222.275 130.487C222.275 127.799 222.803 125.415 223.859 123.335C224.947 121.255 226.403 119.655 228.227 118.535C230.083 117.415 232.147 116.855 234.419 116.855ZM243.203 130.583C243.203 128.951 242.883 127.559 242.243 126.407C241.603 125.223 240.739 124.327 239.651 123.719C238.563 123.079 237.395 122.759 236.147 122.759C234.899 122.759 233.747 123.063 232.691 123.671C231.635 124.279 230.771 125.175 230.099 126.359C229.459 127.511 229.139 128.887 229.139 130.487C229.139 132.087 229.459 133.495 230.099 134.711C230.771 135.895 231.635 136.807 232.691 137.447C233.779 138.087 234.931 138.407 236.147 138.407C237.395 138.407 238.563 138.103 239.651 137.495C240.739 136.855 241.603 135.959 242.243 134.807C242.883 133.623 243.203 132.215 243.203 130.583ZM264.66 147.239H312.66V99.2385H264.66V147.239Z" fill="black" fill-opacity="0.75"/>
<path id="Vector 6" d="M112.914 4.31917L111.365 11.0948C110.531 14.744 113.934 17.4817 116.867 15.5214V15.5214C119.801 13.561 123.204 16.2988 122.369 19.948L120.821 26.7236" stroke="#FFF500" stroke-width="5" stroke-linecap="round"/>
<path id="Vector 4" d="M232.202 16L229.051 19.6624C227.462 21.5102 228.774 24.3714 231.212 24.3714V24.3714C233.649 24.3714 234.962 27.2327 233.373 29.0804L230.222 32.7429" stroke="#FFD600" stroke-opacity="0.75" stroke-width="5" stroke-linecap="round"/>
<path id="Vector 5" d="M24.3086 170.724L28.2044 169.5C30.3026 168.841 30.5339 165.655 28.5783 164.348V164.348C26.6228 163.041 26.854 159.854 28.9522 159.195L32.848 157.972" stroke="#FF5C00" stroke-opacity="0.75" stroke-width="5" stroke-linecap="round"/>
<path id="Vector 2" d="M13.9952 44.4914L7.85111 56.8617C6.66174 59.2564 8.66373 61.8127 11.1295 61.0479V61.0479C13.5978 60.2823 15.6001 62.844 14.4055 65.2391L7.16038 79.7648" stroke="#FF5C00" stroke-width="6" stroke-linecap="round"/>
<ellipse id="Ellipse 2" cx="73.9934" cy="193.186" rx="3.99338" ry="4.18571" fill="#FFB800"/>
</g>
</svg>
