<svg width="142" height="39" viewBox="0 0 142 39" fill="none" xmlns="http://www.w3.org/2000/svg">
<g id="setGoalsButton">
<rect id="Rectangle 10" width="142" height="39" rx="7" fill="#FF6B00" fill-opacity="0.75"/>
<path id="Set Goals!" d="M25.58 26.126C24.704 26.126 23.912 25.976 23.204 25.676C22.508 25.376 21.956 24.944 21.548 24.38C21.14 23.816 20.93 23.15 20.918 22.382H23.618C23.654 22.898 23.834 23.306 24.158 23.606C24.494 23.906 24.95 24.056 25.526 24.056C26.114 24.056 26.576 23.918 26.912 23.642C27.248 23.354 27.416 22.982 27.416 22.526C27.416 22.154 27.302 21.848 27.074 21.608C26.846 21.368 26.558 21.182 26.21 21.05C25.874 20.906 25.406 20.75 24.806 20.582C23.99 20.342 23.324 20.108 22.808 19.88C22.304 19.64 21.866 19.286 21.494 18.818C21.134 18.338 20.954 17.702 20.954 16.91C20.954 16.166 21.14 15.518 21.512 14.966C21.884 14.414 22.406 13.994 23.078 13.706C23.75 13.406 24.518 13.256 25.382 13.256C26.678 13.256 27.728 13.574 28.532 14.21C29.348 14.834 29.798 15.71 29.882 16.838H27.11C27.086 16.406 26.9 16.052 26.552 15.776C26.216 15.488 25.766 15.344 25.202 15.344C24.71 15.344 24.314 15.47 24.014 15.722C23.726 15.974 23.582 16.34 23.582 16.82C23.582 17.156 23.69 17.438 23.906 17.666C24.134 17.882 24.41 18.062 24.734 18.206C25.07 18.338 25.538 18.494 26.138 18.674C26.954 18.914 27.62 19.154 28.136 19.394C28.652 19.634 29.096 19.994 29.468 20.474C29.84 20.954 30.026 21.584 30.026 22.364C30.026 23.036 29.852 23.66 29.504 24.236C29.156 24.812 28.646 25.274 27.974 25.622C27.302 25.958 26.504 26.126 25.58 26.126ZM41.4808 20.798C41.4808 21.158 41.4568 21.482 41.4088 21.77H34.1188C34.1788 22.49 34.4308 23.054 34.8748 23.462C35.3188 23.87 35.8648 24.074 36.5128 24.074C37.4488 24.074 38.1148 23.672 38.5108 22.868H41.2288C40.9408 23.828 40.3888 24.62 39.5728 25.244C38.7568 25.856 37.7548 26.162 36.5668 26.162C35.6068 26.162 34.7428 25.952 33.9748 25.532C33.2188 25.1 32.6248 24.494 32.1928 23.714C31.7728 22.934 31.5627 22.034 31.5627 21.014C31.5627 19.982 31.7728 19.076 32.1928 18.296C32.6128 17.516 33.2008 16.916 33.9568 16.496C34.7128 16.076 35.5828 15.866 36.5668 15.866C37.5148 15.866 38.3608 16.07 39.1048 16.478C39.8608 16.886 40.4428 17.468 40.8508 18.224C41.2708 18.968 41.4808 19.826 41.4808 20.798ZM38.8708 20.078C38.8588 19.43 38.6248 18.914 38.1688 18.53C37.7128 18.134 37.1548 17.936 36.4948 17.936C35.8708 17.936 35.3428 18.128 34.9108 18.512C34.4908 18.884 34.2328 19.406 34.1368 20.078H38.8708ZM46.2541 18.098V22.922C46.2541 23.258 46.3321 23.504 46.4881 23.66C46.6561 23.804 46.9321 23.876 47.3161 23.876H48.4861V26H46.9021C44.7781 26 43.7161 24.968 43.7161 22.904V18.098H42.5281V16.028H43.7161V13.562H46.2541V16.028H48.4861V18.098H46.2541ZM63.3357 17.216C63.0477 16.688 62.6517 16.286 62.1477 16.01C61.6437 15.734 61.0557 15.596 60.3837 15.596C59.6397 15.596 58.9797 15.764 58.4037 16.1C57.8277 16.436 57.3777 16.916 57.0537 17.54C56.7297 18.164 56.5677 18.884 56.5677 19.7C56.5677 20.54 56.7297 21.272 57.0537 21.896C57.3897 22.52 57.8517 23 58.4397 23.336C59.0277 23.672 59.7117 23.84 60.4917 23.84C61.4517 23.84 62.2377 23.588 62.8497 23.084C63.4617 22.568 63.8637 21.854 64.0557 20.942H59.7357V19.016H66.5397V21.212C66.3717 22.088 66.0117 22.898 65.4597 23.642C64.9077 24.386 64.1937 24.986 63.3177 25.442C62.4537 25.886 61.4817 26.108 60.4017 26.108C59.1897 26.108 58.0917 25.838 57.1077 25.298C56.1357 24.746 55.3677 23.984 54.8037 23.012C54.2517 22.04 53.9757 20.936 53.9757 19.7C53.9757 18.464 54.2517 17.36 54.8037 16.388C55.3677 15.404 56.1357 14.642 57.1077 14.102C58.0917 13.55 59.1837 13.274 60.3837 13.274C61.7997 13.274 63.0297 13.622 64.0737 14.318C65.1177 15.002 65.8377 15.968 66.2337 17.216H63.3357ZM72.8321 26.162C71.8721 26.162 71.0081 25.952 70.2401 25.532C69.4721 25.1 68.8661 24.494 68.4221 23.714C67.9901 22.934 67.7741 22.034 67.7741 21.014C67.7741 19.994 67.9961 19.094 68.4401 18.314C68.8961 17.534 69.5141 16.934 70.2941 16.514C71.0741 16.082 71.9441 15.866 72.9041 15.866C73.8641 15.866 74.7341 16.082 75.5141 16.514C76.2941 16.934 76.9061 17.534 77.3501 18.314C77.8061 19.094 78.0341 19.994 78.0341 21.014C78.0341 22.034 77.8001 22.934 77.3321 23.714C76.8761 24.494 76.2521 25.1 75.4601 25.532C74.6801 25.952 73.8041 26.162 72.8321 26.162ZM72.8321 23.966C73.2881 23.966 73.7141 23.858 74.1101 23.642C74.5181 23.414 74.8421 23.078 75.0821 22.634C75.3221 22.19 75.4421 21.65 75.4421 21.014C75.4421 20.066 75.1901 19.34 74.6861 18.836C74.1941 18.32 73.5881 18.062 72.8681 18.062C72.1481 18.062 71.5421 18.32 71.0501 18.836C70.5701 19.34 70.3301 20.066 70.3301 21.014C70.3301 21.962 70.5641 22.694 71.0321 23.21C71.5121 23.714 72.1121 23.966 72.8321 23.966ZM79.2346 20.978C79.2346 19.97 79.4326 19.076 79.8286 18.296C80.2366 17.516 80.7826 16.916 81.4666 16.496C82.1626 16.076 82.9366 15.866 83.7886 15.866C84.5326 15.866 85.1806 16.016 85.7326 16.316C86.2966 16.616 86.7466 16.994 87.0826 17.45V16.028H89.6206V26H87.0826V24.542C86.7586 25.01 86.3086 25.4 85.7326 25.712C85.1686 26.012 84.5146 26.162 83.7706 26.162C82.9306 26.162 82.1626 25.946 81.4666 25.514C80.7826 25.082 80.2366 24.476 79.8286 23.696C79.4326 22.904 79.2346 21.998 79.2346 20.978ZM87.0826 21.014C87.0826 20.402 86.9626 19.88 86.7226 19.448C86.4826 19.004 86.1586 18.668 85.7506 18.44C85.3426 18.2 84.9046 18.08 84.4366 18.08C83.9686 18.08 83.5366 18.194 83.1406 18.422C82.7446 18.65 82.4206 18.986 82.1686 19.43C81.9286 19.862 81.8086 20.378 81.8086 20.978C81.8086 21.578 81.9286 22.106 82.1686 22.562C82.4206 23.006 82.7446 23.348 83.1406 23.588C83.5486 23.828 83.9806 23.948 84.4366 23.948C84.9046 23.948 85.3426 23.834 85.7506 23.606C86.1586 23.366 86.4826 23.03 86.7226 22.598C86.9626 22.154 87.0826 21.626 87.0826 21.014ZM94.6018 12.68V26H92.0818V12.68H94.6018ZM100.908 26.162C100.092 26.162 99.3596 26.018 98.7116 25.73C98.0636 25.43 97.5476 25.028 97.1636 24.524C96.7916 24.02 96.5876 23.462 96.5516 22.85H99.0896C99.1376 23.234 99.3236 23.552 99.6476 23.804C99.9836 24.056 100.398 24.182 100.89 24.182C101.37 24.182 101.742 24.086 102.006 23.894C102.282 23.702 102.42 23.456 102.42 23.156C102.42 22.832 102.252 22.592 101.916 22.436C101.592 22.268 101.07 22.088 100.35 21.896C99.6056 21.716 98.9936 21.53 98.5136 21.338C98.0456 21.146 97.6376 20.852 97.2896 20.456C96.9536 20.06 96.7856 19.526 96.7856 18.854C96.7856 18.302 96.9416 17.798 97.2536 17.342C97.5776 16.886 98.0336 16.526 98.6216 16.262C99.2216 15.998 99.9236 15.866 100.728 15.866C101.916 15.866 102.864 16.166 103.572 16.766C104.28 17.354 104.67 18.152 104.742 19.16H102.33C102.294 18.764 102.126 18.452 101.826 18.224C101.538 17.984 101.148 17.864 100.656 17.864C100.2 17.864 99.8456 17.948 99.5936 18.116C99.3536 18.284 99.2336 18.518 99.2336 18.818C99.2336 19.154 99.4016 19.412 99.7376 19.592C100.074 19.76 100.596 19.934 101.304 20.114C102.024 20.294 102.618 20.48 103.086 20.672C103.554 20.864 103.956 21.164 104.292 21.572C104.64 21.968 104.82 22.496 104.832 23.156C104.832 23.732 104.67 24.248 104.346 24.704C104.034 25.16 103.578 25.52 102.978 25.784C102.39 26.036 101.7 26.162 100.908 26.162ZM110.158 13.22L109.87 21.914H107.746L107.44 13.22H110.158ZM108.862 26.126C108.406 26.126 108.028 25.988 107.728 25.712C107.44 25.424 107.296 25.07 107.296 24.65C107.296 24.23 107.44 23.882 107.728 23.606C108.028 23.318 108.406 23.174 108.862 23.174C109.306 23.174 109.672 23.318 109.96 23.606C110.248 23.882 110.392 24.23 110.392 24.65C110.392 25.07 110.248 25.424 109.96 25.712C109.672 25.988 109.306 26.126 108.862 26.126Z" fill="white"/>
</g>
</svg>
