<svg width="756" height="738" viewBox="0 0 756 738" fill="none" xmlns="http://www.w3.org/2000/svg">
<g id="globeIcon">
<g id="Group 3">
<g id="Ellipse 6" filter="url(#filter0_d_13_3408)">
<circle cx="435.035" cy="381.649" r="226" transform="rotate(30 435.035 381.649)" fill="#46A7FD"/>
<circle cx="435.035" cy="381.649" r="224" transform="rotate(30 435.035 381.649)" stroke="black" stroke-width="4"/>
</g>
</g>
<path id="Vector 1" d="M419.593 437.396C417.484 365.049 472.305 377.763 499.979 393.163C590.782 432.887 572.199 482.135 550.005 537.516C521.053 609.76 460.739 584.128 353.387 570.068C267.505 558.82 370.343 522.7 370.343 522.7C370.343 522.7 421.702 509.743 419.593 437.396Z" fill="#70D767"/>
<path id="Line 1" d="M416.26 369.077L407.418 341.478C403.619 329.621 409.925 316.891 421.658 312.727V312.727" stroke="#70D767" stroke-width="13" stroke-linecap="round"/>
<path id="Line 2" d="M512.484 356.504L541.305 366.746C555.478 371.782 562.771 387.458 557.494 401.544V401.544" stroke="#70D767" stroke-width="19" stroke-linecap="round"/>
<path id="Vector 2" d="M435.035 276.354C395.089 265.774 414.822 213.49 429.681 188.671C455.118 146.187 476.878 205.177 473.484 220.941C470.09 236.704 520.261 255.31 569.554 258.247C618.848 261.185 615.42 333.085 606.999 346.56C598.578 360.036 524.747 369.704 507.757 363.762C490.766 357.82 484.968 289.58 435.035 276.354Z" fill="#70D767"/>
<path id="Vector 3" d="M245.817 298.384C279.709 263.681 352.992 472.152 294.315 479.383C220.97 488.421 214.027 320.445 245.817 298.384Z" fill="#70D767"/>
<path id="Arrow 1" d="M223.426 248.038L220.656 249.189L223.426 248.038ZM274.927 372.047L272.157 373.198L274.927 372.047ZM334.144 438.866L332.668 441.479L334.144 438.866ZM571.868 573.131L573.343 570.518L571.868 573.131ZM666.509 528.451C665.571 527.085 663.704 526.738 662.338 527.675L640.076 542.953C638.71 543.891 638.362 545.758 639.3 547.124C640.237 548.49 642.105 548.838 643.471 547.9L663.259 534.32L676.839 554.108C677.777 555.474 679.644 555.822 681.01 554.884C682.376 553.947 682.724 552.079 681.786 550.713L666.509 528.451ZM294.758 163.605C296.114 162.653 296.443 160.782 295.491 159.426L279.986 137.322C279.034 135.966 277.163 135.637 275.807 136.589C274.45 137.54 274.122 139.411 275.074 140.768L288.856 160.415L269.209 174.198C267.852 175.15 267.524 177.021 268.475 178.377C269.427 179.733 271.298 180.062 272.654 179.11L294.758 163.605ZM220.656 249.189L272.157 373.198L277.698 370.897L226.197 246.888L220.656 249.189ZM332.668 441.479L570.393 575.743L573.343 570.518L335.619 436.254L332.668 441.479ZM570.393 575.743C609.517 597.84 658.766 574.873 666.985 530.698L661.086 529.6C653.62 569.728 608.883 590.591 573.343 570.518L570.393 575.743ZM272.157 373.198C284.147 402.07 305.447 426.104 332.668 441.479L335.619 436.254C309.563 421.538 289.175 398.533 277.698 370.897L272.157 373.198ZM293.554 158.194C241.857 149.124 200.526 200.717 220.656 249.189L226.197 246.888C207.883 202.79 245.485 155.852 292.517 164.103L293.554 158.194Z" fill="black"/>
</g>
<defs>
<filter id="filter0_d_13_3408" x="208.997" y="155.611" width="464.075" height="464.075" filterUnits="userSpaceOnUse" color-interpolation-filters="sRGB">
<feFlood flood-opacity="0" result="BackgroundImageFix"/>
<feColorMatrix in="SourceAlpha" type="matrix" values="0 0 0 0 0 0 0 0 0 0 0 0 0 0 0 0 0 0 127 0" result="hardAlpha"/>
<feOffset dx="12" dy="12"/>
<feComposite in2="hardAlpha" operator="out"/>
<feColorMatrix type="matrix" values="0 0 0 0 0 0 0 0 0 0 0 0 0 0 0 0 0 0 1 0"/>
<feBlend mode="normal" in2="BackgroundImageFix" result="effect1_dropShadow_13_3408"/>
<feBlend mode="normal" in="SourceGraphic" in2="effect1_dropShadow_13_3408" result="shape"/>
</filter>
</defs>
</svg>
