<svg width="614" height="513" viewBox="0 0 614 513" fill="none" xmlns="http://www.w3.org/2000/svg">
<g id="purposeIcons">
<g id="bagIcon">
<path id="Rectangle 20" d="M35.4551 339.887C35.4551 334.991 39.4235 331.023 44.3188 331.023H53.1825C58.0778 331.023 62.0463 334.991 62.0463 339.887V379.773H35.4551V339.887Z" fill="#70D767"/>
<path id="Rectangle 21" d="M150.683 339.887C150.683 334.991 154.652 331.023 159.547 331.023H168.411C173.306 331.023 177.275 334.991 177.275 339.887V384.205H150.683V339.887Z" fill="#70D767"/>
<path id="Rectangle 19" d="M51.2846 370.276C42.7231 367.601 34.0232 373.997 34.0232 382.966V472.843C34.0232 480.186 39.9759 486.139 47.3188 486.139H171.411C178.754 486.139 184.707 480.186 184.707 472.843V382.966C184.707 373.997 176.007 367.601 167.445 370.276L110.687 388.013C109.826 388.282 108.904 388.282 108.043 388.013L51.2846 370.276Z" fill="#F9FCF8" stroke="#348E2B" stroke-width="8.86373"/>
<path id="Vector" d="M76.8542 415.375V433.125H94.9376" stroke="#70D767" stroke-width="8.86373" stroke-linecap="round" stroke-linejoin="round"/>
<path id="Vector_2" d="M140.146 459.75V442H122.063" stroke="#70D767" stroke-width="8.86373" stroke-linecap="round" stroke-linejoin="round"/>
<path id="Vector_3" d="M132.925 428.686C131.466 424.444 128.986 420.653 125.717 417.664C122.448 414.675 118.496 412.587 114.23 411.594C109.964 410.602 105.523 410.737 101.322 411.987C97.1202 413.237 93.295 415.561 90.203 418.743L76.8542 431.645M140.146 443.481L126.797 456.383C123.705 459.565 119.88 461.889 115.678 463.139C111.477 464.389 107.036 464.524 102.77 463.531C98.5042 462.538 94.5523 460.45 91.2832 457.462C88.0141 454.473 85.5343 450.681 84.0753 446.44" stroke="#70D767" stroke-width="8.86373" stroke-linecap="round" stroke-linejoin="round"/>
</g>
<g id="lightbulbIcon">
<path id="Union" d="M356.956 139.761C375.384 130.157 387.98 110.872 387.98 88.6375C387.98 56.818 362.185 31.0232 330.365 31.0232C298.546 31.0232 272.751 56.818 272.751 88.6375C272.751 110.872 285.346 130.156 303.774 139.761V159.547C303.774 166.89 309.727 172.843 317.07 172.843H343.661C351.004 172.843 356.956 166.89 356.956 159.547V139.761Z" stroke="#348E2B" stroke-width="8.86373"/>
<g id="Group 8">
<path id="Vector 11" d="M330.366 110.797L330.366 150.684" stroke="#348E2B" stroke-width="8.86373" stroke-linecap="round"/>
<path id="Intersect" d="M328.357 106.421L331.595 106.46L332.616 103.386C334.653 97.2524 333.954 90.1881 330.087 84.4146C326.207 78.6215 319.99 75.4192 313.583 75.3424L310.345 75.3036L309.324 78.3771C307.287 84.5107 307.986 91.5751 311.853 97.3486C315.733 103.142 321.95 106.344 328.357 106.421Z" fill="#70D767" stroke="#348E2B" stroke-width="8.86373"/>
<path id="Intersect_2" d="M335.742 106.421L332.504 106.46L331.483 103.386C329.446 97.2524 330.145 90.1881 334.012 84.4146C337.892 78.6215 344.109 75.4192 350.516 75.3424L353.755 75.3036L354.775 78.3771C356.812 84.5107 356.114 91.5751 352.246 97.3486C348.366 103.142 342.149 106.344 335.742 106.421Z" fill="#70D767" stroke="#348E2B" stroke-width="8.86373"/>
</g>
<path id="Vector 10" d="M308.206 155.116H352.525" stroke="#348E2B" stroke-width="8.86373" stroke-linecap="round"/>
</g>
<g id="bottleIcon">
<g id="Group 6">
<path id="Rectangle 7" d="M480.615 438.506L480.62 438.493L480.625 438.48C481.429 436.395 483.006 435.249 484.469 434.991C485.85 434.749 487.365 435.241 488.436 437.008C490.635 440.639 495.624 441.476 498.979 438.945L507.796 432.291L507.893 432.218L507.982 432.135L509.623 430.586L508.103 428.974L509.623 430.586C517.323 423.324 529.967 426.666 533.068 436.414L533.091 436.488L533.12 436.56L535.08 441.5C535.644 442.921 536.287 444.353 536.909 445.741C537.032 446.015 537.154 446.288 537.275 446.559C538.018 448.223 538.714 449.83 539.271 451.423C540.389 454.617 540.865 457.526 540.122 460.33C540.063 460.551 539.978 460.765 539.871 460.963L541.82 462.017L539.871 460.964C539.238 462.134 538.945 462.64 538.608 463.081C538.273 463.52 537.851 463.951 536.867 464.878C534.204 467.39 531.049 468.706 527.308 468.706H487.421C486.441 468.706 485.704 468.681 485.096 468.62L484.876 470.825L485.096 468.62C482.438 468.354 479.641 467.018 477.515 465.016C475.387 463.013 474.126 460.539 474.126 458.097V457.529C474.126 455.018 475.082 452.442 476.188 449.573L480.615 438.506Z" fill="#70D767" stroke="#F9FCF8" stroke-width="4.43187"/>
<path id="Vector_4" d="M469.286 449.385L469.359 449.236L469.421 449.083L477.936 427.919C481.252 419.679 481.745 410.666 479.338 402.141L473.579 381.746C470.6 371.193 473.377 359.902 481.143 351.551L500.001 331.271C500.117 331.302 500.26 331.344 500.435 331.399C500.729 331.493 501.025 331.596 501.394 331.725C501.475 331.754 501.56 331.783 501.648 331.814C502.109 331.975 502.661 332.164 503.245 332.335C504.346 332.656 505.769 332.976 507.365 332.925C508.96 332.976 510.384 332.656 511.484 332.335C512.069 332.164 512.62 331.975 513.081 331.815C513.17 331.784 513.254 331.754 513.335 331.726C513.705 331.597 514.001 331.493 514.295 331.4C514.469 331.344 514.612 331.303 514.729 331.272L533.587 351.552C541.353 359.903 544.13 371.194 541.151 381.746L535.392 402.142C532.985 410.666 533.478 419.679 536.794 427.92L545.309 449.084L545.371 449.237L545.444 449.385C551.23 461.152 542.229 475.436 527.087 475.436L507.365 475.435H487.643C472.501 475.435 463.5 461.151 469.286 449.385ZM500.437 330.803C500.436 330.803 500.436 330.803 500.436 330.804L500.437 330.803L497.191 327.785L500.437 330.803Z" stroke="#348E2B" stroke-width="8.86373"/>
<rect id="Rectangle 6" x="495.069" y="309.16" width="26.5912" height="13.2956" rx="4.43187" fill="#70D767"/>
</g>
</g>
<g id="electricityIcon">
<g id="electrivityVector" filter="url(#filter0_d_34_180)">
<path d="M279.631 348.571L282.765 345.438L279.631 348.571C282.533 351.474 286.722 353.545 290.951 355.076C295.272 356.64 300.096 357.802 304.662 358.658C309.759 359.613 314.696 360.218 318.497 360.564C316.842 363.173 314.645 366.396 312.205 369.976C311.088 371.614 309.92 373.327 308.73 375.09C304.989 380.632 301.078 386.598 298.235 391.78C296.817 394.364 295.591 396.885 294.788 399.146C294.064 401.186 293.359 403.868 293.977 406.343C294.323 407.727 295.224 409.052 296.725 409.808C298.022 410.462 299.298 410.45 300.103 410.361C301.678 410.185 303.291 409.487 304.638 408.801C307.501 407.343 311.219 404.835 315.357 401.763C323.713 395.557 334.556 386.458 345.252 377.013C355.964 367.553 366.615 357.668 374.605 349.852C378.594 345.951 381.96 342.526 384.349 339.908C385.535 338.609 386.542 337.441 387.276 336.479C387.637 336.006 388.001 335.492 388.296 334.981C388.443 334.725 388.619 334.391 388.769 334.006C388.897 333.676 389.13 333 389.13 332.143C389.13 328.543 386.08 327.127 384.876 326.718C383.438 326.229 381.729 326.061 380.145 325.995C376.869 325.858 372.398 326.119 367.509 326.459C366.297 326.544 365.05 326.634 363.775 326.726C354.511 327.394 343.733 328.171 333.938 327.715C331.767 327.614 330.935 327.203 330.715 327.061C330.702 326.972 330.69 326.796 330.717 326.507C330.812 325.522 331.297 323.965 332.41 321.73C333.492 319.558 335.009 317.053 336.864 314.237C338.949 311.072 341.236 307.837 343.662 304.406C345.71 301.508 347.857 298.471 350.066 295.217C354.696 288.395 359.249 281.095 362.198 274.017C362.926 272.269 363.613 270.163 363.395 268.17C363.269 267.031 362.807 265.599 361.56 264.474C360.327 263.363 358.887 263.056 357.813 263.026C355.902 262.972 353.995 263.746 352.566 264.443C350.964 265.224 349.17 266.317 347.272 267.607C339.719 272.739 328.908 282.088 318.196 292.383C307.45 302.711 296.573 314.211 288.901 323.756C285.09 328.499 281.929 332.931 279.995 336.587C279.042 338.388 278.239 340.272 277.912 342.071C277.602 343.777 277.552 346.492 279.631 348.571Z" stroke="#FFAE00" stroke-width="8.86373" stroke-linecap="round" shape-rendering="crispEdges"/>
</g>
</g>
</g>
<defs>
<filter id="filter0_d_34_180" x="273.324" y="258.591" width="120.237" height="165.109" filterUnits="userSpaceOnUse" color-interpolation-filters="sRGB">
<feFlood flood-opacity="0" result="BackgroundImageFix"/>
<feColorMatrix in="SourceAlpha" type="matrix" values="0 0 0 0 0 0 0 0 0 0 0 0 0 0 0 0 0 0 127 0" result="hardAlpha"/>
<feOffset dy="8.86373"/>
<feComposite in2="hardAlpha" operator="out"/>
<feColorMatrix type="matrix" values="0 0 0 0 0.439216 0 0 0 0 0.843137 0 0 0 0 0.403922 0 0 0 1 0"/>
<feBlend mode="normal" in2="BackgroundImageFix" result="effect1_dropShadow_34_180"/>
<feBlend mode="normal" in="SourceGraphic" in2="effect1_dropShadow_34_180" result="shape"/>
</filter>
</defs>
</svg>
